<ttFont>
<head>
    <!-- Most of this table will be recalculated by the compiler -->
    <tableVersion value="1.0"/>
    <fontRevision value="1.016"/>
    <checkSumAdjustment value="0xc7989499"/>
    <magicNumber value="0x5f0f3cf5"/>
    <flags value="00000000 00001001"/>
    <unitsPerEm value="1000"/>
    <created value="Thu Mar  1 01:50:57 2018"/>
    <modified value="Fri Mar  8 01:21:36 2019"/>
    <xMin value="-274"/>
    <yMin value="-371"/>
    <xMax value="1098"/>
    <yMax value="985"/>
    <macStyle value="00000000 00000000"/>
    <lowestRecPPEM value="8"/>
    <fontDirectionHint value="2"/>
    <indexToLocFormat value="0"/>
    <glyphDataFormat value="0"/>
  </head>
    <TTGlyph name="A" xMin="33" yMin="-52" xMax="733" yMax="746">
      <contour>
        <pt x="689" y="104" on="1"/>
        <pt x="706" y="118" on="0"/>
        <pt x="732" y="113" on="0"/>
        <pt x="732" y="90" on="1"/>
        <pt x="733" y="84" on="0"/>
        <pt x="726" y="70" on="0"/>
        <pt x="718" y="59" on="0"/>
        <pt x="703" y="46" on="0"/>
        <pt x="694" y="40" on="0"/>
        <pt x="676" y="28" on="0"/>
        <pt x="674" y="27" on="1"/>
        <pt x="655" y="14" on="0"/>
        <pt x="636" y="6" on="1"/>
        <pt x="633" y="5" on="0"/>
        <pt x="612" y="-7" on="0"/>
        <pt x="592" y="-18" on="0"/>
        <pt x="563" y="-31" on="0"/>
        <pt x="541" y="-38" on="0"/>
        <pt x="518" y="-41" on="0"/>
        <pt x="513" y="-36" on="1"/>
        <pt x="484" y="-35" on="0"/>
        <pt x="436" y="-7" on="1"/>
        <pt x="372" y="30" on="0"/>
        <pt x="364" y="64" on="1"/>
        <pt x="357" y="88" on="0"/>
        <pt x="348" y="88" on="1"/>
        <pt x="340" y="88" on="0"/>
        <pt x="261" y="23" on="1"/>
        <pt x="195" y="-28" on="0"/>
        <pt x="134" y="-52" on="0"/>
        <pt x="107" y="-36" on="1"/>
        <pt x="79" y="-23" on="0"/>
        <pt x="33" y="36" on="0"/>
        <pt x="33" y="57" on="1"/>
        <pt x="33" y="82" on="0"/>
        <pt x="61" y="184" on="0"/>
        <pt x="68" y="192" on="1"/>
        <pt x="79" y="203" on="0"/>
        <pt x="79" y="228" on="1"/>
        <pt x="79" y="242" on="0"/>
        <pt x="107" y="292" on="0"/>
        <pt x="107" y="307" on="1"/>
        <pt x="107" y="328" on="0"/>
        <pt x="125" y="340" on="0"/>
        <pt x="154" y="400" on="1"/>
        <pt x="182" y="461" on="0"/>
        <pt x="192" y="501" on="1"/>
        <pt x="202" y="534" on="0"/>
        <pt x="239" y="589" on="0"/>
        <pt x="254" y="580" on="0"/>
        <pt x="320" y="633" on="1"/>
        <pt x="372" y="676" on="0"/>
        <pt x="439" y="715" on="0"/>
        <pt x="493" y="732" on="1"/>
        <pt x="541" y="746" on="0"/>
        <pt x="563" y="744" on="0"/>
        <pt x="594" y="718" on="1"/>
        <pt x="615" y="701" on="0"/>
        <pt x="628" y="678" on="0"/>
        <pt x="628" y="654" on="1"/>
        <pt x="628" y="616" on="0"/>
        <pt x="591" y="528" on="1"/>
        <pt x="582" y="509" on="0"/>
        <pt x="562" y="451" on="1"/>
        <pt x="543" y="393" on="0"/>
        <pt x="525" y="362" on="1"/>
        <pt x="509" y="336" on="0"/>
        <pt x="503" y="296" on="1"/>
        <pt x="497" y="261" on="0"/>
        <pt x="488" y="241" on="1"/>
        <pt x="485" y="236" on="0"/>
        <pt x="460" y="166" on="1"/>
        <pt x="446" y="126" on="0"/>
        <pt x="444" y="100" on="0"/>
        <pt x="455" y="80" on="1"/>
        <pt x="471" y="51" on="0"/>
        <pt x="491" y="51" on="1"/>
        <pt x="514" y="48" on="0"/>
        <pt x="537" y="28" on="1"/>
        <pt x="537" y="28" on="0"/>
        <pt x="542" y="24" on="1"/>
        <pt x="550" y="28" on="0"/>
        <pt x="587" y="41" on="0"/>
        <pt x="594" y="44" on="1"/>
        <pt x="654" y="76" on="0"/>
      </contour>
      <contour>
        <pt x="404" y="334" on="1"/>
        <pt x="430" y="375" on="0"/>
        <pt x="443" y="415" on="1"/>
        <pt x="462" y="472" on="0"/>
        <pt x="475" y="492" on="1"/>
        <pt x="488" y="510" on="0"/>
        <pt x="488" y="531" on="1"/>
        <pt x="488" y="551" on="0"/>
        <pt x="497" y="557" on="1"/>
        <pt x="504" y="561" on="0"/>
        <pt x="546" y="637" on="0"/>
        <pt x="528" y="653" on="0"/>
        <pt x="458" y="635" on="0"/>
        <pt x="431" y="620" on="1"/>
        <pt x="406" y="604" on="0"/>
        <pt x="339" y="528" on="0"/>
        <pt x="339" y="517" on="1"/>
        <pt x="339" y="507" on="0"/>
        <pt x="256" y="410" on="0"/>
        <pt x="256" y="386" on="0"/>
        <pt x="224" y="341" on="1"/>
        <pt x="191" y="292" on="0"/>
        <pt x="182" y="254" on="1"/>
        <pt x="169" y="209" on="0"/>
        <pt x="162" y="197" on="1"/>
        <pt x="154" y="180" on="0"/>
        <pt x="154" y="168" on="1"/>
        <pt x="154" y="155" on="0"/>
        <pt x="138" y="126" on="1"/>
        <pt x="125" y="100" on="0"/>
        <pt x="136" y="79" on="0"/>
        <pt x="163" y="79" on="1"/>
        <pt x="181" y="79" on="0"/>
        <pt x="251" y="125" on="0"/>
        <pt x="266" y="148" on="1"/>
        <pt x="269" y="150" on="0"/>
        <pt x="280" y="164" on="0"/>
        <pt x="295" y="185" on="0"/>
        <pt x="302" y="195" on="1"/>
        <pt x="377" y="292" on="0"/>
      </contour>
    </TTGlyph>
    <TTGlyph name="B" xMin="33" yMin="-39" xMax="760" yMax="786">
      <contour>
        <pt x="312" y="720" on="1"/>
        <pt x="337" y="739" on="0"/>
        <pt x="373" y="761" on="1"/>
        <pt x="408" y="786" on="0"/>
        <pt x="452" y="786" on="0"/>
        <pt x="477" y="754" on="0"/>
        <pt x="469" y="734" on="1"/>
        <pt x="462" y="706" on="0"/>
        <pt x="487" y="707" on="1"/>
        <pt x="503" y="709" on="0"/>
        <pt x="532" y="723" on="1"/>
        <pt x="567" y="742" on="0"/>
        <pt x="655" y="745" on="0"/>
        <pt x="685" y="731" on="1"/>
        <pt x="714" y="715" on="0"/>
        <pt x="738" y="678" on="1"/>
        <pt x="755" y="653" on="0"/>
        <pt x="760" y="625" on="0"/>
        <pt x="751" y="588" on="1"/>
        <pt x="729" y="480" on="0"/>
        <pt x="614" y="376" on="1"/>
        <pt x="555" y="326" on="1"/>
        <pt x="577" y="288" on="1"/>
        <pt x="598" y="253" on="0"/>
        <pt x="605" y="202" on="1"/>
        <pt x="609" y="182" on="0"/>
        <pt x="605" y="150" on="0"/>
        <pt x="595" y="126" on="0"/>
        <pt x="580" y="104" on="1"/>
        <pt x="538" y="43" on="0"/>
        <pt x="396" y="-37" on="0"/>
        <pt x="329" y="-39" on="1"/>
        <pt x="297" y="-39" on="0"/>
        <pt x="256" y="-25" on="0"/>
        <pt x="223" y="-1" on="1"/>
        <pt x="166" y="39" on="1"/>
        <pt x="135" y="10" on="1"/>
        <pt x="113" y="-12" on="0"/>
        <pt x="100" y="-14" on="0"/>
        <pt x="84" y="1" on="1"/>
        <pt x="69" y="12" on="0"/>
        <pt x="66" y="25" on="1"/>
        <pt x="64" y="37" on="0"/>
        <pt x="68" y="68" on="1"/>
        <pt x="72" y="100" on="0"/>
        <pt x="68" y="120" on="0"/>
        <pt x="53" y="128" on="1"/>
        <pt x="33" y="139" on="0"/>
        <pt x="33" y="150" on="1"/>
        <pt x="33" y="169" on="0"/>
        <pt x="77" y="199" on="0"/>
        <pt x="101" y="199" on="1"/>
        <pt x="113" y="199" on="0"/>
        <pt x="120" y="201" on="1"/>
        <pt x="128" y="202" on="0"/>
        <pt x="142" y="214" on="0"/>
        <pt x="149" y="223" on="1"/>
        <pt x="157" y="234" on="0"/>
        <pt x="167" y="248" on="1"/>
        <pt x="175" y="260" on="0"/>
        <pt x="187" y="292" on="0"/>
        <pt x="193" y="319" on="0"/>
        <pt x="203" y="352" on="0"/>
        <pt x="208" y="365" on="1"/>
        <pt x="213" y="374" on="0"/>
        <pt x="225" y="396" on="0"/>
        <pt x="239" y="418" on="0"/>
        <pt x="243" y="427" on="1"/>
        <pt x="253" y="446" on="0"/>
        <pt x="254" y="487" on="0"/>
        <pt x="249" y="533" on="0"/>
        <pt x="252" y="549" on="1"/>
        <pt x="253" y="559" on="0"/>
        <pt x="282" y="638" on="0"/>
        <pt x="286" y="639" on="1"/>
        <pt x="233" y="625" on="0"/>
        <pt x="206" y="632" on="1"/>
        <pt x="167" y="645" on="0"/>
        <pt x="172" y="693" on="0"/>
        <pt x="204" y="706" on="1"/>
        <pt x="218" y="712" on="0"/>
        <pt x="297" y="709" on="0"/>
      </contour>
      <contour>
        <pt x="506" y="199" on="1"/>
        <pt x="506" y="250" on="0"/>
        <pt x="486" y="267" on="1"/>
        <pt x="474" y="278" on="0"/>
        <pt x="434" y="280" on="0"/>
        <pt x="378" y="274" on="0"/>
        <pt x="361" y="275" on="1"/>
        <pt x="313" y="280" on="0"/>
        <pt x="298" y="272" on="1"/>
        <pt x="276" y="260" on="0"/>
        <pt x="253" y="95" on="0"/>
        <pt x="272" y="77" on="1"/>
        <pt x="284" y="64" on="0"/>
        <pt x="320" y="56" on="0"/>
        <pt x="357" y="61" on="0"/>
        <pt x="396" y="75" on="0"/>
        <pt x="426" y="92" on="0"/>
        <pt x="439" y="102" on="1"/>
        <pt x="506" y="151" on="0"/>
      </contour>
      <contour>
        <pt x="608" y="618" on="1"/>
        <pt x="587" y="643" on="0"/>
        <pt x="558" y="647" on="1"/>
        <pt x="514" y="654" on="0"/>
        <pt x="407" y="578" on="0"/>
        <pt x="339" y="472" on="0"/>
        <pt x="342" y="435" on="1"/>
        <pt x="348" y="372" on="0"/>
        <pt x="424" y="383" on="1"/>
        <pt x="496" y="394" on="0"/>
        <pt x="566" y="451" on="1"/>
        <pt x="623" y="498" on="0"/>
        <pt x="627" y="539" on="1"/>
        <pt x="633" y="589" on="0"/>
      </contour>
    </TTGlyph>
    <TTGlyph name="C" xMin="63" yMin="-69" xMax="681" yMax="753">
      <contour>
        <pt x="391" y="698" on="1"/>
        <pt x="426" y="722" on="0"/>
        <pt x="441" y="722" on="1"/>
        <pt x="449" y="722" on="0"/>
        <pt x="490" y="740" on="0"/>
        <pt x="529" y="753" on="0"/>
        <pt x="540" y="751" on="1"/>
        <pt x="560" y="746" on="0"/>
        <pt x="595" y="742" on="1"/>
        <pt x="648" y="734" on="0"/>
        <pt x="681" y="636" on="0"/>
        <pt x="651" y="575" on="1"/>
        <pt x="643" y="558" on="0"/>
        <pt x="629" y="525" on="1"/>
        <pt x="619" y="499" on="0"/>
        <pt x="537" y="445" on="0"/>
        <pt x="513" y="449" on="1"/>
        <pt x="496" y="453" on="0"/>
        <pt x="454" y="490" on="0"/>
        <pt x="424" y="537" on="0"/>
        <pt x="424" y="553" on="1"/>
        <pt x="424" y="581" on="0"/>
        <pt x="416" y="586" on="1"/>
        <pt x="409" y="590" on="0"/>
        <pt x="381" y="562" on="1"/>
        <pt x="353" y="535" on="0"/>
        <pt x="319" y="494" on="1"/>
        <pt x="287" y="454" on="0"/>
        <pt x="269" y="424" on="1"/>
        <pt x="104" y="133" on="0"/>
        <pt x="169" y="79" on="1"/>
        <pt x="182" y="70" on="0"/>
        <pt x="182" y="58" on="1"/>
        <pt x="182" y="45" on="0"/>
        <pt x="227" y="7" on="0"/>
        <pt x="249" y="3" on="1"/>
        <pt x="275" y="-4" on="0"/>
        <pt x="311" y="7" on="1"/>
        <pt x="331" y="12" on="0"/>
        <pt x="389" y="48" on="0"/>
        <pt x="433" y="86" on="0"/>
        <pt x="433" y="94" on="1"/>
        <pt x="433" y="117" on="0"/>
        <pt x="501" y="131" on="0"/>
        <pt x="520" y="110" on="1"/>
        <pt x="544" y="83" on="0"/>
        <pt x="476" y="-7" on="0"/>
        <pt x="405" y="-42" on="1"/>
        <pt x="373" y="-58" on="0"/>
        <pt x="327" y="-69" on="0"/>
        <pt x="285" y="-69" on="1"/>
        <pt x="239" y="-69" on="0"/>
        <pt x="220" y="-64" on="1"/>
        <pt x="202" y="-59" on="0"/>
        <pt x="173" y="-41" on="1"/>
        <pt x="125" y="-9" on="0"/>
        <pt x="98" y="37" on="1"/>
        <pt x="75" y="71" on="0"/>
        <pt x="66" y="110" on="0"/>
        <pt x="65" y="169" on="1"/>
        <pt x="63" y="220" on="0"/>
        <pt x="69" y="257" on="0"/>
        <pt x="96" y="302" on="0"/>
        <pt x="104" y="322" on="1"/>
        <pt x="121" y="364" on="0"/>
        <pt x="145" y="401" on="1"/>
        <pt x="210" y="496" on="0"/>
        <pt x="210" y="520" on="1"/>
        <pt x="210" y="531" on="0"/>
        <pt x="354" y="673" on="0"/>
      </contour>
      <contour>
        <pt x="560" y="596" on="0"/>
        <pt x="573" y="619" on="0"/>
        <pt x="573" y="623" on="1"/>
        <pt x="573" y="640" on="0"/>
        <pt x="549" y="622" on="1"/>
        <pt x="537" y="611" on="0"/>
        <pt x="529" y="596" on="1"/>
        <pt x="501" y="554" on="0"/>
        <pt x="527" y="554" on="1"/>
        <pt x="529" y="554" on="0"/>
        <pt x="545" y="573" on="0"/>
      </contour>
    </TTGlyph>
    <TTGlyph name="D" xMin="41" yMin="-40" xMax="831" yMax="821">
      <contour>
        <pt x="277" y="652" on="0"/>
        <pt x="306" y="689" on="0"/>
        <pt x="351" y="727" on="1"/>
        <pt x="358" y="733" on="0"/>
        <pt x="381" y="754" on="0"/>
        <pt x="397" y="768" on="0"/>
        <pt x="419" y="784" on="0"/>
        <pt x="430" y="789" on="1"/>
        <pt x="499" y="821" on="0"/>
        <pt x="614" y="800" on="1"/>
        <pt x="699" y="785" on="0"/>
        <pt x="730" y="724" on="1"/>
        <pt x="751" y="684" on="0"/>
        <pt x="781" y="645" on="1"/>
        <pt x="814" y="606" on="0"/>
        <pt x="831" y="524" on="0"/>
        <pt x="821" y="458" on="1"/>
        <pt x="809" y="388" on="0"/>
        <pt x="793" y="369" on="0"/>
        <pt x="793" y="346" on="1"/>
        <pt x="793" y="326" on="0"/>
        <pt x="783" y="307" on="1"/>
        <pt x="773" y="288" on="0"/>
        <pt x="736" y="234" on="1"/>
        <pt x="678" y="149" on="0"/>
        <pt x="571" y="69" on="0"/>
        <pt x="483" y="42" on="1"/>
        <pt x="425" y="25" on="0"/>
        <pt x="416" y="17" on="1"/>
        <pt x="402" y="9" on="0"/>
        <pt x="358" y="24" on="1"/>
        <pt x="311" y="40" on="0"/>
        <pt x="309" y="40" on="1"/>
        <pt x="304" y="40" on="0"/>
        <pt x="271" y="8" on="1"/>
        <pt x="243" y="-17" on="0"/>
        <pt x="186" y="-37" on="0"/>
        <pt x="135" y="-38" on="1"/>
        <pt x="104" y="-40" on="0"/>
        <pt x="87" y="-28" on="0"/>
        <pt x="67" y="11" on="1"/>
        <pt x="41" y="63" on="0"/>
        <pt x="41" y="82" on="1"/>
        <pt x="41" y="106" on="0"/>
        <pt x="86" y="182" on="0"/>
        <pt x="104" y="189" on="1"/>
        <pt x="129" y="198" on="0"/>
        <pt x="207" y="195" on="0"/>
        <pt x="223" y="183" on="1"/>
        <pt x="260" y="156" on="0"/>
        <pt x="269" y="186" on="1"/>
        <pt x="270" y="190" on="0"/>
        <pt x="280" y="211" on="0"/>
        <pt x="293" y="247" on="0"/>
        <pt x="297" y="260" on="1"/>
        <pt x="326" y="331" on="0"/>
        <pt x="327" y="377" on="0"/>
        <pt x="302" y="409" on="1"/>
        <pt x="275" y="443" on="0"/>
        <pt x="259" y="500" on="1"/>
        <pt x="249" y="538" on="0"/>
        <pt x="251" y="571" on="0"/>
        <pt x="265" y="614" on="1"/>
      </contour>
      <contour>
        <pt x="214" y="78" on="0"/>
        <pt x="211" y="91" on="0"/>
        <pt x="194" y="108" on="1"/>
        <pt x="170" y="132" on="0"/>
        <pt x="162" y="132" on="1"/>
        <pt x="152" y="132" on="0"/>
        <pt x="125" y="81" on="0"/>
        <pt x="129" y="67" on="1"/>
        <pt x="135" y="49" on="0"/>
        <pt x="186" y="48" on="0"/>
        <pt x="203" y="66" on="1"/>
      </contour>
      <contour>
        <pt x="690" y="632" on="1"/>
        <pt x="656" y="681" on="0"/>
        <pt x="649" y="703" on="1"/>
        <pt x="646" y="713" on="0"/>
        <pt x="633" y="732" on="0"/>
        <pt x="615" y="744" on="0"/>
        <pt x="606" y="744" on="1"/>
        <pt x="603" y="743" on="0"/>
        <pt x="545" y="736" on="1"/>
        <pt x="508" y="732" on="0"/>
        <pt x="471" y="715" on="0"/>
        <pt x="437" y="685" on="1"/>
        <pt x="389" y="644" on="0"/>
        <pt x="350" y="591" on="0"/>
        <pt x="343" y="560" on="1"/>
        <pt x="338" y="534" on="0"/>
        <pt x="354" y="476" on="0"/>
        <pt x="366" y="476" on="1"/>
        <pt x="373" y="476" on="0"/>
        <pt x="391" y="505" on="0"/>
        <pt x="405" y="552" on="0"/>
        <pt x="406" y="575" on="1"/>
        <pt x="408" y="585" on="0"/>
        <pt x="409" y="607" on="0"/>
        <pt x="409" y="615" on="0"/>
        <pt x="412" y="628" on="0"/>
        <pt x="414" y="632" on="0"/>
        <pt x="424" y="640" on="0"/>
        <pt x="432" y="645" on="0"/>
        <pt x="441" y="652" on="1"/>
        <pt x="466" y="665" on="0"/>
        <pt x="511" y="664" on="0"/>
        <pt x="534" y="635" on="0"/>
        <pt x="524" y="615" on="1"/>
        <pt x="511" y="588" on="0"/>
        <pt x="501" y="545" on="1"/>
        <pt x="486" y="491" on="0"/>
        <pt x="458" y="438" on="1"/>
        <pt x="437" y="396" on="0"/>
        <pt x="433" y="376" on="0"/>
        <pt x="446" y="367" on="1"/>
        <pt x="465" y="355" on="0"/>
        <pt x="525" y="360" on="1"/>
        <pt x="573" y="365" on="0"/>
        <pt x="627" y="350" on="0"/>
        <pt x="627" y="331" on="1"/>
        <pt x="627" y="311" on="0"/>
        <pt x="568" y="298" on="0"/>
        <pt x="500" y="302" on="1"/>
        <pt x="478" y="303" on="0"/>
        <pt x="467" y="304" on="1"/>
        <pt x="457" y="305" on="0"/>
        <pt x="443" y="304" on="1"/>
        <pt x="429" y="303" on="0"/>
        <pt x="425" y="303" on="1"/>
        <pt x="420" y="302" on="0"/>
        <pt x="404" y="294" on="0"/>
        <pt x="400" y="288" on="0"/>
        <pt x="392" y="269" on="0"/>
        <pt x="390" y="262" on="1"/>
        <pt x="388" y="255" on="0"/>
        <pt x="385" y="239" on="1"/>
        <pt x="373" y="191" on="0"/>
        <pt x="355" y="161" on="1"/>
        <pt x="338" y="131" on="0"/>
        <pt x="344" y="112" on="1"/>
        <pt x="347" y="100" on="0"/>
        <pt x="362" y="95" on="0"/>
        <pt x="384" y="99" on="1"/>
        <pt x="421" y="104" on="0"/>
        <pt x="442" y="104" on="1"/>
        <pt x="469" y="104" on="0"/>
        <pt x="495" y="131" on="1"/>
        <pt x="520" y="156" on="0"/>
        <pt x="550" y="169" on="1"/>
        <pt x="579" y="182" on="0"/>
        <pt x="579" y="194" on="0"/>
        <pt x="628" y="249" on="1"/>
        <pt x="670" y="298" on="0"/>
        <pt x="709" y="377" on="0"/>
        <pt x="723" y="451" on="1"/>
        <pt x="738" y="519" on="0"/>
        <pt x="726" y="587" on="0"/>
      </contour>
    </TTGlyph>
    <TTGlyph name="E" xMin="33" yMin="-48" xMax="582" yMax="836">
      <contour>
        <pt x="561" y="692" on="0"/>
        <pt x="582" y="658" on="0"/>
        <pt x="582" y="630" on="0"/>
        <pt x="560" y="597" on="0"/>
        <pt x="528" y="578" on="0"/>
        <pt x="512" y="578" on="1"/>
        <pt x="468" y="578" on="0"/>
        <pt x="382" y="638" on="1"/>
        <pt x="335" y="674" on="0"/>
        <pt x="264" y="613" on="1"/>
        <pt x="232" y="588" on="0"/>
        <pt x="223" y="588" on="1"/>
        <pt x="218" y="588" on="0"/>
        <pt x="201" y="559" on="0"/>
        <pt x="195" y="539" on="1"/>
        <pt x="189" y="519" on="0"/>
        <pt x="184" y="478" on="0"/>
        <pt x="187" y="448" on="0"/>
        <pt x="194" y="447" on="1"/>
        <pt x="195" y="447" on="0"/>
        <pt x="203" y="446" on="1"/>
        <pt x="210" y="445" on="0"/>
        <pt x="225" y="445" on="1"/>
        <pt x="240" y="444" on="0"/>
        <pt x="251" y="444" on="1"/>
        <pt x="274" y="443" on="0"/>
        <pt x="299" y="438" on="0"/>
        <pt x="316" y="426" on="0"/>
        <pt x="326" y="413" on="1"/>
        <pt x="347" y="388" on="0"/>
        <pt x="363" y="351" on="1"/>
        <pt x="368" y="337" on="0"/>
        <pt x="368" y="314" on="0"/>
        <pt x="361" y="301" on="0"/>
        <pt x="341" y="287" on="0"/>
        <pt x="328" y="281" on="0"/>
        <pt x="300" y="270" on="0"/>
        <pt x="295" y="268" on="1"/>
        <pt x="280" y="262" on="0"/>
        <pt x="231" y="245" on="0"/>
        <pt x="209" y="234" on="0"/>
        <pt x="173" y="206" on="0"/>
        <pt x="156" y="184" on="1"/>
        <pt x="129" y="151" on="0"/>
        <pt x="132" y="129" on="1"/>
        <pt x="138" y="89" on="0"/>
        <pt x="208" y="58" on="0"/>
        <pt x="303" y="71" on="0"/>
        <pt x="405" y="103" on="0"/>
        <pt x="484" y="141" on="0"/>
        <pt x="500" y="154" on="1"/>
        <pt x="519" y="169" on="0"/>
        <pt x="546" y="164" on="0"/>
        <pt x="546" y="140" on="1"/>
        <pt x="547" y="131" on="0"/>
        <pt x="531" y="105" on="0"/>
        <pt x="515" y="87" on="0"/>
        <pt x="487" y="59" on="0"/>
        <pt x="485" y="56" on="1"/>
        <pt x="431" y="-3" on="0"/>
        <pt x="288" y="-26" on="1"/>
        <pt x="158" y="-48" on="0"/>
        <pt x="80" y="7" on="1"/>
        <pt x="57" y="23" on="0"/>
        <pt x="34" y="60" on="0"/>
        <pt x="33" y="106" on="0"/>
        <pt x="39" y="140" on="0"/>
        <pt x="47" y="169" on="1"/>
        <pt x="54" y="194" on="0"/>
        <pt x="96" y="270" on="1"/>
        <pt x="141" y="344" on="0"/>
        <pt x="155" y="336" on="1"/>
        <pt x="116" y="387" on="0"/>
        <pt x="74" y="477" on="0"/>
        <pt x="79" y="525" on="1"/>
        <pt x="85" y="572" on="0"/>
        <pt x="129" y="647" on="0"/>
        <pt x="170" y="681" on="1"/>
        <pt x="199" y="704" on="0"/>
        <pt x="265" y="731" on="0"/>
        <pt x="334" y="745" on="1"/>
        <pt x="356" y="750" on="0"/>
        <pt x="367" y="759" on="0"/>
        <pt x="365" y="775" on="1"/>
        <pt x="364" y="782" on="0"/>
        <pt x="368" y="796" on="0"/>
        <pt x="377" y="809" on="0"/>
        <pt x="389" y="821" on="0"/>
        <pt x="403" y="830" on="0"/>
        <pt x="418" y="836" on="0"/>
        <pt x="425" y="836" on="1"/>
        <pt x="439" y="836" on="0"/>
        <pt x="512" y="806" on="0"/>
        <pt x="512" y="799" on="1"/>
        <pt x="512" y="793" on="0"/>
        <pt x="492" y="769" on="1"/>
        <pt x="475" y="747" on="0"/>
        <pt x="482" y="728" on="0"/>
        <pt x="512" y="721" on="1"/>
        <pt x="529" y="717" on="0"/>
      </contour>
    </TTGlyph>
    <TTGlyph name="Euro" xMin="73" yMin="-32" xMax="734" yMax="722">
      <contour>
        <pt x="442" y="-24" on="1"/>
        <pt x="404" y="-20" on="0"/>
        <pt x="321" y="2" on="0"/>
        <pt x="258" y="31" on="0"/>
        <pt x="245" y="45" on="1"/>
        <pt x="209" y="85" on="0"/>
        <pt x="190" y="185" on="1"/>
        <pt x="183" y="219" on="0"/>
        <pt x="167" y="238" on="0"/>
        <pt x="129" y="259" on="1"/>
        <pt x="115" y="267" on="0"/>
        <pt x="91" y="282" on="0"/>
        <pt x="75" y="293" on="0"/>
        <pt x="74" y="294" on="1"/>
        <pt x="73" y="296" on="0"/>
        <pt x="84" y="305" on="0"/>
        <pt x="104" y="316" on="0"/>
        <pt x="128" y="327" on="0"/>
        <pt x="154" y="336" on="0"/>
        <pt x="164" y="339" on="1"/>
        <pt x="193" y="345" on="0"/>
        <pt x="187" y="387" on="0"/>
        <pt x="153" y="408" on="1"/>
        <pt x="98" y="441" on="0"/>
        <pt x="160" y="452" on="1"/>
        <pt x="200" y="458" on="0"/>
        <pt x="244" y="491" on="0"/>
        <pt x="278" y="541" on="1"/>
        <pt x="357" y="654" on="0"/>
        <pt x="434" y="694" on="1"/>
        <pt x="488" y="722" on="0"/>
        <pt x="680" y="717" on="0"/>
        <pt x="722" y="686" on="1"/>
        <pt x="732" y="678" on="0"/>
        <pt x="731" y="662" on="0"/>
        <pt x="716" y="629" on="1"/>
        <pt x="700" y="593" on="0"/>
        <pt x="685" y="582" on="0"/>
        <pt x="668" y="596" on="1"/>
        <pt x="653" y="607" on="0"/>
        <pt x="611" y="616" on="1"/>
        <pt x="585" y="622" on="0"/>
        <pt x="552" y="621" on="0"/>
        <pt x="522" y="612" on="1"/>
        <pt x="493" y="603" on="0"/>
        <pt x="456" y="579" on="0"/>
        <pt x="424" y="546" on="1"/>
        <pt x="404" y="525" on="0"/>
        <pt x="376" y="491" on="0"/>
        <pt x="378" y="488" on="1"/>
        <pt x="382" y="481" on="0"/>
        <pt x="419" y="476" on="1"/>
        <pt x="439" y="473" on="0"/>
        <pt x="469" y="457" on="0"/>
        <pt x="486" y="436" on="0"/>
        <pt x="486" y="423" on="1"/>
        <pt x="486" y="383" on="0"/>
        <pt x="401" y="399" on="1"/>
        <pt x="364" y="406" on="0"/>
        <pt x="344" y="404" on="0"/>
        <pt x="332" y="392" on="1"/>
        <pt x="315" y="375" on="1"/>
        <pt x="331" y="359" on="1"/>
        <pt x="347" y="343" on="0"/>
        <pt x="390" y="338" on="1"/>
        <pt x="424" y="334" on="0"/>
        <pt x="470" y="302" on="0"/>
        <pt x="470" y="283" on="1"/>
        <pt x="470" y="276" on="0"/>
        <pt x="443" y="271" on="0"/>
        <pt x="398" y="271" on="1"/>
        <pt x="345" y="271" on="0"/>
        <pt x="318" y="264" on="0"/>
        <pt x="301" y="247" on="1"/>
        <pt x="281" y="227" on="0"/>
        <pt x="275" y="172" on="0"/>
        <pt x="301" y="121" on="0"/>
        <pt x="356" y="77" on="0"/>
        <pt x="392" y="67" on="1"/>
        <pt x="517" y="30" on="0"/>
        <pt x="631" y="107" on="1"/>
        <pt x="672" y="134" on="1"/>
        <pt x="704" y="112" on="1"/>
        <pt x="732" y="92" on="0"/>
        <pt x="734" y="63" on="0"/>
        <pt x="709" y="43" on="1"/>
        <pt x="656" y="3" on="0"/>
        <pt x="518" y="-32" on="0"/>
      </contour>
    </TTGlyph>
    <TTGlyph name="F" xMin="32" yMin="-49" xMax="985" yMax="811">
      <contour>
        <pt x="263" y="735" on="0"/>
        <pt x="327" y="793" on="0"/>
        <pt x="349" y="800" on="1"/>
        <pt x="393" y="811" on="0"/>
        <pt x="491" y="769" on="0"/>
        <pt x="500" y="735" on="1"/>
        <pt x="503" y="721" on="0"/>
        <pt x="511" y="704" on="1"/>
        <pt x="519" y="689" on="0"/>
        <pt x="524" y="674" on="1"/>
        <pt x="525" y="664" on="0"/>
        <pt x="535" y="649" on="0"/>
        <pt x="538" y="649" on="1"/>
        <pt x="549" y="649" on="0"/>
        <pt x="587" y="609" on="1"/>
        <pt x="603" y="593" on="0"/>
        <pt x="622" y="578" on="0"/>
        <pt x="650" y="567" on="0"/>
        <pt x="666" y="568" on="1"/>
        <pt x="680" y="568" on="0"/>
        <pt x="711" y="570" on="1"/>
        <pt x="735" y="571" on="0"/>
        <pt x="826" y="597" on="0"/>
        <pt x="837" y="606" on="1"/>
        <pt x="847" y="613" on="0"/>
        <pt x="905" y="645" on="1"/>
        <pt x="966" y="676" on="0"/>
        <pt x="976" y="666" on="1"/>
        <pt x="985" y="657" on="0"/>
        <pt x="961" y="613" on="0"/>
        <pt x="941" y="602" on="1"/>
        <pt x="939" y="601" on="0"/>
        <pt x="908" y="580" on="1"/>
        <pt x="796" y="507" on="0"/>
        <pt x="723" y="507" on="1"/>
        <pt x="705" y="505" on="0"/>
        <pt x="689" y="505" on="0"/>
        <pt x="669" y="494" on="0"/>
        <pt x="662" y="485" on="0"/>
        <pt x="648" y="449" on="0"/>
        <pt x="645" y="432" on="1"/>
        <pt x="641" y="415" on="0"/>
        <pt x="632" y="379" on="1"/>
        <pt x="613" y="295" on="0"/>
        <pt x="603" y="282" on="1"/>
        <pt x="592" y="261" on="0"/>
        <pt x="604" y="260" on="1"/>
        <pt x="610" y="260" on="0"/>
        <pt x="622" y="266" on="0"/>
        <pt x="634" y="275" on="0"/>
        <pt x="639" y="276" on="1"/>
        <pt x="654" y="281" on="0"/>
        <pt x="678" y="277" on="1"/>
        <pt x="717" y="270" on="0"/>
        <pt x="740" y="240" on="1"/>
        <pt x="745" y="234" on="0"/>
        <pt x="745" y="229" on="1"/>
        <pt x="745" y="220" on="0"/>
        <pt x="731" y="213" on="1"/>
        <pt x="710" y="201" on="0"/>
        <pt x="699" y="200" on="1"/>
        <pt x="688" y="198" on="0"/>
        <pt x="675" y="205" on="0"/>
        <pt x="671" y="215" on="0"/>
        <pt x="663" y="226" on="0"/>
        <pt x="657" y="227" on="1"/>
        <pt x="653" y="229" on="0"/>
        <pt x="643" y="220" on="1"/>
        <pt x="632" y="210" on="0"/>
        <pt x="597" y="195" on="1"/>
        <pt x="576" y="187" on="0"/>
        <pt x="542" y="154" on="0"/>
        <pt x="516" y="109" on="0"/>
        <pt x="497" y="68" on="0"/>
        <pt x="475" y="15" on="0"/>
        <pt x="467" y="0" on="1"/>
        <pt x="459" y="-14" on="0"/>
        <pt x="437" y="-34" on="0"/>
        <pt x="417" y="-44" on="0"/>
        <pt x="382" y="-49" on="0"/>
        <pt x="363" y="-49" on="0"/>
        <pt x="321" y="-49" on="0"/>
        <pt x="313" y="-49" on="1"/>
        <pt x="260" y="-49" on="0"/>
        <pt x="237" y="-43" on="1"/>
        <pt x="222" y="-40" on="0"/>
        <pt x="189" y="-21" on="0"/>
        <pt x="159" y="1" on="0"/>
        <pt x="133" y="30" on="0"/>
        <pt x="113" y="58" on="0"/>
        <pt x="102" y="86" on="0"/>
        <pt x="102" y="98" on="1"/>
        <pt x="102" y="112" on="0"/>
        <pt x="95" y="124" on="1"/>
        <pt x="86" y="131" on="0"/>
        <pt x="76" y="170" on="1"/>
        <pt x="63" y="211" on="0"/>
        <pt x="48" y="230" on="1"/>
        <pt x="32" y="252" on="0"/>
        <pt x="34" y="273" on="0"/>
        <pt x="55" y="278" on="1"/>
        <pt x="87" y="287" on="0"/>
        <pt x="119" y="247" on="1"/>
        <pt x="136" y="229" on="0"/>
        <pt x="173" y="224" on="1"/>
        <pt x="210" y="219" on="0"/>
        <pt x="323" y="220" on="1"/>
        <pt x="480" y="221" on="1"/>
        <pt x="500" y="245" on="1"/>
        <pt x="520" y="266" on="0"/>
        <pt x="520" y="279" on="1"/>
        <pt x="520" y="292" on="0"/>
        <pt x="527" y="308" on="1"/>
        <pt x="537" y="326" on="0"/>
        <pt x="562" y="450" on="0"/>
        <pt x="558" y="461" on="1"/>
        <pt x="552" y="476" on="0"/>
        <pt x="567" y="502" on="1"/>
        <pt x="580" y="530" on="0"/>
        <pt x="580" y="531" on="1"/>
        <pt x="580" y="534" on="0"/>
        <pt x="546" y="557" on="1"/>
        <pt x="511" y="582" on="0"/>
        <pt x="495" y="607" on="1"/>
        <pt x="480" y="631" on="0"/>
        <pt x="473" y="631" on="1"/>
        <pt x="464" y="631" on="0"/>
        <pt x="420" y="592" on="1"/>
        <pt x="343" y="528" on="0"/>
        <pt x="310" y="567" on="1"/>
        <pt x="297" y="582" on="0"/>
        <pt x="268" y="597" on="1"/>
        <pt x="236" y="613" on="0"/>
        <pt x="224" y="635" on="1"/>
        <pt x="216" y="650" on="0"/>
        <pt x="221" y="670" on="0"/>
        <pt x="241" y="701" on="1"/>
      </contour>
      <contour>
        <pt x="388" y="51" on="1"/>
        <pt x="409" y="64" on="0"/>
        <pt x="437" y="121" on="1"/>
        <pt x="465" y="179" on="0"/>
        <pt x="459" y="183" on="1"/>
        <pt x="454" y="185" on="0"/>
        <pt x="430" y="173" on="1"/>
        <pt x="406" y="161" on="0"/>
        <pt x="381" y="166" on="1"/>
        <pt x="365" y="169" on="0"/>
        <pt x="309" y="171" on="1"/>
        <pt x="252" y="173" on="0"/>
        <pt x="203" y="173" on="1"/>
        <pt x="154" y="173" on="0"/>
        <pt x="154" y="169" on="1"/>
        <pt x="154" y="162" on="0"/>
        <pt x="207" y="36" on="0"/>
        <pt x="212" y="30" on="1"/>
        <pt x="224" y="17" on="0"/>
        <pt x="365" y="33" on="0"/>
      </contour>
      <contour>
        <pt x="425" y="698" on="0"/>
        <pt x="430" y="707" on="0"/>
        <pt x="419" y="719" on="1"/>
        <pt x="401" y="739" on="0"/>
        <pt x="343" y="727" on="0"/>
        <pt x="306" y="672" on="0"/>
        <pt x="323" y="650" on="0"/>
        <pt x="353" y="665" on="1"/>
        <pt x="369" y="675" on="0"/>
        <pt x="400" y="688" on="1"/>
      </contour>
    </TTGlyph>
    <TTGlyph name="G" xMin="30" yMin="-65" xMax="944" yMax="779">
      <contour>
        <pt x="899" y="145" on="1"/>
        <pt x="917" y="160" on="0"/>
        <pt x="944" y="154" on="0"/>
        <pt x="944" y="131" on="1"/>
        <pt x="944" y="125" on="0"/>
        <pt x="940" y="113" on="0"/>
        <pt x="931" y="102" on="0"/>
        <pt x="923" y="92" on="0"/>
        <pt x="909" y="82" on="0"/>
        <pt x="900" y="76" on="0"/>
        <pt x="886" y="66" on="0"/>
        <pt x="883" y="65" on="1"/>
        <pt x="806" y="11" on="0"/>
        <pt x="758" y="2" on="1"/>
        <pt x="733" y="-5" on="0"/>
        <pt x="615" y="8" on="0"/>
        <pt x="564" y="2" on="0"/>
        <pt x="553" y="-9" on="1"/>
        <pt x="534" y="-25" on="0"/>
        <pt x="481" y="-25" on="0"/>
        <pt x="457" y="-41" on="1"/>
        <pt x="435" y="-57" on="0"/>
        <pt x="366" y="-63" on="1"/>
        <pt x="318" y="-65" on="0"/>
        <pt x="280" y="-56" on="0"/>
        <pt x="231" y="-27" on="1"/>
        <pt x="215" y="-18" on="0"/>
        <pt x="150" y="6" on="0"/>
        <pt x="101" y="27" on="0"/>
        <pt x="52" y="58" on="0"/>
        <pt x="30" y="106" on="0"/>
        <pt x="36" y="137" on="1"/>
        <pt x="41" y="169" on="0"/>
        <pt x="66" y="206" on="1"/>
        <pt x="80" y="228" on="0"/>
        <pt x="108" y="248" on="0"/>
        <pt x="132" y="248" on="0"/>
        <pt x="160" y="241" on="0"/>
        <pt x="187" y="231" on="0"/>
        <pt x="220" y="231" on="0"/>
        <pt x="238" y="237" on="1"/>
        <pt x="262" y="247" on="0"/>
        <pt x="307" y="321" on="0"/>
        <pt x="314" y="350" on="1"/>
        <pt x="317" y="365" on="0"/>
        <pt x="318" y="388" on="0"/>
        <pt x="314" y="404" on="0"/>
        <pt x="306" y="417" on="0"/>
        <pt x="296" y="427" on="0"/>
        <pt x="284" y="440" on="0"/>
        <pt x="273" y="453" on="0"/>
        <pt x="261" y="473" on="0"/>
        <pt x="256" y="485" on="1"/>
        <pt x="252" y="498" on="0"/>
        <pt x="253" y="522" on="1"/>
        <pt x="254" y="554" on="0"/>
        <pt x="275" y="636" on="0"/>
        <pt x="314" y="720" on="0"/>
        <pt x="369" y="772" on="0"/>
        <pt x="439" y="779" on="0"/>
        <pt x="481" y="744" on="1"/>
        <pt x="506" y="723" on="0"/>
        <pt x="514" y="668" on="0"/>
        <pt x="501" y="601" on="1"/>
        <pt x="490" y="543" on="0"/>
        <pt x="512" y="525" on="0"/>
        <pt x="563" y="550" on="1"/>
        <pt x="616" y="575" on="0"/>
        <pt x="624" y="575" on="1"/>
        <pt x="642" y="575" on="0"/>
        <pt x="724" y="676" on="1"/>
        <pt x="768" y="730" on="0"/>
        <pt x="821" y="748" on="0"/>
        <pt x="847" y="719" on="1"/>
        <pt x="871" y="694" on="0"/>
        <pt x="865" y="580" on="0"/>
        <pt x="839" y="546" on="1"/>
        <pt x="816" y="515" on="0"/>
        <pt x="807" y="484" on="1"/>
        <pt x="802" y="458" on="0"/>
        <pt x="781" y="414" on="1"/>
        <pt x="761" y="370" on="0"/>
        <pt x="700" y="252" on="0"/>
        <pt x="692" y="236" on="1"/>
        <pt x="674" y="198" on="0"/>
        <pt x="644" y="154" on="1"/>
        <pt x="598" y="87" on="0"/>
        <pt x="635" y="75" on="1"/>
        <pt x="652" y="70" on="0"/>
        <pt x="668" y="60" on="1"/>
        <pt x="690" y="49" on="0"/>
        <pt x="728" y="54" on="1"/>
        <pt x="730" y="55" on="0"/>
        <pt x="732" y="55" on="1"/>
        <pt x="744" y="62" on="0"/>
        <pt x="792" y="79" on="0"/>
        <pt x="799" y="83" on="1"/>
        <pt x="862" y="116" on="0"/>
      </contour>
      <contour>
        <pt x="397" y="624" on="0"/>
        <pt x="364" y="584" on="0"/>
        <pt x="369" y="579" on="1"/>
        <pt x="375" y="572" on="0"/>
        <pt x="414" y="598" on="0"/>
        <pt x="414" y="609" on="1"/>
        <pt x="414" y="624" on="0"/>
        <pt x="407" y="624" on="1"/>
      </contour>
      <contour>
        <pt x="315" y="25" on="1"/>
        <pt x="330" y="28" on="0"/>
        <pt x="315" y="36" on="1"/>
        <pt x="312" y="38" on="0"/>
        <pt x="305" y="41" on="1"/>
        <pt x="282" y="50" on="0"/>
        <pt x="274" y="60" on="1"/>
        <pt x="268" y="71" on="0"/>
        <pt x="250" y="71" on="0"/>
        <pt x="245" y="61" on="1"/>
        <pt x="242" y="56" on="0"/>
        <pt x="268" y="37" on="0"/>
        <pt x="305" y="23" on="0"/>
      </contour>
      <contour>
        <pt x="536" y="142" on="0"/>
        <pt x="597" y="247" on="0"/>
        <pt x="651" y="360" on="0"/>
        <pt x="675" y="431" on="0"/>
        <pt x="701" y="471" on="1"/>
        <pt x="725" y="507" on="0"/>
        <pt x="719" y="517" on="1"/>
        <pt x="704" y="543" on="0"/>
        <pt x="667" y="503" on="1"/>
        <pt x="652" y="486" on="0"/>
        <pt x="594" y="466" on="1"/>
        <pt x="537" y="445" on="0"/>
        <pt x="531" y="442" on="1"/>
        <pt x="506" y="430" on="0"/>
        <pt x="485" y="430" on="1"/>
        <pt x="470" y="430" on="0"/>
        <pt x="395" y="350" on="0"/>
        <pt x="395" y="332" on="1"/>
        <pt x="395" y="323" on="0"/>
        <pt x="378" y="297" on="1"/>
        <pt x="298" y="177" on="0"/>
        <pt x="298" y="170" on="1"/>
        <pt x="298" y="156" on="0"/>
        <pt x="375" y="97" on="0"/>
        <pt x="407" y="86" on="1"/>
        <pt x="451" y="71" on="0"/>
        <pt x="491" y="83" on="0"/>
        <pt x="517" y="116" on="1"/>
      </contour>
    </TTGlyph>
    <TTGlyph name="H" xMin="29" yMin="-95" xMax="849" yMax="725">
      <contour>
        <pt x="382" y="679" on="1"/>
        <pt x="402" y="616" on="0"/>
        <pt x="391" y="547" on="1"/>
        <pt x="384" y="510" on="0"/>
        <pt x="369" y="473" on="1"/>
        <pt x="368" y="469" on="0"/>
        <pt x="349" y="432" on="0"/>
        <pt x="336" y="400" on="0"/>
        <pt x="324" y="362" on="0"/>
        <pt x="329" y="333" on="0"/>
        <pt x="340" y="327" on="1"/>
        <pt x="346" y="324" on="0"/>
        <pt x="356" y="324" on="1"/>
        <pt x="369" y="324" on="0"/>
        <pt x="423" y="271" on="0"/>
        <pt x="434" y="249" on="1"/>
        <pt x="446" y="228" on="0"/>
        <pt x="469" y="230" on="0"/>
        <pt x="475" y="254" on="1"/>
        <pt x="480" y="280" on="0"/>
        <pt x="493" y="290" on="1"/>
        <pt x="504" y="298" on="0"/>
        <pt x="510" y="327" on="1"/>
        <pt x="515" y="350" on="0"/>
        <pt x="555" y="435" on="1"/>
        <pt x="593" y="515" on="0"/>
        <pt x="593" y="525" on="1"/>
        <pt x="593" y="534" on="0"/>
        <pt x="619" y="584" on="1"/>
        <pt x="644" y="626" on="0"/>
        <pt x="647" y="644" on="1"/>
        <pt x="647" y="659" on="0"/>
        <pt x="661" y="687" on="1"/>
        <pt x="685" y="725" on="0"/>
        <pt x="738" y="704" on="1"/>
        <pt x="746" y="701" on="0"/>
        <pt x="750" y="682" on="0"/>
        <pt x="744" y="655" on="0"/>
        <pt x="732" y="624" on="0"/>
        <pt x="716" y="591" on="0"/>
        <pt x="703" y="565" on="0"/>
        <pt x="690" y="542" on="0"/>
        <pt x="689" y="540" on="1"/>
        <pt x="677" y="516" on="0"/>
        <pt x="674" y="503" on="1"/>
        <pt x="673" y="499" on="0"/>
        <pt x="668" y="476" on="0"/>
        <pt x="666" y="470" on="1"/>
        <pt x="664" y="463" on="0"/>
        <pt x="654" y="447" on="0"/>
        <pt x="642" y="429" on="0"/>
        <pt x="639" y="423" on="1"/>
        <pt x="629" y="404" on="0"/>
        <pt x="597" y="324" on="0"/>
        <pt x="588" y="307" on="1"/>
        <pt x="586" y="303" on="0"/>
        <pt x="570" y="272" on="0"/>
        <pt x="561" y="254" on="0"/>
        <pt x="553" y="227" on="0"/>
        <pt x="553" y="218" on="1"/>
        <pt x="555" y="200" on="0"/>
        <pt x="593" y="203" on="1"/>
        <pt x="601" y="203" on="0"/>
        <pt x="611" y="204" on="1"/>
        <pt x="663" y="210" on="0"/>
        <pt x="710" y="240" on="1"/>
        <pt x="758" y="271" on="0"/>
        <pt x="762" y="280" on="1"/>
        <pt x="768" y="290" on="0"/>
        <pt x="798" y="290" on="1"/>
        <pt x="823" y="290" on="0"/>
        <pt x="849" y="259" on="0"/>
        <pt x="841" y="236" on="1"/>
        <pt x="836" y="220" on="0"/>
        <pt x="773" y="174" on="0"/>
        <pt x="689" y="138" on="0"/>
        <pt x="658" y="135" on="1"/>
        <pt x="616" y="130" on="0"/>
        <pt x="604" y="121" on="1"/>
        <pt x="588" y="110" on="0"/>
        <pt x="514" y="128" on="1"/>
        <pt x="501" y="132" on="0"/>
        <pt x="473" y="77" on="0"/>
        <pt x="467" y="41" on="1"/>
        <pt x="459" y="9" on="0"/>
        <pt x="444" y="-1" on="0"/>
        <pt x="444" y="-24" on="1"/>
        <pt x="444" y="-38" on="0"/>
        <pt x="428" y="-71" on="0"/>
        <pt x="405" y="-95" on="0"/>
        <pt x="396" y="-95" on="1"/>
        <pt x="384" y="-95" on="0"/>
        <pt x="369" y="-74" on="1"/>
        <pt x="360" y="-59" on="0"/>
        <pt x="356" y="-23" on="0"/>
        <pt x="360" y="20" on="1"/>
        <pt x="365" y="94" on="0"/>
        <pt x="356" y="106" on="1"/>
        <pt x="354" y="111" on="0"/>
        <pt x="333" y="118" on="0"/>
        <pt x="317" y="120" on="1"/>
        <pt x="300" y="122" on="0"/>
        <pt x="289" y="123" on="1"/>
        <pt x="277" y="123" on="0"/>
        <pt x="258" y="124" on="1"/>
        <pt x="238" y="125" on="0"/>
        <pt x="236" y="125" on="1"/>
        <pt x="215" y="127" on="0"/>
        <pt x="199" y="115" on="0"/>
        <pt x="183" y="84" on="1"/>
        <pt x="159" y="40" on="0"/>
        <pt x="148" y="1" on="1"/>
        <pt x="132" y="-52" on="0"/>
        <pt x="98" y="-95" on="0"/>
        <pt x="73" y="-95" on="1"/>
        <pt x="46" y="-95" on="0"/>
        <pt x="29" y="-72" on="0"/>
        <pt x="36" y="-46" on="1"/>
        <pt x="44" y="-18" on="0"/>
        <pt x="53" y="11" on="0"/>
        <pt x="69" y="57" on="0"/>
        <pt x="78" y="75" on="1"/>
        <pt x="84" y="88" on="0"/>
        <pt x="108" y="128" on="0"/>
        <pt x="126" y="163" on="0"/>
        <pt x="130" y="180" on="1"/>
        <pt x="134" y="199" on="0"/>
        <pt x="134" y="233" on="1"/>
        <pt x="134" y="292" on="1"/>
        <pt x="175" y="324" on="1"/>
        <pt x="215" y="353" on="0"/>
        <pt x="240" y="403" on="1"/>
        <pt x="266" y="459" on="0"/>
        <pt x="279" y="484" on="1"/>
        <pt x="293" y="514" on="0"/>
        <pt x="308" y="636" on="0"/>
        <pt x="298" y="642" on="1"/>
        <pt x="290" y="647" on="0"/>
        <pt x="260" y="589" on="1"/>
        <pt x="257" y="583" on="0"/>
        <pt x="253" y="576" on="1"/>
        <pt x="232" y="534" on="0"/>
        <pt x="205" y="489" on="0"/>
        <pt x="180" y="462" on="0"/>
        <pt x="163" y="451" on="1"/>
        <pt x="143" y="438" on="0"/>
        <pt x="90" y="445" on="0"/>
        <pt x="76" y="461" on="1"/>
        <pt x="64" y="476" on="0"/>
        <pt x="70" y="582" on="0"/>
        <pt x="85" y="606" on="1"/>
        <pt x="107" y="641" on="0"/>
        <pt x="178" y="701" on="0"/>
        <pt x="209" y="711" on="1"/>
        <pt x="246" y="724" on="0"/>
        <pt x="336" y="725" on="0"/>
        <pt x="356" y="715" on="1"/>
        <pt x="374" y="706" on="0"/>
      </contour>
      <contour>
        <pt x="139" y="538" on="0"/>
        <pt x="169" y="558" on="0"/>
        <pt x="176" y="581" on="1"/>
        <pt x="190" y="616" on="0"/>
        <pt x="173" y="615" on="1"/>
        <pt x="160" y="612" on="0"/>
        <pt x="143" y="591" on="1"/>
        <pt x="118" y="559" on="0"/>
      </contour>
      <contour>
        <pt x="328" y="202" on="1"/>
        <pt x="338" y="205" on="0"/>
        <pt x="338" y="213" on="1"/>
        <pt x="334" y="223" on="0"/>
        <pt x="281" y="245" on="0"/>
        <pt x="274" y="239" on="1"/>
        <pt x="269" y="233" on="0"/>
        <pt x="284" y="218" on="1"/>
        <pt x="300" y="199" on="0"/>
      </contour>
    </TTGlyph>
    <TTGlyph name="I" xMin="32" yMin="-85" xMax="796" yMax="768">
      <contour>
        <pt x="385" y="650" on="0"/>
        <pt x="454" y="737" on="0"/>
        <pt x="481" y="751" on="1"/>
        <pt x="517" y="768" on="0"/>
        <pt x="566" y="764" on="0"/>
        <pt x="588" y="742" on="1"/>
        <pt x="638" y="690" on="0"/>
        <pt x="656" y="526" on="0"/>
        <pt x="620" y="454" on="1"/>
        <pt x="595" y="397" on="0"/>
        <pt x="568" y="356" on="1"/>
        <pt x="544" y="323" on="0"/>
        <pt x="521" y="276" on="0"/>
        <pt x="517" y="258" on="1"/>
        <pt x="513" y="240" on="0"/>
        <pt x="515" y="225" on="1"/>
        <pt x="521" y="196" on="0"/>
        <pt x="540" y="185" on="0"/>
        <pt x="636" y="202" on="1"/>
        <pt x="708" y="214" on="0"/>
        <pt x="738" y="214" on="0"/>
        <pt x="753" y="198" on="1"/>
        <pt x="796" y="155" on="0"/>
        <pt x="705" y="143" on="1"/>
        <pt x="661" y="139" on="0"/>
        <pt x="610" y="124" on="1"/>
        <pt x="561" y="108" on="0"/>
        <pt x="533" y="107" on="1"/>
        <pt x="532" y="107" on="1"/>
        <pt x="510" y="106" on="0"/>
        <pt x="506" y="85" on="0"/>
        <pt x="514" y="29" on="1"/>
        <pt x="514" y="23" on="0"/>
        <pt x="515" y="19" on="1"/>
        <pt x="518" y="-9" on="0"/>
        <pt x="514" y="-35" on="0"/>
        <pt x="504" y="-46" on="1"/>
        <pt x="474" y="-79" on="0"/>
        <pt x="433" y="-50" on="1"/>
        <pt x="411" y="-35" on="0"/>
        <pt x="416" y="-17" on="1"/>
        <pt x="419" y="-8" on="0"/>
        <pt x="418" y="4" on="0"/>
        <pt x="414" y="7" on="1"/>
        <pt x="405" y="12" on="0"/>
        <pt x="317" y="-22" on="0"/>
        <pt x="294" y="-41" on="1"/>
        <pt x="265" y="-65" on="0"/>
        <pt x="195" y="-85" on="0"/>
        <pt x="176" y="-77" on="1"/>
        <pt x="173" y="-74" on="0"/>
        <pt x="159" y="-69" on="1"/>
        <pt x="145" y="-63" on="0"/>
        <pt x="135" y="-59" on="1"/>
        <pt x="124" y="-54" on="0"/>
        <pt x="110" y="-47" on="1"/>
        <pt x="97" y="-40" on="0"/>
        <pt x="88" y="-34" on="1"/>
        <pt x="78" y="-28" on="0"/>
        <pt x="74" y="-22" on="1"/>
        <pt x="64" y="-11" on="0"/>
        <pt x="54" y="54" on="1"/>
        <pt x="53" y="60" on="0"/>
        <pt x="42" y="110" on="0"/>
        <pt x="36" y="151" on="0"/>
        <pt x="32" y="200" on="0"/>
        <pt x="42" y="232" on="0"/>
        <pt x="55" y="236" on="1"/>
        <pt x="49" y="247" on="0"/>
        <pt x="47" y="264" on="0"/>
        <pt x="61" y="276" on="0"/>
        <pt x="75" y="284" on="0"/>
        <pt x="98" y="289" on="0"/>
        <pt x="115" y="291" on="0"/>
        <pt x="124" y="292" on="1"/>
        <pt x="154" y="294" on="0"/>
        <pt x="178" y="287" on="0"/>
        <pt x="203" y="270" on="1"/>
        <pt x="205" y="268" on="0"/>
        <pt x="230" y="250" on="0"/>
        <pt x="249" y="237" on="0"/>
        <pt x="281" y="217" on="0"/>
        <pt x="306" y="205" on="0"/>
        <pt x="333" y="197" on="0"/>
        <pt x="354" y="200" on="0"/>
        <pt x="360" y="208" on="1"/>
        <pt x="370" y="221" on="0"/>
        <pt x="363" y="245" on="1"/>
        <pt x="361" y="248" on="0"/>
        <pt x="357" y="259" on="0"/>
        <pt x="354" y="267" on="0"/>
        <pt x="351" y="277" on="0"/>
        <pt x="350" y="281" on="1"/>
        <pt x="349" y="282" on="0"/>
        <pt x="350" y="315" on="0"/>
        <pt x="350" y="316" on="1"/>
        <pt x="350" y="326" on="0"/>
        <pt x="349" y="394" on="0"/>
        <pt x="349" y="419" on="0"/>
        <pt x="351" y="476" on="0"/>
        <pt x="356" y="511" on="0"/>
        <pt x="366" y="558" on="0"/>
        <pt x="374" y="580" on="1"/>
        <pt x="382" y="603" on="0"/>
        <pt x="385" y="628" on="1"/>
      </contour>
      <contour>
        <pt x="276" y="126" on="1"/>
        <pt x="264" y="151" on="0"/>
        <pt x="247" y="157" on="1"/>
        <pt x="243" y="158" on="0"/>
        <pt x="232" y="165" on="1"/>
        <pt x="221" y="171" on="0"/>
        <pt x="207" y="179" on="1"/>
        <pt x="194" y="185" on="0"/>
        <pt x="179" y="192" on="1"/>
        <pt x="165" y="198" on="0"/>
        <pt x="143" y="196" on="0"/>
        <pt x="137" y="188" on="1"/>
        <pt x="130" y="177" on="0"/>
        <pt x="155" y="53" on="0"/>
        <pt x="168" y="36" on="1"/>
        <pt x="187" y="11" on="0"/>
        <pt x="223" y="20" on="0"/>
        <pt x="253" y="56" on="1"/>
        <pt x="279" y="88" on="0"/>
        <pt x="286" y="108" on="0"/>
      </contour>
      <contour>
        <pt x="553" y="588" on="1"/>
        <pt x="547" y="645" on="0"/>
        <pt x="536" y="658" on="1"/>
        <pt x="525" y="671" on="0"/>
        <pt x="511" y="671" on="0"/>
        <pt x="489" y="632" on="0"/>
        <pt x="469" y="574" on="0"/>
        <pt x="466" y="550" on="1"/>
        <pt x="458" y="502" on="0"/>
        <pt x="433" y="466" on="0"/>
        <pt x="432" y="400" on="0"/>
        <pt x="443" y="378" on="1"/>
        <pt x="447" y="369" on="0"/>
        <pt x="451" y="364" on="0"/>
        <pt x="459" y="365" on="0"/>
        <pt x="466" y="372" on="0"/>
        <pt x="476" y="382" on="1"/>
        <pt x="499" y="403" on="0"/>
        <pt x="499" y="437" on="0"/>
        <pt x="509" y="442" on="1"/>
        <pt x="517" y="448" on="0"/>
        <pt x="539" y="489" on="1"/>
        <pt x="551" y="515" on="0"/>
        <pt x="557" y="551" on="0"/>
      </contour>
    </TTGlyph>
    <TTGlyph name="J" xMin="-136" yMin="-283" xMax="733" yMax="806">
      <contour>
        <pt x="690" y="131" on="1"/>
        <pt x="707" y="145" on="0"/>
        <pt x="733" y="140" on="0"/>
        <pt x="733" y="118" on="1"/>
        <pt x="733" y="111" on="0"/>
        <pt x="726" y="97" on="0"/>
        <pt x="719" y="87" on="0"/>
        <pt x="703" y="74" on="0"/>
        <pt x="694" y="67" on="0"/>
        <pt x="676" y="55" on="0"/>
        <pt x="674" y="54" on="1"/>
        <pt x="656" y="41" on="0"/>
        <pt x="636" y="33" on="1"/>
        <pt x="599" y="16" on="0"/>
        <pt x="371" y="-42" on="0"/>
        <pt x="331" y="-23" on="1"/>
        <pt x="321" y="-18" on="0"/>
        <pt x="301" y="-18" on="0"/>
        <pt x="286" y="-24" on="0"/>
        <pt x="270" y="-38" on="0"/>
        <pt x="258" y="-53" on="0"/>
        <pt x="245" y="-75" on="0"/>
        <pt x="235" y="-94" on="0"/>
        <pt x="222" y="-117" on="0"/>
        <pt x="217" y="-124" on="1"/>
        <pt x="170" y="-198" on="0"/>
        <pt x="152" y="-210" on="1"/>
        <pt x="126" y="-228" on="0"/>
        <pt x="95" y="-254" on="1"/>
        <pt x="71" y="-274" on="0"/>
        <pt x="53" y="-277" on="1"/>
        <pt x="35" y="-280" on="0"/>
        <pt x="-37" y="-281" on="1"/>
        <pt x="-136" y="-283" on="1"/>
        <pt x="-136" y="-217" on="1"/>
        <pt x="-136" y="-172" on="0"/>
        <pt x="-127" y="-140" on="0"/>
        <pt x="-103" y="-111" on="1"/>
        <pt x="-73" y="-73" on="0"/>
        <pt x="5" y="-16" on="1"/>
        <pt x="79" y="37" on="0"/>
        <pt x="86" y="51" on="1"/>
        <pt x="91" y="64" on="0"/>
        <pt x="144" y="80" on="1"/>
        <pt x="204" y="100" on="0"/>
        <pt x="214" y="113" on="1"/>
        <pt x="224" y="120" on="0"/>
        <pt x="207" y="181" on="0"/>
        <pt x="183" y="235" on="0"/>
        <pt x="155" y="295" on="0"/>
        <pt x="153" y="303" on="1"/>
        <pt x="108" y="451" on="0"/>
        <pt x="136" y="588" on="1"/>
        <pt x="158" y="701" on="0"/>
        <pt x="222" y="759" on="1"/>
        <pt x="222" y="759" on="0"/>
        <pt x="223" y="760" on="0"/>
        <pt x="223" y="760" on="1"/>
        <pt x="273" y="806" on="0"/>
        <pt x="409" y="806" on="0"/>
        <pt x="456" y="756" on="1"/>
        <pt x="472" y="737" on="0"/>
        <pt x="472" y="650" on="1"/>
        <pt x="472" y="591" on="0"/>
        <pt x="458" y="493" on="0"/>
        <pt x="435" y="395" on="1"/>
        <pt x="411" y="285" on="0"/>
        <pt x="402" y="236" on="1"/>
        <pt x="396" y="195" on="1"/>
        <pt x="438" y="202" on="1"/>
        <pt x="464" y="205" on="0"/>
        <pt x="488" y="199" on="0"/>
        <pt x="507" y="183" on="1"/>
        <pt x="533" y="161" on="1"/>
        <pt x="513" y="141" on="1"/>
        <pt x="493" y="120" on="0"/>
        <pt x="448" y="112" on="1"/>
        <pt x="435" y="109" on="0"/>
        <pt x="397" y="93" on="0"/>
        <pt x="359" y="67" on="0"/>
        <pt x="354" y="37" on="0"/>
        <pt x="373" y="21" on="1"/>
        <pt x="383" y="14" on="0"/>
        <pt x="410" y="9" on="0"/>
        <pt x="446" y="17" on="0"/>
        <pt x="473" y="25" on="0"/>
        <pt x="518" y="41" on="0"/>
        <pt x="528" y="44" on="1"/>
        <pt x="537" y="50" on="0"/>
        <pt x="562" y="59" on="0"/>
        <pt x="588" y="68" on="0"/>
        <pt x="594" y="71" on="1"/>
        <pt x="655" y="103" on="0"/>
      </contour>
      <contour>
        <pt x="127" y="-109" on="1"/>
        <pt x="194" y="-15" on="0"/>
        <pt x="194" y="1" on="1"/>
        <pt x="194" y="34" on="0"/>
        <pt x="113" y="-36" on="1"/>
        <pt x="107" y="-43" on="1"/>
        <pt x="62" y="-82" on="0"/>
        <pt x="50" y="-82" on="1"/>
        <pt x="32" y="-82" on="0"/>
        <pt x="-56" y="-177" on="0"/>
        <pt x="-60" y="-198" on="1"/>
        <pt x="-61" y="-218" on="0"/>
        <pt x="-53" y="-226" on="0"/>
        <pt x="-34" y="-223" on="1"/>
        <pt x="-3" y="-221" on="0"/>
        <pt x="96" y="-149" on="0"/>
      </contour>
      <contour>
        <pt x="334" y="298" on="1"/>
        <pt x="412" y="673" on="0"/>
        <pt x="380" y="713" on="1"/>
        <pt x="368" y="725" on="0"/>
        <pt x="339" y="725" on="1"/>
        <pt x="330" y="725" on="0"/>
        <pt x="315" y="723" on="0"/>
        <pt x="301" y="711" on="0"/>
        <pt x="293" y="702" on="1"/>
        <pt x="285" y="693" on="0"/>
        <pt x="273" y="679" on="1"/>
        <pt x="241" y="640" on="0"/>
        <pt x="214" y="550" on="0"/>
        <pt x="207" y="469" on="1"/>
        <pt x="203" y="419" on="0"/>
        <pt x="207" y="385" on="0"/>
        <pt x="220" y="368" on="1"/>
        <pt x="240" y="339" on="0"/>
        <pt x="249" y="287" on="1"/>
        <pt x="260" y="234" on="0"/>
        <pt x="269" y="229" on="1"/>
        <pt x="277" y="223" on="0"/>
        <pt x="277" y="204" on="1"/>
        <pt x="277" y="170" on="0"/>
        <pt x="295" y="196" on="1"/>
        <pt x="319" y="230" on="0"/>
      </contour>
    </TTGlyph>
    <TTGlyph name="K" xMin="33" yMin="-75" xMax="732" yMax="800">
      <contour>
        <pt x="690" y="96" on="1"/>
        <pt x="706" y="109" on="0"/>
        <pt x="731" y="104" on="0"/>
        <pt x="732" y="83" on="1"/>
        <pt x="732" y="76" on="0"/>
        <pt x="726" y="62" on="0"/>
        <pt x="718" y="53" on="0"/>
        <pt x="703" y="40" on="0"/>
        <pt x="694" y="34" on="0"/>
        <pt x="677" y="22" on="0"/>
        <pt x="675" y="21" on="1"/>
        <pt x="649" y="3" on="0"/>
        <pt x="620" y="-8" on="1"/>
        <pt x="603" y="-19" on="0"/>
        <pt x="570" y="-21" on="1"/>
        <pt x="558" y="-22" on="0"/>
        <pt x="549" y="-21" on="1"/>
        <pt x="543" y="-21" on="0"/>
        <pt x="541" y="-21" on="1"/>
        <pt x="487" y="-20" on="0"/>
        <pt x="432" y="11" on="0"/>
        <pt x="364" y="76" on="1"/>
        <pt x="276" y="162" on="0"/>
        <pt x="265" y="157" on="1"/>
        <pt x="254" y="153" on="0"/>
        <pt x="207" y="81" on="0"/>
        <pt x="207" y="69" on="1"/>
        <pt x="207" y="57" on="0"/>
        <pt x="186" y="24" on="1"/>
        <pt x="165" y="-8" on="0"/>
        <pt x="158" y="-31" on="1"/>
        <pt x="152" y="-57" on="0"/>
        <pt x="115" y="-75" on="0"/>
        <pt x="81" y="-44" on="0"/>
        <pt x="84" y="-18" on="0"/>
        <pt x="108" y="33" on="1"/>
        <pt x="130" y="79" on="0"/>
        <pt x="129" y="107" on="0"/>
        <pt x="105" y="107" on="1"/>
        <pt x="85" y="107" on="0"/>
        <pt x="60" y="129" on="1"/>
        <pt x="42" y="142" on="0"/>
        <pt x="33" y="163" on="0"/>
        <pt x="33" y="185" on="1"/>
        <pt x="35" y="272" on="0"/>
        <pt x="53" y="304" on="1"/>
        <pt x="61" y="318" on="0"/>
        <pt x="83" y="323" on="0"/>
        <pt x="129" y="321" on="1"/>
        <pt x="195" y="316" on="0"/>
        <pt x="208" y="309" on="1"/>
        <pt x="243" y="296" on="0"/>
        <pt x="313" y="408" on="0"/>
        <pt x="313" y="474" on="1"/>
        <pt x="313" y="526" on="0"/>
        <pt x="289" y="533" on="0"/>
        <pt x="261" y="490" on="1"/>
        <pt x="239" y="456" on="0"/>
        <pt x="212" y="448" on="1"/>
        <pt x="197" y="444" on="0"/>
        <pt x="157" y="451" on="0"/>
        <pt x="124" y="472" on="0"/>
        <pt x="117" y="485" on="1"/>
        <pt x="108" y="501" on="0"/>
        <pt x="113" y="578" on="0"/>
        <pt x="124" y="605" on="1"/>
        <pt x="135" y="631" on="0"/>
        <pt x="135" y="649" on="0"/>
        <pt x="174" y="693" on="1"/>
        <pt x="209" y="735" on="0"/>
        <pt x="281" y="784" on="0"/>
        <pt x="329" y="794" on="1"/>
        <pt x="357" y="800" on="0"/>
        <pt x="373" y="795" on="1"/>
        <pt x="401" y="787" on="0"/>
        <pt x="415" y="755" on="1"/>
        <pt x="444" y="688" on="0"/>
        <pt x="429" y="566" on="1"/>
        <pt x="422" y="508" on="0"/>
        <pt x="413" y="499" on="1"/>
        <pt x="405" y="492" on="0"/>
        <pt x="405" y="457" on="1"/>
        <pt x="405" y="428" on="0"/>
        <pt x="364" y="343" on="0"/>
        <pt x="336" y="313" on="1"/>
        <pt x="309" y="285" on="0"/>
        <pt x="322" y="272" on="1"/>
        <pt x="326" y="270" on="0"/>
        <pt x="339" y="270" on="0"/>
        <pt x="388" y="312" on="1"/>
        <pt x="438" y="356" on="0"/>
        <pt x="495" y="413" on="1"/>
        <pt x="546" y="464" on="0"/>
        <pt x="608" y="550" on="0"/>
        <pt x="608" y="570" on="1"/>
        <pt x="610" y="590" on="0"/>
        <pt x="617" y="601" on="1"/>
        <pt x="623" y="611" on="0"/>
        <pt x="664" y="611" on="0"/>
        <pt x="678" y="601" on="1"/>
        <pt x="699" y="586" on="0"/>
        <pt x="659" y="488" on="0"/>
        <pt x="609" y="430" on="1"/>
        <pt x="564" y="377" on="0"/>
        <pt x="404" y="229" on="0"/>
        <pt x="385" y="221" on="1"/>
        <pt x="364" y="214" on="0"/>
        <pt x="377" y="166" on="0"/>
        <pt x="409" y="134" on="1"/>
        <pt x="450" y="95" on="0"/>
        <pt x="450" y="84" on="1"/>
        <pt x="450" y="74" on="0"/>
        <pt x="468" y="57" on="1"/>
        <pt x="473" y="53" on="0"/>
        <pt x="485" y="47" on="0"/>
        <pt x="497" y="43" on="0"/>
        <pt x="515" y="42" on="0"/>
        <pt x="528" y="41" on="0"/>
        <pt x="548" y="43" on="0"/>
        <pt x="560" y="44" on="0"/>
        <pt x="581" y="48" on="0"/>
        <pt x="590" y="49" on="0"/>
        <pt x="610" y="53" on="0"/>
        <pt x="611" y="53" on="1"/>
        <pt x="643" y="59" on="0"/>
      </contour>
      <contour>
        <pt x="245" y="581" on="1"/>
        <pt x="295" y="628" on="0"/>
        <pt x="268" y="655" on="1"/>
        <pt x="257" y="666" on="0"/>
        <pt x="227" y="665" on="0"/>
        <pt x="218" y="655" on="1"/>
        <pt x="204" y="637" on="0"/>
        <pt x="180" y="571" on="0"/>
        <pt x="184" y="561" on="1"/>
        <pt x="195" y="531" on="0"/>
      </contour>
      <contour>
        <pt x="163" y="200" on="0"/>
        <pt x="188" y="221" on="0"/>
        <pt x="186" y="227" on="1"/>
        <pt x="183" y="239" on="0"/>
        <pt x="138" y="241" on="0"/>
        <pt x="128" y="231" on="1"/>
        <pt x="119" y="222" on="0"/>
        <pt x="116" y="198" on="0"/>
        <pt x="126" y="193" on="1"/>
        <pt x="131" y="189" on="0"/>
      </contour>
    </TTGlyph>
    <TTGlyph name="L" xMin="33" yMin="-17" xMax="802" yMax="793">
      <contour>
        <pt x="752" y="151" on="1"/>
        <pt x="753" y="151" on="0"/>
        <pt x="755" y="153" on="0"/>
        <pt x="755" y="153" on="1"/>
        <pt x="774" y="169" on="0"/>
        <pt x="786" y="163" on="1"/>
        <pt x="794" y="159" on="0"/>
        <pt x="796" y="147" on="1"/>
        <pt x="802" y="117" on="0"/>
        <pt x="756" y="83" on="1"/>
        <pt x="690" y="35" on="0"/>
        <pt x="621" y="-8" on="1"/>
        <pt x="610" y="-14" on="0"/>
        <pt x="605" y="-16" on="1"/>
        <pt x="597" y="-17" on="0"/>
        <pt x="582" y="-13" on="1"/>
        <pt x="537" y="-1" on="0"/>
        <pt x="439" y="29" on="1"/>
        <pt x="397" y="39" on="0"/>
        <pt x="373" y="44" on="1"/>
        <pt x="331" y="52" on="0"/>
        <pt x="317" y="60" on="1"/>
        <pt x="304" y="68" on="0"/>
        <pt x="267" y="45" on="1"/>
        <pt x="224" y="19" on="0"/>
        <pt x="147" y="-1" on="0"/>
        <pt x="69" y="28" on="0"/>
        <pt x="42" y="71" on="1"/>
        <pt x="39" y="78" on="0"/>
        <pt x="34" y="91" on="0"/>
        <pt x="33" y="106" on="0"/>
        <pt x="33" y="117" on="0"/>
        <pt x="36" y="136" on="0"/>
        <pt x="37" y="144" on="0"/>
        <pt x="43" y="166" on="0"/>
        <pt x="43" y="168" on="1"/>
        <pt x="49" y="195" on="0"/>
        <pt x="80" y="242" on="0"/>
        <pt x="100" y="249" on="1"/>
        <pt x="126" y="258" on="0"/>
        <pt x="213" y="250" on="0"/>
        <pt x="229" y="236" on="1"/>
        <pt x="274" y="202" on="0"/>
        <pt x="325" y="220" on="0"/>
        <pt x="354" y="281" on="1"/>
        <pt x="370" y="313" on="0"/>
        <pt x="397" y="369" on="1"/>
        <pt x="451" y="479" on="0"/>
        <pt x="334" y="468" on="1"/>
        <pt x="293" y="465" on="0"/>
        <pt x="264" y="481" on="1"/>
        <pt x="212" y="509" on="0"/>
        <pt x="178" y="519" on="1"/>
        <pt x="156" y="525" on="0"/>
        <pt x="137" y="554" on="0"/>
        <pt x="146" y="566" on="1"/>
        <pt x="155" y="576" on="0"/>
        <pt x="174" y="568" on="1"/>
        <pt x="214" y="550" on="0"/>
        <pt x="240" y="542" on="1"/>
        <pt x="267" y="534" on="0"/>
        <pt x="292" y="531" on="1"/>
        <pt x="317" y="529" on="0"/>
        <pt x="353" y="530" on="1"/>
        <pt x="429" y="530" on="0"/>
        <pt x="448" y="542" on="1"/>
        <pt x="456" y="549" on="0"/>
        <pt x="479" y="587" on="0"/>
        <pt x="496" y="636" on="0"/>
        <pt x="500" y="657" on="1"/>
        <pt x="502" y="678" on="0"/>
        <pt x="556" y="752" on="0"/>
        <pt x="584" y="770" on="1"/>
        <pt x="617" y="793" on="0"/>
        <pt x="673" y="760" on="1"/>
        <pt x="693" y="748" on="0"/>
        <pt x="701" y="729" on="0"/>
        <pt x="700" y="695" on="1"/>
        <pt x="699" y="651" on="0"/>
        <pt x="677" y="586" on="0"/>
        <pt x="629" y="538" on="0"/>
        <pt x="591" y="519" on="1"/>
        <pt x="555" y="501" on="0"/>
        <pt x="521" y="451" on="0"/>
        <pt x="489" y="366" on="1"/>
        <pt x="434" y="224" on="0"/>
        <pt x="400" y="168" on="1"/>
        <pt x="381" y="136" on="0"/>
        <pt x="401" y="95" on="0"/>
        <pt x="440" y="92" on="1"/>
        <pt x="491" y="88" on="0"/>
        <pt x="552" y="68" on="1"/>
        <pt x="590" y="55" on="0"/>
        <pt x="636" y="72" on="1"/>
        <pt x="678" y="88" on="0"/>
        <pt x="746" y="146" on="1"/>
        <pt x="750" y="149" on="0"/>
      </contour>
      <contour>
        <pt x="574" y="666" on="1"/>
        <pt x="542" y="613" on="0"/>
        <pt x="573" y="612" on="1"/>
        <pt x="583" y="612" on="0"/>
        <pt x="615" y="642" on="0"/>
        <pt x="634" y="678" on="0"/>
        <pt x="630" y="686" on="1"/>
        <pt x="612" y="721" on="0"/>
      </contour>
      <contour>
        <pt x="206" y="113" on="1"/>
        <pt x="239" y="131" on="0"/>
        <pt x="238" y="156" on="0"/>
        <pt x="203" y="169" on="1"/>
        <pt x="171" y="182" on="0"/>
        <pt x="158" y="181" on="0"/>
        <pt x="139" y="166" on="1"/>
        <pt x="122" y="151" on="0"/>
        <pt x="124" y="126" on="0"/>
        <pt x="146" y="110" on="1"/>
        <pt x="163" y="97" on="0"/>
        <pt x="177" y="98" on="0"/>
      </contour>
    </TTGlyph>
    <TTGlyph name="M" xMin="33" yMin="18" xMax="970" yMax="804">
      <contour>
        <pt x="167" y="756" on="1"/>
        <pt x="217" y="785" on="0"/>
        <pt x="223" y="789" on="1"/>
        <pt x="238" y="804" on="0"/>
        <pt x="254" y="788" on="1"/>
        <pt x="265" y="777" on="0"/>
        <pt x="285" y="788" on="1"/>
        <pt x="304" y="797" on="0"/>
        <pt x="333" y="784" on="1"/>
        <pt x="351" y="774" on="0"/>
        <pt x="364" y="752" on="0"/>
        <pt x="368" y="720" on="1"/>
        <pt x="375" y="677" on="0"/>
        <pt x="396" y="660" on="0"/>
        <pt x="418" y="680" on="1"/>
        <pt x="437" y="701" on="0"/>
        <pt x="464" y="701" on="0"/>
        <pt x="487" y="716" on="1"/>
        <pt x="526" y="742" on="0"/>
        <pt x="599" y="689" on="0"/>
        <pt x="599" y="635" on="1"/>
        <pt x="599" y="606" on="0"/>
        <pt x="617" y="604" on="0"/>
        <pt x="645" y="626" on="1"/>
        <pt x="717" y="685" on="0"/>
        <pt x="796" y="706" on="0"/>
        <pt x="833" y="674" on="1"/>
        <pt x="864" y="648" on="1"/>
        <pt x="858" y="575" on="1"/>
        <pt x="850" y="500" on="0"/>
        <pt x="826" y="453" on="1"/>
        <pt x="803" y="403" on="0"/>
        <pt x="803" y="386" on="0"/>
        <pt x="790" y="359" on="1"/>
        <pt x="765" y="311" on="0"/>
        <pt x="776" y="129" on="0"/>
        <pt x="805" y="119" on="1"/>
        <pt x="825" y="115" on="0"/>
        <pt x="858" y="134" on="1"/>
        <pt x="890" y="155" on="0"/>
        <pt x="915" y="155" on="1"/>
        <pt x="936" y="155" on="0"/>
        <pt x="970" y="118" on="0"/>
        <pt x="963" y="102" on="1"/>
        <pt x="956" y="86" on="0"/>
        <pt x="877" y="47" on="0"/>
        <pt x="839" y="41" on="1"/>
        <pt x="812" y="39" on="0"/>
        <pt x="785" y="44" on="0"/>
        <pt x="765" y="58" on="1"/>
        <pt x="724" y="89" on="0"/>
        <pt x="696" y="162" on="0"/>
        <pt x="696" y="239" on="1"/>
        <pt x="696" y="334" on="0"/>
        <pt x="704" y="364" on="1"/>
        <pt x="721" y="416" on="0"/>
        <pt x="747" y="532" on="0"/>
        <pt x="751" y="566" on="1"/>
        <pt x="754" y="600" on="0"/>
        <pt x="747" y="604" on="1"/>
        <pt x="720" y="604" on="0"/>
        <pt x="530" y="367" on="0"/>
        <pt x="519" y="317" on="1"/>
        <pt x="513" y="291" on="0"/>
        <pt x="447" y="139" on="0"/>
        <pt x="414" y="76" on="1"/>
        <pt x="397" y="46" on="0"/>
        <pt x="351" y="33" on="0"/>
        <pt x="324" y="75" on="0"/>
        <pt x="332" y="109" on="1"/>
        <pt x="336" y="137" on="0"/>
        <pt x="355" y="176" on="1"/>
        <pt x="375" y="212" on="0"/>
        <pt x="375" y="251" on="0"/>
        <pt x="394" y="276" on="1"/>
        <pt x="415" y="302" on="0"/>
        <pt x="419" y="349" on="0"/>
        <pt x="434" y="367" on="1"/>
        <pt x="455" y="389" on="0"/>
        <pt x="523" y="600" on="0"/>
        <pt x="515" y="615" on="1"/>
        <pt x="511" y="622" on="0"/>
        <pt x="433" y="583" on="0"/>
        <pt x="433" y="565" on="0"/>
        <pt x="378" y="474" on="1"/>
        <pt x="322" y="389" on="0"/>
        <pt x="300" y="324" on="1"/>
        <pt x="277" y="263" on="0"/>
        <pt x="253" y="228" on="1"/>
        <pt x="228" y="190" on="0"/>
        <pt x="228" y="180" on="1"/>
        <pt x="227" y="165" on="0"/>
        <pt x="155" y="30" on="0"/>
        <pt x="144" y="25" on="1"/>
        <pt x="130" y="18" on="0"/>
        <pt x="120" y="25" on="1"/>
        <pt x="68" y="59" on="0"/>
        <pt x="107" y="129" on="1"/>
        <pt x="130" y="170" on="0"/>
        <pt x="141" y="191" on="1"/>
        <pt x="164" y="231" on="0"/>
        <pt x="174" y="253" on="1"/>
        <pt x="195" y="297" on="0"/>
        <pt x="244" y="475" on="0"/>
        <pt x="261" y="515" on="1"/>
        <pt x="285" y="569" on="0"/>
        <pt x="293" y="611" on="0"/>
        <pt x="289" y="649" on="1"/>
        <pt x="282" y="706" on="1"/>
        <pt x="247" y="703" on="1"/>
        <pt x="214" y="699" on="0"/>
        <pt x="185" y="673" on="0"/>
        <pt x="198" y="658" on="1"/>
        <pt x="224" y="627" on="0"/>
        <pt x="162" y="562" on="1"/>
        <pt x="94" y="491" on="0"/>
        <pt x="54" y="515" on="1"/>
        <pt x="33" y="526" on="0"/>
        <pt x="33" y="609" on="0"/>
        <pt x="52" y="655" on="1"/>
        <pt x="67" y="688" on="0"/>
        <pt x="106" y="723" on="0"/>
      </contour>
    </TTGlyph>
    <TTGlyph name="N" xMin="33" yMin="-9" xMax="998" yMax="788">
      <contour>
        <pt x="950" y="168" on="1"/>
        <pt x="969" y="184" on="0"/>
        <pt x="998" y="178" on="0"/>
        <pt x="998" y="153" on="1"/>
        <pt x="998" y="128" on="0"/>
        <pt x="943" y="75" on="0"/>
        <pt x="863" y="37" on="0"/>
        <pt x="790" y="11" on="0"/>
        <pt x="766" y="7" on="1"/>
        <pt x="686" y="-9" on="0"/>
        <pt x="535" y="26" on="0"/>
        <pt x="497" y="87" on="1"/>
        <pt x="462" y="143" on="0"/>
        <pt x="476" y="280" on="0"/>
        <pt x="529" y="395" on="1"/>
        <pt x="558" y="459" on="0"/>
        <pt x="565" y="487" on="1"/>
        <pt x="571" y="510" on="0"/>
        <pt x="597" y="558" on="1"/>
        <pt x="634" y="624" on="0"/>
        <pt x="605" y="623" on="1"/>
        <pt x="584" y="621" on="0"/>
        <pt x="543" y="585" on="1"/>
        <pt x="509" y="555" on="0"/>
        <pt x="475" y="528" on="1"/>
        <pt x="451" y="512" on="0"/>
        <pt x="320" y="331" on="0"/>
        <pt x="304" y="295" on="1"/>
        <pt x="289" y="258" on="0"/>
        <pt x="260" y="217" on="1"/>
        <pt x="212" y="145" on="0"/>
        <pt x="163" y="55" on="1"/>
        <pt x="138" y="6" on="0"/>
        <pt x="129" y="6" on="1"/>
        <pt x="123" y="6" on="0"/>
        <pt x="100" y="0" on="1"/>
        <pt x="78" y="-6" on="0"/>
        <pt x="55" y="26" on="1"/>
        <pt x="33" y="58" on="1"/>
        <pt x="62" y="102" on="1"/>
        <pt x="81" y="130" on="0"/>
        <pt x="160" y="273" on="0"/>
        <pt x="179" y="299" on="1"/>
        <pt x="193" y="321" on="0"/>
        <pt x="214" y="360" on="1"/>
        <pt x="235" y="399" on="0"/>
        <pt x="253" y="439" on="1"/>
        <pt x="270" y="478" on="0"/>
        <pt x="276" y="499" on="1"/>
        <pt x="284" y="525" on="0"/>
        <pt x="306" y="566" on="1"/>
        <pt x="322" y="595" on="0"/>
        <pt x="330" y="669" on="0"/>
        <pt x="319" y="680" on="1"/>
        <pt x="316" y="684" on="0"/>
        <pt x="272" y="668" on="0"/>
        <pt x="247" y="655" on="1"/>
        <pt x="222" y="642" on="0"/>
        <pt x="197" y="627" on="1"/>
        <pt x="173" y="613" on="0"/>
        <pt x="164" y="602" on="1"/>
        <pt x="145" y="582" on="0"/>
        <pt x="112" y="583" on="0"/>
        <pt x="90" y="608" on="1"/>
        <pt x="66" y="634" on="0"/>
        <pt x="66" y="637" on="1"/>
        <pt x="66" y="649" on="0"/>
        <pt x="265" y="763" on="0"/>
        <pt x="313" y="780" on="1"/>
        <pt x="336" y="788" on="0"/>
        <pt x="406" y="782" on="0"/>
        <pt x="424" y="770" on="1"/>
        <pt x="434" y="764" on="0"/>
        <pt x="443" y="748" on="0"/>
        <pt x="444" y="734" on="1"/>
        <pt x="446" y="720" on="0"/>
        <pt x="446" y="693" on="1"/>
        <pt x="446" y="633" on="1"/>
        <pt x="507" y="680" on="1"/>
        <pt x="548" y="712" on="0"/>
        <pt x="587" y="729" on="0"/>
        <pt x="625" y="729" on="1"/>
        <pt x="669" y="731" on="0"/>
        <pt x="688" y="720" on="0"/>
        <pt x="696" y="693" on="1"/>
        <pt x="710" y="659" on="0"/>
        <pt x="702" y="610" on="1"/>
        <pt x="692" y="548" on="0"/>
        <pt x="645" y="389" on="0"/>
        <pt x="625" y="351" on="1"/>
        <pt x="600" y="302" on="0"/>
        <pt x="600" y="277" on="1"/>
        <pt x="600" y="254" on="0"/>
        <pt x="586" y="243" on="1"/>
        <pt x="562" y="223" on="0"/>
        <pt x="558" y="150" on="0"/>
        <pt x="593" y="89" on="0"/>
        <pt x="622" y="82" on="1"/>
        <pt x="662" y="74" on="0"/>
        <pt x="769" y="81" on="0"/>
        <pt x="819" y="92" on="1"/>
        <pt x="837" y="98" on="0"/>
        <pt x="845" y="102" on="1"/>
        <pt x="912" y="137" on="0"/>
      </contour>
    </TTGlyph>
    <TTGlyph name="O" xMin="29" yMin="-221" xMax="714" yMax="750">
      <contour>
        <pt x="392" y="697" on="0"/>
        <pt x="406" y="701" on="0"/>
        <pt x="427" y="717" on="1"/>
        <pt x="460" y="742" on="0"/>
        <pt x="517" y="750" on="1"/>
        <pt x="529" y="750" on="0"/>
        <pt x="570" y="713" on="1"/>
        <pt x="665" y="625" on="0"/>
        <pt x="607" y="510" on="1"/>
        <pt x="571" y="440" on="0"/>
        <pt x="587" y="436" on="1"/>
        <pt x="588" y="436" on="0"/>
        <pt x="591" y="437" on="1"/>
        <pt x="627" y="453" on="0"/>
        <pt x="673" y="467" on="0"/>
        <pt x="702" y="469" on="0"/>
        <pt x="714" y="456" on="0"/>
        <pt x="714" y="441" on="1"/>
        <pt x="714" y="416" on="0"/>
        <pt x="657" y="372" on="0"/>
        <pt x="608" y="361" on="1"/>
        <pt x="574" y="353" on="0"/>
        <pt x="545" y="336" on="0"/>
        <pt x="533" y="317" on="1"/>
        <pt x="195" y="-221" on="0"/>
        <pt x="60" y="56" on="1"/>
        <pt x="43" y="93" on="0"/>
        <pt x="29" y="198" on="0"/>
        <pt x="38" y="221" on="1"/>
        <pt x="56" y="266" on="0"/>
        <pt x="80" y="398" on="1"/>
        <pt x="92" y="452" on="0"/>
        <pt x="115" y="495" on="1"/>
        <pt x="137" y="545" on="0"/>
        <pt x="137" y="551" on="1"/>
        <pt x="137" y="564" on="0"/>
        <pt x="286" y="683" on="0"/>
        <pt x="322" y="700" on="1"/>
        <pt x="352" y="714" on="0"/>
        <pt x="373" y="717" on="0"/>
        <pt x="382" y="708" on="1"/>
      </contour>
      <contour>
        <pt x="355" y="532" on="1"/>
        <pt x="342" y="551" on="0"/>
        <pt x="342" y="576" on="1"/>
        <pt x="342" y="603" on="0"/>
        <pt x="323" y="605" on="0"/>
        <pt x="291" y="580" on="1"/>
        <pt x="198" y="506" on="0"/>
        <pt x="174" y="449" on="1"/>
        <pt x="153" y="402" on="0"/>
        <pt x="100" y="165" on="0"/>
        <pt x="105" y="143" on="1"/>
        <pt x="109" y="118" on="0"/>
        <pt x="109" y="91" on="1"/>
        <pt x="109" y="70" on="0"/>
        <pt x="142" y="36" on="0"/>
        <pt x="162" y="36" on="1"/>
        <pt x="208" y="36" on="0"/>
        <pt x="300" y="126" on="1"/>
        <pt x="392" y="217" on="0"/>
        <pt x="441" y="310" on="1"/>
        <pt x="466" y="359" on="1"/>
        <pt x="423" y="400" on="1"/>
        <pt x="380" y="444" on="0"/>
        <pt x="373" y="478" on="1"/>
        <pt x="367" y="514" on="0"/>
      </contour>
      <contour>
        <pt x="541" y="540" on="0"/>
        <pt x="554" y="621" on="0"/>
        <pt x="542" y="639" on="1"/>
        <pt x="535" y="648" on="0"/>
        <pt x="480" y="648" on="0"/>
        <pt x="472" y="626" on="1"/>
        <pt x="468" y="615" on="0"/>
        <pt x="455" y="602" on="0"/>
        <pt x="450" y="602" on="1"/>
        <pt x="437" y="602" on="0"/>
        <pt x="430" y="541" on="0"/>
        <pt x="439" y="504" on="1"/>
        <pt x="448" y="466" on="0"/>
        <pt x="464" y="448" on="1"/>
        <pt x="471" y="440" on="0"/>
        <pt x="480" y="434" on="0"/>
        <pt x="493" y="446" on="0"/>
        <pt x="508" y="471" on="0"/>
        <pt x="520" y="497" on="1"/>
      </contour>
    </TTGlyph>
    <TTGlyph name="P" xMin="6" yMin="-41" xMax="787" yMax="728">
      <contour>
        <pt x="270" y="449" on="1"/>
        <pt x="317" y="551" on="0"/>
        <pt x="317" y="567" on="1"/>
        <pt x="317" y="576" on="0"/>
        <pt x="323" y="582" on="1"/>
        <pt x="328" y="588" on="0"/>
        <pt x="333" y="595" on="1"/>
        <pt x="338" y="601" on="0"/>
        <pt x="338" y="610" on="1"/>
        <pt x="332" y="628" on="0"/>
        <pt x="264" y="607" on="0"/>
        <pt x="255" y="598" on="1"/>
        <pt x="223" y="573" on="0"/>
        <pt x="149" y="592" on="0"/>
        <pt x="149" y="627" on="1"/>
        <pt x="149" y="640" on="0"/>
        <pt x="214" y="688" on="0"/>
        <pt x="234" y="688" on="1"/>
        <pt x="246" y="688" on="0"/>
        <pt x="329" y="724" on="0"/>
        <pt x="332" y="724" on="1"/>
        <pt x="350" y="728" on="0"/>
        <pt x="559" y="721" on="0"/>
        <pt x="611" y="713" on="1"/>
        <pt x="659" y="707" on="0"/>
        <pt x="715" y="662" on="1"/>
        <pt x="787" y="610" on="0"/>
        <pt x="784" y="498" on="0"/>
        <pt x="711" y="393" on="1"/>
        <pt x="675" y="342" on="0"/>
        <pt x="654" y="316" on="1"/>
        <pt x="633" y="290" on="0"/>
        <pt x="607" y="269" on="0"/>
        <pt x="595" y="269" on="1"/>
        <pt x="574" y="269" on="0"/>
        <pt x="556" y="251" on="1"/>
        <pt x="524" y="215" on="0"/>
        <pt x="355" y="154" on="0"/>
        <pt x="305" y="160" on="1"/>
        <pt x="291" y="160" on="0"/>
        <pt x="270" y="163" on="0"/>
        <pt x="260" y="157" on="1"/>
        <pt x="250" y="151" on="0"/>
        <pt x="235" y="139" on="0"/>
        <pt x="227" y="123" on="1"/>
        <pt x="219" y="108" on="0"/>
        <pt x="211" y="90" on="1"/>
        <pt x="204" y="72" on="0"/>
        <pt x="194" y="42" on="1"/>
        <pt x="180" y="3" on="0"/>
        <pt x="165" y="-29" on="0"/>
        <pt x="150" y="-41" on="0"/>
        <pt x="138" y="-41" on="1"/>
        <pt x="113" y="-41" on="0"/>
        <pt x="98" y="-14" on="1"/>
        <pt x="88" y="5" on="0"/>
        <pt x="91" y="21" on="1"/>
        <pt x="95" y="37" on="0"/>
        <pt x="122" y="94" on="1"/>
        <pt x="159" y="175" on="0"/>
        <pt x="155" y="184" on="1"/>
        <pt x="149" y="191" on="0"/>
        <pt x="94" y="187" on="1"/>
        <pt x="55" y="184" on="0"/>
        <pt x="31" y="191" on="0"/>
        <pt x="19" y="211" on="1"/>
        <pt x="6" y="231" on="0"/>
        <pt x="6" y="246" on="0"/>
        <pt x="21" y="266" on="1"/>
        <pt x="39" y="291" on="0"/>
        <pt x="161" y="331" on="0"/>
        <pt x="177" y="318" on="1"/>
        <pt x="188" y="311" on="0"/>
        <pt x="223" y="328" on="0"/>
        <pt x="223" y="342" on="1"/>
        <pt x="223" y="352" on="0"/>
      </contour>
      <contour>
        <pt x="683" y="598" on="0"/>
        <pt x="669" y="616" on="0"/>
        <pt x="645" y="630" on="1"/>
        <pt x="619" y="643" on="0"/>
        <pt x="559" y="649" on="1"/>
        <pt x="475" y="656" on="0"/>
        <pt x="411" y="625" on="0"/>
        <pt x="411" y="577" on="1"/>
        <pt x="411" y="542" on="0"/>
        <pt x="390" y="530" on="0"/>
        <pt x="390" y="512" on="1"/>
        <pt x="390" y="490" on="0"/>
        <pt x="290" y="287" on="1"/>
        <pt x="268" y="241" on="0"/>
        <pt x="314" y="241" on="1"/>
        <pt x="344" y="241" on="0"/>
        <pt x="390" y="260" on="1"/>
        <pt x="562" y="330" on="0"/>
        <pt x="653" y="472" on="1"/>
        <pt x="680" y="510" on="0"/>
        <pt x="693" y="548" on="0"/>
        <pt x="689" y="567" on="1"/>
      </contour>
    </TTGlyph>
    <TTGlyph name="Q" xMin="33" yMin="-29" xMax="696" yMax="736">
      <contour>
        <pt x="693" y="101" on="1"/>
        <pt x="690" y="78" on="0"/>
        <pt x="678" y="60" on="1"/>
        <pt x="648" y="16" on="0"/>
        <pt x="594" y="-7" on="1"/>
        <pt x="543" y="-29" on="0"/>
        <pt x="436" y="-6" on="0"/>
        <pt x="398" y="35" on="1"/>
        <pt x="350" y="86" on="1"/>
        <pt x="311" y="48" on="1"/>
        <pt x="270" y="10" on="0"/>
        <pt x="206" y="-20" on="0"/>
        <pt x="162" y="-20" on="1"/>
        <pt x="113" y="-20" on="0"/>
        <pt x="71" y="12" on="0"/>
        <pt x="53" y="61" on="1"/>
        <pt x="39" y="93" on="0"/>
        <pt x="33" y="155" on="0"/>
        <pt x="33" y="224" on="1"/>
        <pt x="34" y="302" on="0"/>
        <pt x="40" y="338" on="1"/>
        <pt x="46" y="374" on="0"/>
        <pt x="61" y="385" on="1"/>
        <pt x="71" y="389" on="0"/>
        <pt x="71" y="404" on="1"/>
        <pt x="71" y="419" on="0"/>
        <pt x="105" y="490" on="1"/>
        <pt x="133" y="550" on="0"/>
        <pt x="258" y="685" on="0"/>
        <pt x="307" y="711" on="1"/>
        <pt x="354" y="736" on="0"/>
        <pt x="455" y="724" on="0"/>
        <pt x="493" y="688" on="1"/>
        <pt x="513" y="670" on="0"/>
        <pt x="526" y="644" on="0"/>
        <pt x="526" y="621" on="1"/>
        <pt x="526" y="586" on="0"/>
        <pt x="534" y="579" on="1"/>
        <pt x="543" y="575" on="0"/>
        <pt x="550" y="532" on="1"/>
        <pt x="554" y="507" on="0"/>
        <pt x="545" y="465" on="0"/>
        <pt x="528" y="422" on="1"/>
        <pt x="499" y="353" on="0"/>
        <pt x="499" y="305" on="0"/>
        <pt x="480" y="295" on="0"/>
        <pt x="480" y="275" on="1"/>
        <pt x="480" y="257" on="0"/>
        <pt x="442" y="200" on="1"/>
        <pt x="402" y="143" on="1"/>
        <pt x="426" y="101" on="1"/>
        <pt x="442" y="72" on="0"/>
        <pt x="460" y="59" on="0"/>
        <pt x="491" y="56" on="1"/>
        <pt x="535" y="53" on="0"/>
        <pt x="583" y="73" on="1"/>
        <pt x="601" y="82" on="0"/>
        <pt x="616" y="85" on="1"/>
        <pt x="639" y="99" on="0"/>
        <pt x="656" y="113" on="1"/>
        <pt x="680" y="129" on="0"/>
        <pt x="696" y="120" on="0"/>
      </contour>
      <contour>
        <pt x="376" y="231" on="0"/>
        <pt x="404" y="278" on="0"/>
        <pt x="423" y="341" on="0"/>
        <pt x="423" y="365" on="1"/>
        <pt x="423" y="394" on="0"/>
        <pt x="452" y="449" on="1"/>
        <pt x="480" y="502" on="0"/>
        <pt x="480" y="522" on="1"/>
        <pt x="480" y="536" on="0"/>
        <pt x="448" y="593" on="0"/>
        <pt x="441" y="593" on="1"/>
        <pt x="435" y="593" on="0"/>
        <pt x="426" y="623" on="1"/>
        <pt x="421" y="646" on="0"/>
        <pt x="398" y="658" on="0"/>
        <pt x="371" y="651" on="1"/>
        <pt x="360" y="650" on="0"/>
        <pt x="323" y="622" on="0"/>
        <pt x="281" y="581" on="0"/>
        <pt x="237" y="532" on="0"/>
        <pt x="219" y="507" on="1"/>
        <pt x="201" y="482" on="0"/>
        <pt x="190" y="462" on="1"/>
        <pt x="182" y="447" on="0"/>
        <pt x="160" y="408" on="1"/>
        <pt x="138" y="370" on="0"/>
        <pt x="132" y="358" on="1"/>
        <pt x="117" y="331" on="0"/>
        <pt x="107" y="276" on="0"/>
        <pt x="104" y="214" on="1"/>
        <pt x="97" y="121" on="0"/>
        <pt x="113" y="60" on="0"/>
        <pt x="145" y="53" on="1"/>
        <pt x="165" y="49" on="0"/>
        <pt x="176" y="52" on="1"/>
        <pt x="187" y="55" on="0"/>
        <pt x="204" y="69" on="1"/>
        <pt x="231" y="92" on="0"/>
        <pt x="243" y="92" on="1"/>
        <pt x="256" y="92" on="0"/>
        <pt x="290" y="134" on="1"/>
        <pt x="314" y="163" on="0"/>
        <pt x="320" y="181" on="0"/>
        <pt x="311" y="189" on="1"/>
        <pt x="302" y="200" on="0"/>
        <pt x="277" y="201" on="0"/>
        <pt x="244" y="193" on="1"/>
        <pt x="200" y="184" on="0"/>
        <pt x="163" y="199" on="0"/>
        <pt x="163" y="222" on="1"/>
        <pt x="163" y="232" on="0"/>
        <pt x="175" y="246" on="0"/>
        <pt x="198" y="259" on="0"/>
        <pt x="229" y="268" on="0"/>
        <pt x="248" y="271" on="1"/>
        <pt x="274" y="274" on="0"/>
        <pt x="303" y="268" on="0"/>
        <pt x="324" y="254" on="1"/>
        <pt x="357" y="230" on="0"/>
        <pt x="365" y="230" on="1"/>
      </contour>
    </TTGlyph>
    <TTGlyph name="R" xMin="33" yMin="0" xMax="843" yMax="756">
      <contour>
        <pt x="813" y="205" on="1"/>
        <pt x="843" y="214" on="0"/>
        <pt x="840" y="185" on="1"/>
        <pt x="838" y="172" on="0"/>
        <pt x="831" y="155" on="1"/>
        <pt x="816" y="125" on="0"/>
        <pt x="756" y="77" on="0"/>
        <pt x="694" y="51" on="0"/>
        <pt x="636" y="34" on="0"/>
        <pt x="617" y="32" on="1"/>
        <pt x="599" y="29" on="1"/>
        <pt x="539" y="36" on="0"/>
        <pt x="429" y="74" on="0"/>
        <pt x="348" y="126" on="0"/>
        <pt x="297" y="168" on="0"/>
        <pt x="276" y="190" on="1"/>
        <pt x="268" y="185" on="0"/>
        <pt x="266" y="183" on="1"/>
        <pt x="259" y="177" on="0"/>
        <pt x="250" y="162" on="1"/>
        <pt x="242" y="147" on="0"/>
        <pt x="235" y="129" on="1"/>
        <pt x="227" y="110" on="0"/>
        <pt x="217" y="82" on="1"/>
        <pt x="204" y="43" on="0"/>
        <pt x="197" y="28" on="1"/>
        <pt x="193" y="20" on="0"/>
        <pt x="186" y="9" on="0"/>
        <pt x="182" y="6" on="1"/>
        <pt x="175" y="0" on="0"/>
        <pt x="163" y="0" on="1"/>
        <pt x="138" y="0" on="0"/>
        <pt x="124" y="26" on="1"/>
        <pt x="113" y="45" on="0"/>
        <pt x="121" y="78" on="0"/>
        <pt x="147" y="133" on="1"/>
        <pt x="184" y="213" on="0"/>
        <pt x="179" y="221" on="1"/>
        <pt x="173" y="229" on="0"/>
        <pt x="119" y="224" on="1"/>
        <pt x="81" y="221" on="0"/>
        <pt x="58" y="228" on="0"/>
        <pt x="46" y="248" on="1"/>
        <pt x="33" y="268" on="0"/>
        <pt x="33" y="283" on="0"/>
        <pt x="47" y="302" on="1"/>
        <pt x="65" y="327" on="0"/>
        <pt x="185" y="366" on="0"/>
        <pt x="201" y="353" on="1"/>
        <pt x="212" y="346" on="0"/>
        <pt x="247" y="363" on="0"/>
        <pt x="247" y="376" on="1"/>
        <pt x="247" y="387" on="0"/>
        <pt x="292" y="482" on="1"/>
        <pt x="339" y="582" on="0"/>
        <pt x="339" y="598" on="1"/>
        <pt x="339" y="607" on="0"/>
        <pt x="344" y="612" on="1"/>
        <pt x="350" y="619" on="0"/>
        <pt x="354" y="625" on="1"/>
        <pt x="360" y="632" on="0"/>
        <pt x="360" y="640" on="1"/>
        <pt x="354" y="658" on="0"/>
        <pt x="286" y="637" on="0"/>
        <pt x="277" y="628" on="1"/>
        <pt x="247" y="604" on="0"/>
        <pt x="173" y="623" on="0"/>
        <pt x="173" y="656" on="1"/>
        <pt x="173" y="670" on="0"/>
        <pt x="238" y="716" on="0"/>
        <pt x="257" y="716" on="1"/>
        <pt x="269" y="716" on="0"/>
        <pt x="351" y="752" on="0"/>
        <pt x="354" y="752" on="1"/>
        <pt x="371" y="756" on="0"/>
        <pt x="576" y="749" on="0"/>
        <pt x="628" y="741" on="1"/>
        <pt x="674" y="735" on="0"/>
        <pt x="730" y="692" on="1"/>
        <pt x="800" y="640" on="0"/>
        <pt x="798" y="530" on="0"/>
        <pt x="726" y="426" on="1"/>
        <pt x="690" y="376" on="0"/>
        <pt x="670" y="351" on="1"/>
        <pt x="650" y="325" on="0"/>
        <pt x="623" y="305" on="0"/>
        <pt x="612" y="305" on="1"/>
        <pt x="591" y="305" on="0"/>
        <pt x="573" y="287" on="1"/>
        <pt x="544" y="254" on="0"/>
        <pt x="466" y="225" on="1"/>
        <pt x="465" y="224" on="1"/>
        <pt x="408" y="198" on="0"/>
        <pt x="414" y="186" on="1"/>
        <pt x="416" y="183" on="1"/>
        <pt x="435" y="149" on="0"/>
        <pt x="498" y="111" on="0"/>
        <pt x="560" y="106" on="0"/>
        <pt x="617" y="111" on="0"/>
        <pt x="635" y="117" on="1"/>
        <pt x="653" y="122" on="1"/>
        <pt x="661" y="132" on="0"/>
        <pt x="695" y="142" on="0"/>
        <pt x="709" y="143" on="1"/>
        <pt x="723" y="144" on="1"/>
      </contour>
      <contour>
        <pt x="325" y="265" on="1"/>
        <pt x="354" y="265" on="0"/>
        <pt x="400" y="284" on="1"/>
        <pt x="568" y="353" on="0"/>
        <pt x="657" y="492" on="1"/>
        <pt x="684" y="531" on="0"/>
        <pt x="697" y="567" on="0"/>
        <pt x="693" y="586" on="1"/>
        <pt x="687" y="617" on="0"/>
        <pt x="674" y="634" on="0"/>
        <pt x="650" y="648" on="1"/>
        <pt x="624" y="661" on="0"/>
        <pt x="565" y="667" on="1"/>
        <pt x="483" y="674" on="0"/>
        <pt x="420" y="643" on="0"/>
        <pt x="420" y="596" on="1"/>
        <pt x="420" y="561" on="0"/>
        <pt x="400" y="550" on="0"/>
        <pt x="400" y="532" on="1"/>
        <pt x="400" y="510" on="0"/>
        <pt x="301" y="311" on="1"/>
        <pt x="280" y="265" on="0"/>
      </contour>
    </TTGlyph>
    <TTGlyph name="S" xMin="25" yMin="-74" xMax="861" yMax="799">
      <contour>
        <pt x="861" y="138" on="1"/>
        <pt x="861" y="115" on="0"/>
        <pt x="821" y="87" on="1"/>
        <pt x="812" y="67" on="0"/>
        <pt x="789" y="52" on="1"/>
        <pt x="750" y="27" on="0"/>
        <pt x="721" y="21" on="1"/>
        <pt x="616" y="-11" on="0"/>
        <pt x="498" y="-32" on="0"/>
        <pt x="446" y="-29" on="1"/>
        <pt x="431" y="-28" on="0"/>
        <pt x="410" y="-29" on="0"/>
        <pt x="393" y="-33" on="0"/>
        <pt x="377" y="-41" on="0"/>
        <pt x="369" y="-48" on="1"/>
        <pt x="332" y="-74" on="0"/>
        <pt x="190" y="-57" on="0"/>
        <pt x="151" y="-20" on="1"/>
        <pt x="126" y="3" on="0"/>
        <pt x="100" y="10" on="0"/>
        <pt x="81" y="-2" on="1"/>
        <pt x="52" y="-19" on="0"/>
        <pt x="25" y="23" on="0"/>
        <pt x="44" y="55" on="1"/>
        <pt x="55" y="73" on="0"/>
        <pt x="31" y="176" on="0"/>
        <pt x="51" y="195" on="0"/>
        <pt x="93" y="171" on="1"/>
        <pt x="138" y="146" on="1"/>
        <pt x="179" y="187" on="1"/>
        <pt x="208" y="215" on="0"/>
        <pt x="349" y="384" on="0"/>
        <pt x="370" y="406" on="1"/>
        <pt x="407" y="444" on="1"/>
        <pt x="402" y="505" on="1"/>
        <pt x="397" y="566" on="0"/>
        <pt x="382" y="593" on="1"/>
        <pt x="360" y="635" on="0"/>
        <pt x="382" y="712" on="0"/>
        <pt x="432" y="765" on="1"/>
        <pt x="452" y="785" on="0"/>
        <pt x="479" y="799" on="0"/>
        <pt x="498" y="799" on="1"/>
        <pt x="521" y="799" on="0"/>
        <pt x="591" y="766" on="0"/>
        <pt x="592" y="756" on="1"/>
        <pt x="603" y="686" on="0"/>
        <pt x="591" y="674" on="1"/>
        <pt x="585" y="667" on="0"/>
        <pt x="568" y="613" on="1"/>
        <pt x="551" y="563" on="0"/>
        <pt x="523" y="526" on="1"/>
        <pt x="498" y="489" on="0"/>
        <pt x="498" y="480" on="1"/>
        <pt x="498" y="469" on="0"/>
        <pt x="485" y="456" on="1"/>
        <pt x="472" y="440" on="0"/>
        <pt x="480" y="394" on="1"/>
        <pt x="526" y="158" on="0"/>
        <pt x="489" y="83" on="1"/>
        <pt x="472" y="47" on="0"/>
        <pt x="480" y="42" on="1"/>
        <pt x="487" y="36" on="0"/>
        <pt x="527" y="47" on="1"/>
        <pt x="559" y="55" on="0"/>
        <pt x="618" y="64" on="1"/>
        <pt x="632" y="67" on="0"/>
        <pt x="661" y="77" on="0"/>
        <pt x="692" y="90" on="0"/>
        <pt x="704" y="93" on="1"/>
        <pt x="719" y="97" on="0"/>
        <pt x="724" y="101" on="1"/>
        <pt x="728" y="104" on="0"/>
        <pt x="741" y="118" on="0"/>
        <pt x="745" y="120" on="1"/>
        <pt x="753" y="127" on="0"/>
        <pt x="780" y="137" on="0"/>
        <pt x="810" y="147" on="0"/>
        <pt x="818" y="152" on="1"/>
        <pt x="833" y="163" on="0"/>
        <pt x="861" y="161" on="0"/>
      </contour>
      <contour>
        <pt x="424" y="114" on="0"/>
        <pt x="442" y="174" on="0"/>
        <pt x="436" y="250" on="1"/>
        <pt x="428" y="337" on="0"/>
        <pt x="419" y="341" on="1"/>
        <pt x="411" y="344" on="0"/>
        <pt x="368" y="295" on="1"/>
        <pt x="337" y="260" on="0"/>
        <pt x="273" y="190" on="1"/>
        <pt x="219" y="134" on="0"/>
        <pt x="219" y="118" on="1"/>
        <pt x="219" y="106" on="0"/>
        <pt x="293" y="59" on="0"/>
        <pt x="323" y="51" on="1"/>
        <pt x="339" y="47" on="0"/>
        <pt x="362" y="58" on="0"/>
        <pt x="385" y="77" on="1"/>
      </contour>
      <contour>
        <pt x="463" y="568" on="1"/>
        <pt x="472" y="572" on="0"/>
        <pt x="526" y="703" on="0"/>
        <pt x="521" y="712" on="1"/>
        <pt x="513" y="737" on="0"/>
        <pt x="483" y="711" on="1"/>
        <pt x="461" y="693" on="0"/>
        <pt x="452" y="665" on="1"/>
        <pt x="439" y="625" on="0"/>
        <pt x="451" y="581" on="1"/>
        <pt x="457" y="568" on="0"/>
      </contour>
    </TTGlyph>
    <TTGlyph name="T" xMin="33" yMin="-19" xMax="1054" yMax="721">
      <contour>
        <pt x="1025" y="692" on="1"/>
        <pt x="1054" y="664" on="0"/>
        <pt x="1020" y="630" on="1"/>
        <pt x="1000" y="612" on="0"/>
        <pt x="953" y="602" on="1"/>
        <pt x="906" y="592" on="0"/>
        <pt x="791" y="583" on="1"/>
        <pt x="707" y="576" on="1"/>
        <pt x="684" y="501" on="1"/>
        <pt x="661" y="424" on="0"/>
        <pt x="648" y="410" on="1"/>
        <pt x="632" y="388" on="0"/>
        <pt x="620" y="364" on="1"/>
        <pt x="560" y="232" on="0"/>
        <pt x="560" y="211" on="1"/>
        <pt x="560" y="194" on="0"/>
        <pt x="537" y="165" on="1"/>
        <pt x="514" y="137" on="0"/>
        <pt x="517" y="113" on="0"/>
        <pt x="542" y="88" on="1"/>
        <pt x="543" y="87" on="0"/>
        <pt x="544" y="86" on="1"/>
        <pt x="546" y="84" on="1"/>
        <pt x="596" y="112" on="0"/>
        <pt x="628" y="138" on="1"/>
        <pt x="649" y="155" on="0"/>
        <pt x="681" y="149" on="0"/>
        <pt x="681" y="121" on="1"/>
        <pt x="681" y="113" on="0"/>
        <pt x="673" y="95" on="0"/>
        <pt x="664" y="83" on="0"/>
        <pt x="645" y="67" on="0"/>
        <pt x="634" y="59" on="0"/>
        <pt x="611" y="44" on="0"/>
        <pt x="609" y="43" on="1"/>
        <pt x="565" y="13" on="0"/>
        <pt x="476" y="-8" on="1"/>
        <pt x="454" y="-13" on="0"/>
        <pt x="433" y="-7" on="1"/>
        <pt x="345" y="-19" on="0"/>
        <pt x="276" y="-19" on="1"/>
        <pt x="237" y="-19" on="0"/>
        <pt x="218" y="-18" on="1"/>
        <pt x="199" y="-16" on="0"/>
        <pt x="176" y="-5" on="0"/>
        <pt x="162" y="10" on="1"/>
        <pt x="129" y="39" on="0"/>
        <pt x="101" y="44" on="1"/>
        <pt x="75" y="46" on="0"/>
        <pt x="49" y="80" on="1"/>
        <pt x="33" y="101" on="0"/>
        <pt x="33" y="116" on="0"/>
        <pt x="46" y="131" on="1"/>
        <pt x="57" y="142" on="0"/>
        <pt x="77" y="145" on="0"/>
        <pt x="95" y="136" on="1"/>
        <pt x="123" y="123" on="0"/>
        <pt x="181" y="123" on="0"/>
        <pt x="186" y="111" on="1"/>
        <pt x="193" y="100" on="0"/>
        <pt x="232" y="100" on="0"/>
        <pt x="266" y="82" on="1"/>
        <pt x="291" y="69" on="0"/>
        <pt x="312" y="74" on="0"/>
        <pt x="344" y="97" on="1"/>
        <pt x="387" y="124" on="0"/>
        <pt x="418" y="162" on="1"/>
        <pt x="439" y="186" on="0"/>
        <pt x="537" y="382" on="0"/>
        <pt x="537" y="398" on="1"/>
        <pt x="537" y="408" on="0"/>
        <pt x="565" y="469" on="1"/>
        <pt x="596" y="537" on="0"/>
        <pt x="596" y="579" on="0"/>
        <pt x="560" y="597" on="1"/>
        <pt x="517" y="617" on="0"/>
        <pt x="429" y="614" on="1"/>
        <pt x="338" y="610" on="1"/>
        <pt x="317" y="542" on="1"/>
        <pt x="282" y="433" on="0"/>
        <pt x="224" y="433" on="1"/>
        <pt x="201" y="433" on="0"/>
        <pt x="145" y="480" on="1"/>
        <pt x="108" y="511" on="0"/>
        <pt x="93" y="539" on="0"/>
        <pt x="96" y="566" on="1"/>
        <pt x="103" y="606" on="0"/>
        <pt x="88" y="638" on="1"/>
        <pt x="75" y="671" on="0"/>
        <pt x="101" y="720" on="0"/>
        <pt x="110" y="720" on="1"/>
        <pt x="111" y="720" on="0"/>
        <pt x="128" y="717" on="1"/>
        <pt x="147" y="715" on="0"/>
        <pt x="178" y="711" on="1"/>
        <pt x="211" y="707" on="0"/>
        <pt x="238" y="703" on="1"/>
        <pt x="357" y="687" on="0"/>
        <pt x="408" y="697" on="1"/>
        <pt x="444" y="703" on="0"/>
        <pt x="545" y="681" on="0"/>
        <pt x="566" y="661" on="1"/>
        <pt x="586" y="641" on="0"/>
        <pt x="886" y="667" on="0"/>
        <pt x="935" y="694" on="1"/>
        <pt x="991" y="721" on="0"/>
      </contour>
      <contour>
        <pt x="222" y="524" on="0"/>
        <pt x="250" y="575" on="0"/>
        <pt x="250" y="594" on="1"/>
        <pt x="250" y="619" on="0"/>
        <pt x="219" y="591" on="1"/>
        <pt x="180" y="558" on="0"/>
        <pt x="188" y="535" on="1"/>
        <pt x="191" y="524" on="0"/>
        <pt x="211" y="524" on="1"/>
      </contour>
    </TTGlyph>
    <TTGlyph name="U" xMin="32" yMin="-46" xMax="695" yMax="766">
      <contour>
        <pt x="648" y="148" on="1"/>
        <pt x="667" y="163" on="0"/>
        <pt x="694" y="157" on="0"/>
        <pt x="695" y="133" on="1"/>
        <pt x="695" y="126" on="0"/>
        <pt x="688" y="111" on="0"/>
        <pt x="679" y="100" on="0"/>
        <pt x="663" y="85" on="0"/>
        <pt x="653" y="79" on="0"/>
        <pt x="634" y="66" on="0"/>
        <pt x="632" y="64" on="1"/>
        <pt x="624" y="59" on="0"/>
        <pt x="612" y="48" on="0"/>
        <pt x="598" y="33" on="0"/>
        <pt x="593" y="29" on="1"/>
        <pt x="587" y="23" on="0"/>
        <pt x="574" y="22" on="1"/>
        <pt x="564" y="15" on="0"/>
        <pt x="537" y="12" on="1"/>
        <pt x="497" y="6" on="0"/>
        <pt x="464" y="20" on="1"/>
        <pt x="462" y="20" on="0"/>
        <pt x="455" y="20" on="0"/>
        <pt x="453" y="20" on="1"/>
        <pt x="452" y="23" on="0"/>
        <pt x="453" y="26" on="1"/>
        <pt x="452" y="27" on="0"/>
        <pt x="446" y="30" on="0"/>
        <pt x="444" y="31" on="1"/>
        <pt x="404" y="57" on="0"/>
        <pt x="404" y="100" on="1"/>
        <pt x="404" y="150" on="0"/>
        <pt x="372" y="92" on="1"/>
        <pt x="355" y="62" on="0"/>
        <pt x="232" y="-35" on="0"/>
        <pt x="202" y="-42" on="1"/>
        <pt x="179" y="-46" on="0"/>
        <pt x="153" y="-34" on="0"/>
        <pt x="113" y="1" on="1"/>
        <pt x="84" y="26" on="0"/>
        <pt x="73" y="50" on="0"/>
        <pt x="75" y="88" on="1"/>
        <pt x="76" y="141" on="0"/>
        <pt x="99" y="187" on="1"/>
        <pt x="113" y="215" on="0"/>
        <pt x="137" y="274" on="1"/>
        <pt x="161" y="333" on="0"/>
        <pt x="181" y="370" on="1"/>
        <pt x="214" y="427" on="0"/>
        <pt x="214" y="434" on="1"/>
        <pt x="214" y="443" on="0"/>
        <pt x="227" y="472" on="1"/>
        <pt x="246" y="519" on="0"/>
        <pt x="274" y="628" on="0"/>
        <pt x="270" y="644" on="1"/>
        <pt x="264" y="676" on="0"/>
        <pt x="247" y="683" on="1"/>
        <pt x="241" y="685" on="0"/>
        <pt x="237" y="679" on="1"/>
        <pt x="230" y="671" on="0"/>
        <pt x="241" y="665" on="1"/>
        <pt x="256" y="655" on="0"/>
        <pt x="241" y="595" on="0"/>
        <pt x="214" y="563" on="1"/>
        <pt x="167" y="507" on="0"/>
        <pt x="135" y="479" on="0"/>
        <pt x="109" y="476" on="1"/>
        <pt x="45" y="463" on="0"/>
        <pt x="35" y="539" on="1"/>
        <pt x="32" y="562" on="0"/>
        <pt x="41" y="591" on="0"/>
        <pt x="58" y="617" on="1"/>
        <pt x="86" y="658" on="0"/>
        <pt x="86" y="670" on="1"/>
        <pt x="86" y="676" on="0"/>
        <pt x="101" y="692" on="1"/>
        <pt x="116" y="707" on="0"/>
        <pt x="134" y="720" on="1"/>
        <pt x="152" y="733" on="0"/>
        <pt x="161" y="733" on="1"/>
        <pt x="176" y="734" on="0"/>
        <pt x="205" y="751" on="1"/>
        <pt x="233" y="766" on="0"/>
        <pt x="248" y="766" on="0"/>
        <pt x="275" y="751" on="1"/>
        <pt x="317" y="725" on="0"/>
        <pt x="351" y="589" on="0"/>
        <pt x="327" y="543" on="1"/>
        <pt x="299" y="486" on="0"/>
        <pt x="281" y="409" on="1"/>
        <pt x="274" y="379" on="0"/>
        <pt x="268" y="374" on="1"/>
        <pt x="261" y="370" on="0"/>
        <pt x="226" y="295" on="0"/>
        <pt x="205" y="242" on="1"/>
        <pt x="184" y="191" on="0"/>
        <pt x="178" y="176" on="1"/>
        <pt x="149" y="113" on="0"/>
        <pt x="145" y="73" on="0"/>
        <pt x="162" y="53" on="1"/>
        <pt x="184" y="32" on="1"/>
        <pt x="208" y="52" on="1"/>
        <pt x="234" y="71" on="0"/>
        <pt x="246" y="71" on="1"/>
        <pt x="255" y="71" on="0"/>
        <pt x="266" y="85" on="1"/>
        <pt x="277" y="99" on="0"/>
        <pt x="324" y="171" on="1"/>
        <pt x="353" y="213" on="0"/>
        <pt x="431" y="367" on="0"/>
        <pt x="431" y="380" on="1"/>
        <pt x="431" y="391" on="0"/>
        <pt x="476" y="455" on="0"/>
        <pt x="476" y="483" on="1"/>
        <pt x="476" y="510" on="0"/>
        <pt x="494" y="543" on="1"/>
        <pt x="511" y="571" on="0"/>
        <pt x="530" y="612" on="1"/>
        <pt x="544" y="642" on="0"/>
        <pt x="595" y="689" on="0"/>
        <pt x="606" y="684" on="1"/>
        <pt x="614" y="682" on="0"/>
        <pt x="628" y="664" on="1"/>
        <pt x="636" y="652" on="0"/>
        <pt x="633" y="637" on="0"/>
        <pt x="622" y="621" on="1"/>
        <pt x="609" y="604" on="0"/>
        <pt x="578" y="494" on="0"/>
        <pt x="566" y="478" on="1"/>
        <pt x="551" y="456" on="0"/>
        <pt x="537" y="411" on="1"/>
        <pt x="524" y="364" on="0"/>
        <pt x="496" y="240" on="1"/>
        <pt x="477" y="163" on="0"/>
        <pt x="472" y="96" on="0"/>
        <pt x="484" y="84" on="1"/>
        <pt x="493" y="74" on="0"/>
        <pt x="516" y="72" on="1"/>
        <pt x="537" y="79" on="0"/>
        <pt x="544" y="83" on="1"/>
        <pt x="610" y="117" on="0"/>
      </contour>
      <contour>
        <pt x="138" y="588" on="0"/>
        <pt x="178" y="630" on="0"/>
        <pt x="178" y="640" on="1"/>
        <pt x="178" y="665" on="0"/>
        <pt x="118" y="606" on="0"/>
        <pt x="124" y="591" on="1"/>
        <pt x="126" y="588" on="0"/>
        <pt x="130" y="588" on="1"/>
      </contour>
      <contour>
        <pt x="581" y="34" on="1"/>
        <pt x="582" y="34" on="0"/>
        <pt x="582" y="34" on="1"/>
      </contour>
    </TTGlyph>
    <TTGlyph name="V" xMin="65" yMin="-17" xMax="842" yMax="769">
      <contour>
        <pt x="150" y="721" on="1"/>
        <pt x="178" y="735" on="0"/>
        <pt x="197" y="751" on="1"/>
        <pt x="214" y="769" on="0"/>
        <pt x="301" y="761" on="0"/>
        <pt x="326" y="740" on="1"/>
        <pt x="364" y="704" on="0"/>
        <pt x="403" y="603" on="0"/>
        <pt x="386" y="584" on="1"/>
        <pt x="377" y="573" on="0"/>
        <pt x="364" y="508" on="1"/>
        <pt x="352" y="446" on="0"/>
        <pt x="326" y="361" on="1"/>
        <pt x="299" y="276" on="0"/>
        <pt x="286" y="255" on="1"/>
        <pt x="271" y="236" on="0"/>
        <pt x="271" y="180" on="0"/>
        <pt x="260" y="150" on="1"/>
        <pt x="250" y="117" on="0"/>
        <pt x="279" y="50" on="0"/>
        <pt x="301" y="59" on="1"/>
        <pt x="320" y="68" on="0"/>
        <pt x="339" y="72" on="1"/>
        <pt x="356" y="75" on="0"/>
        <pt x="482" y="208" on="0"/>
        <pt x="491" y="235" on="1"/>
        <pt x="498" y="254" on="0"/>
        <pt x="509" y="314" on="1"/>
        <pt x="520" y="394" on="0"/>
        <pt x="602" y="578" on="0"/>
        <pt x="637" y="600" on="1"/>
        <pt x="665" y="617" on="0"/>
        <pt x="709" y="662" on="1"/>
        <pt x="762" y="715" on="0"/>
        <pt x="806" y="704" on="1"/>
        <pt x="842" y="696" on="0"/>
        <pt x="829" y="647" on="1"/>
        <pt x="822" y="617" on="0"/>
        <pt x="790" y="609" on="1"/>
        <pt x="754" y="603" on="0"/>
        <pt x="661" y="517" on="0"/>
        <pt x="637" y="472" on="1"/>
        <pt x="614" y="425" on="0"/>
        <pt x="590" y="312" on="1"/>
        <pt x="580" y="262" on="0"/>
        <pt x="573" y="236" on="1"/>
        <pt x="566" y="210" on="0"/>
        <pt x="544" y="173" on="0"/>
        <pt x="523" y="145" on="1"/>
        <pt x="476" y="82" on="0"/>
        <pt x="468" y="65" on="1"/>
        <pt x="456" y="46" on="0"/>
        <pt x="352" y="-7" on="0"/>
        <pt x="308" y="-13" on="1"/>
        <pt x="280" y="-17" on="0"/>
        <pt x="254" y="-10" on="0"/>
        <pt x="233" y="6" on="1"/>
        <pt x="188" y="46" on="0"/>
        <pt x="181" y="221" on="0"/>
        <pt x="220" y="322" on="1"/>
        <pt x="268" y="445" on="0"/>
        <pt x="296" y="574" on="1"/>
        <pt x="308" y="628" on="0"/>
        <pt x="305" y="653" on="0"/>
        <pt x="289" y="671" on="1"/>
        <pt x="266" y="693" on="1"/>
        <pt x="225" y="672" on="1"/>
        <pt x="182" y="652" on="0"/>
        <pt x="151" y="615" on="1"/>
        <pt x="131" y="590" on="0"/>
        <pt x="112" y="581" on="0"/>
        <pt x="97" y="589" on="1"/>
        <pt x="65" y="606" on="0"/>
        <pt x="100" y="694" on="0"/>
      </contour>
    </TTGlyph>
    <TTGlyph name="W" xMin="35" yMin="-10" xMax="1098" yMax="788">
      <contour>
        <pt x="687" y="363" on="1"/>
        <pt x="715" y="399" on="0"/>
        <pt x="715" y="414" on="1"/>
        <pt x="715" y="421" on="0"/>
        <pt x="752" y="478" on="0"/>
        <pt x="752" y="494" on="0"/>
        <pt x="782" y="527" on="1"/>
        <pt x="811" y="559" on="0"/>
        <pt x="888" y="626" on="0"/>
        <pt x="909" y="638" on="1"/>
        <pt x="951" y="662" on="0"/>
        <pt x="980" y="651" on="0"/>
        <pt x="1023" y="662" on="1"/>
        <pt x="1098" y="682" on="0"/>
        <pt x="1090" y="624" on="1"/>
        <pt x="1089" y="612" on="0"/>
        <pt x="1078" y="602" on="0"/>
        <pt x="1051" y="592" on="0"/>
        <pt x="1016" y="586" on="1"/>
        <pt x="942" y="569" on="0"/>
        <pt x="925" y="559" on="1"/>
        <pt x="905" y="548" on="0"/>
        <pt x="794" y="409" on="0"/>
        <pt x="774" y="370" on="1"/>
        <pt x="764" y="348" on="0"/>
        <pt x="752" y="319" on="1"/>
        <pt x="740" y="289" on="0"/>
        <pt x="729" y="265" on="1"/>
        <pt x="717" y="241" on="0"/>
        <pt x="700" y="218" on="1"/>
        <pt x="672" y="182" on="0"/>
        <pt x="652" y="140" on="1"/>
        <pt x="637" y="108" on="0"/>
        <pt x="512" y="9" on="0"/>
        <pt x="487" y="9" on="1"/>
        <pt x="456" y="9" on="0"/>
        <pt x="385" y="52" on="0"/>
        <pt x="375" y="75" on="1"/>
        <pt x="363" y="104" on="0"/>
        <pt x="345" y="115" on="0"/>
        <pt x="283" y="53" on="1"/>
        <pt x="221" y="-10" on="0"/>
        <pt x="211" y="-10" on="1"/>
        <pt x="185" y="-8" on="0"/>
        <pt x="109" y="25" on="0"/>
        <pt x="97" y="41" on="1"/>
        <pt x="71" y="75" on="0"/>
        <pt x="91" y="253" on="0"/>
        <pt x="123" y="292" on="1"/>
        <pt x="162" y="340" on="0"/>
        <pt x="282" y="691" on="0"/>
        <pt x="263" y="702" on="1"/>
        <pt x="256" y="706" on="0"/>
        <pt x="196" y="689" on="0"/>
        <pt x="196" y="683" on="1"/>
        <pt x="196" y="679" on="0"/>
        <pt x="205" y="663" on="1"/>
        <pt x="217" y="645" on="0"/>
        <pt x="177" y="565" on="0"/>
        <pt x="106" y="500" on="0"/>
        <pt x="55" y="500" on="0"/>
        <pt x="35" y="547" on="0"/>
        <pt x="35" y="608" on="1"/>
        <pt x="35" y="636" on="0"/>
        <pt x="39" y="662" on="0"/>
        <pt x="51" y="681" on="0"/>
        <pt x="66" y="696" on="1"/>
        <pt x="121" y="746" on="0"/>
        <pt x="219" y="776" on="1"/>
        <pt x="260" y="788" on="0"/>
        <pt x="298" y="781" on="0"/>
        <pt x="320" y="759" on="1"/>
        <pt x="334" y="742" on="0"/>
        <pt x="342" y="713" on="0"/>
        <pt x="341" y="677" on="1"/>
        <pt x="341" y="631" on="0"/>
        <pt x="308" y="500" on="0"/>
        <pt x="294" y="458" on="1"/>
        <pt x="279" y="415" on="0"/>
        <pt x="272" y="403" on="1"/>
        <pt x="267" y="391" on="0"/>
        <pt x="228" y="321" on="1"/>
        <pt x="198" y="265" on="0"/>
        <pt x="189" y="254" on="1"/>
        <pt x="174" y="234" on="0"/>
        <pt x="142" y="98" on="1"/>
        <pt x="137" y="76" on="0"/>
        <pt x="158" y="65" on="1"/>
        <pt x="170" y="59" on="0"/>
        <pt x="192" y="68" on="0"/>
        <pt x="217" y="91" on="1"/>
        <pt x="270" y="138" on="0"/>
        <pt x="347" y="246" on="0"/>
        <pt x="394" y="335" on="1"/>
        <pt x="453" y="450" on="0"/>
        <pt x="473" y="477" on="1"/>
        <pt x="495" y="508" on="0"/>
        <pt x="515" y="557" on="1"/>
        <pt x="539" y="619" on="0"/>
        <pt x="577" y="670" on="0"/>
        <pt x="595" y="670" on="1"/>
        <pt x="622" y="670" on="0"/>
        <pt x="640" y="641" on="0"/>
        <pt x="627" y="616" on="1"/>
        <pt x="623" y="609" on="0"/>
        <pt x="601" y="549" on="1"/>
        <pt x="578" y="489" on="0"/>
        <pt x="563" y="477" on="1"/>
        <pt x="544" y="460" on="0"/>
        <pt x="544" y="446" on="1"/>
        <pt x="544" y="437" on="0"/>
        <pt x="507" y="378" on="0"/>
        <pt x="507" y="367" on="1"/>
        <pt x="507" y="350" on="0"/>
        <pt x="497" y="344" on="1"/>
        <pt x="481" y="335" on="0"/>
        <pt x="433" y="179" on="0"/>
        <pt x="433" y="142" on="1"/>
        <pt x="434" y="126" on="0"/>
        <pt x="445" y="95" on="0"/>
        <pt x="463" y="75" on="0"/>
        <pt x="471" y="75" on="1"/>
        <pt x="477" y="75" on="0"/>
        <pt x="506" y="95" on="0"/>
        <pt x="534" y="120" on="0"/>
        <pt x="554" y="147" on="0"/>
        <pt x="554" y="154" on="1"/>
        <pt x="554" y="171" on="0"/>
        <pt x="586" y="202" on="1"/>
        <pt x="609" y="222" on="0"/>
        <pt x="658" y="300" on="0"/>
        <pt x="658" y="316" on="1"/>
        <pt x="658" y="325" on="0"/>
      </contour>
    </TTGlyph>
    <TTGlyph name="X" xMin="99" yMin="-36" xMax="1025" yMax="750">
      <contour>
        <pt x="978" y="201" on="1"/>
        <pt x="997" y="217" on="0"/>
        <pt x="1025" y="211" on="0"/>
        <pt x="1025" y="187" on="1"/>
        <pt x="1025" y="179" on="0"/>
        <pt x="1018" y="164" on="0"/>
        <pt x="1010" y="153" on="0"/>
        <pt x="993" y="139" on="0"/>
        <pt x="983" y="132" on="0"/>
        <pt x="964" y="119" on="0"/>
        <pt x="962" y="118" on="1"/>
        <pt x="942" y="104" on="0"/>
        <pt x="920" y="95" on="1"/>
        <pt x="917" y="94" on="0"/>
        <pt x="880" y="74" on="0"/>
        <pt x="867" y="67" on="1"/>
        <pt x="852" y="56" on="0"/>
        <pt x="830" y="46" on="1"/>
        <pt x="746" y="9" on="0"/>
        <pt x="644" y="49" on="1"/>
        <pt x="603" y="64" on="0"/>
        <pt x="552" y="114" on="1"/>
        <pt x="510" y="156" on="0"/>
        <pt x="495" y="156" on="1"/>
        <pt x="467" y="156" on="0"/>
        <pt x="379" y="90" on="0"/>
        <pt x="337" y="39" on="1"/>
        <pt x="276" y="-36" on="0"/>
        <pt x="263" y="-36" on="1"/>
        <pt x="245" y="-36" on="0"/>
        <pt x="216" y="7" on="0"/>
        <pt x="222" y="24" on="1"/>
        <pt x="226" y="44" on="0"/>
        <pt x="275" y="94" on="1"/>
        <pt x="369" y="191" on="0"/>
        <pt x="442" y="298" on="1"/>
        <pt x="470" y="343" on="0"/>
        <pt x="479" y="374" on="0"/>
        <pt x="474" y="430" on="1"/>
        <pt x="470" y="491" on="0"/>
        <pt x="423" y="604" on="0"/>
        <pt x="393" y="624" on="1"/>
        <pt x="330" y="666" on="0"/>
        <pt x="236" y="566" on="1"/>
        <pt x="180" y="508" on="0"/>
        <pt x="153" y="508" on="1"/>
        <pt x="99" y="508" on="0"/>
        <pt x="130" y="570" on="1"/>
        <pt x="140" y="590" on="0"/>
        <pt x="234" y="673" on="0"/>
        <pt x="290" y="701" on="1"/>
        <pt x="330" y="721" on="0"/>
        <pt x="369" y="730" on="0"/>
        <pt x="407" y="726" on="1"/>
        <pt x="469" y="718" on="0"/>
        <pt x="480" y="713" on="1"/>
        <pt x="506" y="704" on="0"/>
        <pt x="572" y="531" on="0"/>
        <pt x="573" y="473" on="1"/>
        <pt x="573" y="453" on="0"/>
        <pt x="579" y="447" on="1"/>
        <pt x="583" y="443" on="0"/>
        <pt x="729" y="598" on="0"/>
        <pt x="729" y="618" on="0"/>
        <pt x="769" y="661" on="1"/>
        <pt x="806" y="703" on="0"/>
        <pt x="819" y="727" on="1"/>
        <pt x="829" y="746" on="0"/>
        <pt x="840" y="750" on="0"/>
        <pt x="861" y="740" on="1"/>
        <pt x="880" y="728" on="0"/>
        <pt x="879" y="678" on="0"/>
        <pt x="857" y="651" on="1"/>
        <pt x="834" y="623" on="0"/>
        <pt x="820" y="594" on="1"/>
        <pt x="807" y="570" on="0"/>
        <pt x="692" y="451" on="1"/>
        <pt x="576" y="339" on="1"/>
        <pt x="582" y="297" on="1"/>
        <pt x="597" y="184" on="0"/>
        <pt x="636" y="159" on="1"/>
        <pt x="656" y="144" on="0"/>
        <pt x="684" y="119" on="1"/>
        <pt x="702" y="100" on="0"/>
        <pt x="764" y="96" on="0"/>
        <pt x="830" y="117" on="0"/>
        <pt x="864" y="131" on="0"/>
        <pt x="875" y="137" on="1"/>
        <pt x="940" y="171" on="0"/>
      </contour>
    </TTGlyph>
    <TTGlyph name="Y" xMin="29" yMin="-285" xMax="661" yMax="768">
      <contour>
        <pt x="644" y="747" on="1"/>
        <pt x="660" y="734" on="0"/>
        <pt x="661" y="659" on="0"/>
        <pt x="645" y="636" on="1"/>
        <pt x="631" y="615" on="0"/>
        <pt x="631" y="581" on="0"/>
        <pt x="607" y="539" on="1"/>
        <pt x="597" y="521" on="0"/>
        <pt x="592" y="510" on="1"/>
        <pt x="587" y="498" on="0"/>
        <pt x="590" y="498" on="1"/>
        <pt x="596" y="498" on="0"/>
        <pt x="582" y="483" on="1"/>
        <pt x="570" y="467" on="0"/>
        <pt x="518" y="359" on="0"/>
        <pt x="518" y="335" on="0"/>
        <pt x="487" y="288" on="1"/>
        <pt x="454" y="238" on="0"/>
        <pt x="454" y="227" on="0"/>
        <pt x="437" y="205" on="1"/>
        <pt x="418" y="181" on="0"/>
        <pt x="402" y="134" on="1"/>
        <pt x="402" y="133" on="0"/>
        <pt x="398" y="122" on="0"/>
        <pt x="396" y="117" on="0"/>
        <pt x="393" y="106" on="0"/>
        <pt x="393" y="100" on="0"/>
        <pt x="392" y="91" on="0"/>
        <pt x="394" y="84" on="0"/>
        <pt x="396" y="81" on="1"/>
        <pt x="408" y="85" on="0"/>
        <pt x="458" y="95" on="1"/>
        <pt x="465" y="97" on="0"/>
        <pt x="501" y="113" on="0"/>
        <pt x="509" y="115" on="1"/>
        <pt x="543" y="135" on="0"/>
        <pt x="564" y="152" on="1"/>
        <pt x="581" y="166" on="0"/>
        <pt x="607" y="161" on="0"/>
        <pt x="607" y="138" on="1"/>
        <pt x="607" y="133" on="0"/>
        <pt x="603" y="121" on="0"/>
        <pt x="595" y="110" on="0"/>
        <pt x="586" y="101" on="0"/>
        <pt x="573" y="92" on="0"/>
        <pt x="565" y="86" on="0"/>
        <pt x="551" y="77" on="0"/>
        <pt x="548" y="75" on="1"/>
        <pt x="530" y="62" on="0"/>
        <pt x="510" y="54" on="1"/>
        <pt x="508" y="53" on="0"/>
        <pt x="497" y="47" on="0"/>
        <pt x="480" y="38" on="0"/>
        <pt x="473" y="34" on="1"/>
        <pt x="451" y="11" on="0"/>
        <pt x="435" y="-8" on="1"/>
        <pt x="385" y="-68" on="0"/>
        <pt x="360" y="-68" on="0"/>
        <pt x="360" y="-78" on="1"/>
        <pt x="360" y="-86" on="0"/>
        <pt x="293" y="-156" on="1"/>
        <pt x="220" y="-231" on="0"/>
        <pt x="210" y="-247" on="1"/>
        <pt x="194" y="-272" on="0"/>
        <pt x="120" y="-285" on="0"/>
        <pt x="95" y="-269" on="1"/>
        <pt x="80" y="-260" on="0"/>
        <pt x="75" y="-243" on="0"/>
        <pt x="87" y="-207" on="0"/>
        <pt x="88" y="-199" on="1"/>
        <pt x="93" y="-175" on="0"/>
        <pt x="148" y="-123" on="1"/>
        <pt x="203" y="-71" on="0"/>
        <pt x="203" y="-58" on="1"/>
        <pt x="203" y="-46" on="0"/>
        <pt x="225" y="11" on="1"/>
        <pt x="244" y="55" on="0"/>
        <pt x="241" y="81" on="0"/>
        <pt x="218" y="81" on="1"/>
        <pt x="198" y="81" on="0"/>
        <pt x="170" y="108" on="1"/>
        <pt x="152" y="128" on="0"/>
        <pt x="142" y="160" on="0"/>
        <pt x="142" y="213" on="1"/>
        <pt x="142" y="289" on="0"/>
        <pt x="162" y="331" on="1"/>
        <pt x="177" y="362" on="0"/>
        <pt x="211" y="478" on="0"/>
        <pt x="219" y="521" on="1"/>
        <pt x="223" y="546" on="0"/>
        <pt x="232" y="560" on="1"/>
        <pt x="240" y="570" on="0"/>
        <pt x="248" y="649" on="0"/>
        <pt x="258" y="660" on="0"/>
        <pt x="249" y="670" on="1"/>
        <pt x="240" y="682" on="0"/>
        <pt x="216" y="670" on="1"/>
        <pt x="196" y="663" on="0"/>
        <pt x="194" y="640" on="0"/>
        <pt x="211" y="624" on="1"/>
        <pt x="243" y="595" on="0"/>
        <pt x="193" y="521" on="1"/>
        <pt x="163" y="478" on="0"/>
        <pt x="130" y="459" on="0"/>
        <pt x="94" y="465" on="1"/>
        <pt x="51" y="470" on="0"/>
        <pt x="41" y="479" on="1"/>
        <pt x="29" y="492" on="0"/>
        <pt x="41" y="585" on="0"/>
        <pt x="59" y="612" on="1"/>
        <pt x="86" y="652" on="0"/>
        <pt x="186" y="750" on="0"/>
        <pt x="200" y="750" on="1"/>
        <pt x="216" y="750" on="0"/>
        <pt x="231" y="759" on="1"/>
        <pt x="244" y="768" on="0"/>
        <pt x="260" y="765" on="0"/>
        <pt x="285" y="752" on="1"/>
        <pt x="315" y="738" on="0"/>
        <pt x="342" y="693" on="0"/>
        <pt x="346" y="645" on="1"/>
        <pt x="350" y="614" on="0"/>
        <pt x="342" y="562" on="0"/>
        <pt x="323" y="507" on="1"/>
        <pt x="293" y="416" on="0"/>
        <pt x="280" y="387" on="0"/>
        <pt x="270" y="356" on="1"/>
        <pt x="260" y="325" on="0"/>
        <pt x="250" y="292" on="1"/>
        <pt x="240" y="260" on="0"/>
        <pt x="235" y="244" on="1"/>
        <pt x="222" y="209" on="0"/>
        <pt x="223" y="182" on="0"/>
        <pt x="241" y="172" on="1"/>
        <pt x="253" y="166" on="0"/>
        <pt x="268" y="169" on="0"/>
        <pt x="281" y="181" on="1"/>
        <pt x="296" y="196" on="0"/>
        <pt x="335" y="231" on="1"/>
        <pt x="371" y="264" on="0"/>
        <pt x="371" y="290" on="0"/>
        <pt x="405" y="322" on="0"/>
        <pt x="412" y="359" on="1"/>
        <pt x="418" y="395" on="0"/>
        <pt x="431" y="407" on="1"/>
        <pt x="445" y="416" on="0"/>
        <pt x="445" y="429" on="1"/>
        <pt x="445" y="440" on="0"/>
        <pt x="458" y="446" on="1"/>
        <pt x="472" y="451" on="0"/>
        <pt x="472" y="474" on="1"/>
        <pt x="472" y="498" on="0"/>
        <pt x="491" y="508" on="0"/>
        <pt x="491" y="554" on="1"/>
        <pt x="491" y="582" on="0"/>
        <pt x="504" y="615" on="0"/>
        <pt x="528" y="643" on="1"/>
        <pt x="565" y="689" on="0"/>
        <pt x="565" y="705" on="1"/>
        <pt x="565" y="715" on="0"/>
        <pt x="609" y="759" on="0"/>
        <pt x="620" y="759" on="1"/>
        <pt x="625" y="759" on="0"/>
      </contour>
      <contour>
        <pt x="170" y="612" on="0"/>
        <pt x="185" y="632" on="0"/>
        <pt x="185" y="640" on="1"/>
        <pt x="185" y="647" on="0"/>
        <pt x="166" y="647" on="0"/>
        <pt x="146" y="608" on="0"/>
        <pt x="152" y="602" on="1"/>
        <pt x="154" y="599" on="0"/>
      </contour>
    </TTGlyph>
    <TTGlyph name="Z" xMin="31" yMin="-279" xMax="735" yMax="826">
      <contour>
        <pt x="235" y="769" on="1"/>
        <pt x="294" y="798" on="0"/>
        <pt x="344" y="813" on="1"/>
        <pt x="394" y="826" on="0"/>
        <pt x="400" y="823" on="1"/>
        <pt x="470" y="794" on="0"/>
        <pt x="504" y="749" on="0"/>
        <pt x="504" y="690" on="1"/>
        <pt x="504" y="624" on="0"/>
        <pt x="485" y="582" on="1"/>
        <pt x="467" y="540" on="1"/>
        <pt x="505" y="517" on="1"/>
        <pt x="525" y="505" on="0"/>
        <pt x="547" y="482" on="0"/>
        <pt x="561" y="445" on="0"/>
        <pt x="560" y="420" on="1"/>
        <pt x="559" y="393" on="0"/>
        <pt x="557" y="357" on="1"/>
        <pt x="551" y="288" on="0"/>
        <pt x="525" y="228" on="1"/>
        <pt x="500" y="175" on="0"/>
        <pt x="509" y="166" on="1"/>
        <pt x="516" y="159" on="0"/>
        <pt x="590" y="181" on="0"/>
        <pt x="613" y="196" on="1"/>
        <pt x="637" y="211" on="0"/>
        <pt x="671" y="223" on="1"/>
        <pt x="692" y="231" on="0"/>
        <pt x="711" y="231" on="0"/>
        <pt x="719" y="224" on="1"/>
        <pt x="735" y="211" on="0"/>
        <pt x="735" y="200" on="1"/>
        <pt x="735" y="185" on="0"/>
        <pt x="661" y="128" on="0"/>
        <pt x="623" y="116" on="1"/>
        <pt x="572" y="99" on="0"/>
        <pt x="557" y="87" on="1"/>
        <pt x="543" y="74" on="0"/>
        <pt x="535" y="74" on="1"/>
        <pt x="529" y="74" on="0"/>
        <pt x="480" y="53" on="1"/>
        <pt x="448" y="38" on="0"/>
        <pt x="422" y="13" on="0"/>
        <pt x="410" y="-15" on="1"/>
        <pt x="388" y="-61" on="0"/>
        <pt x="336" y="-110" on="1"/>
        <pt x="279" y="-165" on="0"/>
        <pt x="124" y="-279" on="0"/>
        <pt x="105" y="-279" on="1"/>
        <pt x="86" y="-279" on="0"/>
        <pt x="57" y="-244" on="1"/>
        <pt x="31" y="-214" on="0"/>
        <pt x="37" y="-161" on="0"/>
        <pt x="68" y="-111" on="1"/>
        <pt x="91" y="-74" on="0"/>
        <pt x="200" y="9" on="0"/>
        <pt x="227" y="9" on="1"/>
        <pt x="235" y="9" on="0"/>
        <pt x="285" y="33" on="1"/>
        <pt x="307" y="45" on="0"/>
        <pt x="331" y="63" on="0"/>
        <pt x="341" y="77" on="1"/>
        <pt x="351" y="91" on="0"/>
        <pt x="365" y="119" on="1"/>
        <pt x="404" y="194" on="0"/>
        <pt x="447" y="334" on="0"/>
        <pt x="443" y="369" on="1"/>
        <pt x="438" y="412" on="0"/>
        <pt x="431" y="418" on="1"/>
        <pt x="422" y="427" on="0"/>
        <pt x="327" y="356" on="0"/>
        <pt x="283" y="306" on="1"/>
        <pt x="228" y="241" on="0"/>
        <pt x="165" y="214" on="0"/>
        <pt x="145" y="244" on="1"/>
        <pt x="129" y="269" on="0"/>
        <pt x="158" y="363" on="0"/>
        <pt x="192" y="394" on="1"/>
        <pt x="229" y="427" on="0"/>
        <pt x="239" y="427" on="1"/>
        <pt x="245" y="427" on="0"/>
        <pt x="307" y="513" on="0"/>
        <pt x="337" y="565" on="1"/>
        <pt x="367" y="616" on="0"/>
        <pt x="372" y="636" on="1"/>
        <pt x="393" y="708" on="0"/>
        <pt x="360" y="728" on="1"/>
        <pt x="351" y="735" on="0"/>
        <pt x="313" y="724" on="0"/>
        <pt x="272" y="701" on="0"/>
        <pt x="228" y="665" on="0"/>
        <pt x="216" y="648" on="1"/>
        <pt x="190" y="611" on="0"/>
        <pt x="141" y="582" on="0"/>
        <pt x="125" y="595" on="1"/>
        <pt x="97" y="619" on="0"/>
        <pt x="138" y="674" on="1"/>
        <pt x="163" y="708" on="0"/>
        <pt x="170" y="726" on="1"/>
        <pt x="175" y="740" on="0"/>
      </contour>
    </TTGlyph>
    <TTGlyph name="a" xMin="2" yMin="-33" xMax="538" yMax="365">
      <contour>
        <pt x="502" y="96" on="1"/>
        <pt x="516" y="108" on="0"/>
        <pt x="537" y="103" on="0"/>
        <pt x="537" y="85" on="1"/>
        <pt x="538" y="80" on="0"/>
        <pt x="534" y="70" on="0"/>
        <pt x="527" y="62" on="0"/>
        <pt x="520" y="54" on="0"/>
        <pt x="510" y="46" on="0"/>
        <pt x="503" y="41" on="0"/>
        <pt x="491" y="34" on="0"/>
        <pt x="489" y="32" on="1"/>
        <pt x="474" y="22" on="0"/>
        <pt x="458" y="15" on="1"/>
        <pt x="456" y="14" on="0"/>
        <pt x="439" y="5" on="1"/>
        <pt x="434" y="1" on="1"/>
        <pt x="413" y="-19" on="0"/>
        <pt x="374" y="-24" on="1"/>
        <pt x="349" y="-27" on="0"/>
        <pt x="321" y="-22" on="0"/>
        <pt x="297" y="-11" on="1"/>
        <pt x="261" y="7" on="0"/>
        <pt x="249" y="17" on="1"/>
        <pt x="242" y="24" on="0"/>
        <pt x="230" y="22" on="0"/>
        <pt x="216" y="10" on="1"/>
        <pt x="192" y="-7" on="0"/>
        <pt x="135" y="-26" on="0"/>
        <pt x="101" y="-29" on="1"/>
        <pt x="35" y="-33" on="0"/>
        <pt x="15" y="-2" on="1"/>
        <pt x="2" y="17" on="0"/>
        <pt x="4" y="130" on="0"/>
        <pt x="18" y="154" on="1"/>
        <pt x="29" y="176" on="0"/>
        <pt x="36" y="185" on="1"/>
        <pt x="43" y="196" on="0"/>
        <pt x="49" y="205" on="1"/>
        <pt x="55" y="214" on="0"/>
        <pt x="71" y="232" on="1"/>
        <pt x="120" y="293" on="0"/>
        <pt x="148" y="316" on="1"/>
        <pt x="170" y="333" on="0"/>
        <pt x="229" y="358" on="0"/>
        <pt x="295" y="365" on="0"/>
        <pt x="320" y="352" on="1"/>
        <pt x="350" y="337" on="0"/>
        <pt x="364" y="261" on="0"/>
        <pt x="347" y="189" on="0"/>
        <pt x="332" y="158" on="1"/>
        <pt x="318" y="128" on="0"/>
        <pt x="305" y="58" on="0"/>
        <pt x="312" y="47" on="1"/>
        <pt x="327" y="17" on="0"/>
        <pt x="410" y="43" on="1"/>
        <pt x="413" y="44" on="0"/>
        <pt x="416" y="44" on="1"/>
        <pt x="421" y="46" on="0"/>
        <pt x="423" y="47" on="1"/>
        <pt x="473" y="73" on="0"/>
      </contour>
      <contour>
        <pt x="265" y="243" on="1"/>
        <pt x="273" y="247" on="0"/>
        <pt x="275" y="254" on="0"/>
        <pt x="270" y="259" on="1"/>
        <pt x="261" y="269" on="0"/>
        <pt x="226" y="275" on="0"/>
        <pt x="210" y="270" on="1"/>
        <pt x="193" y="267" on="0"/>
        <pt x="127" y="212" on="0"/>
        <pt x="115" y="192" on="1"/>
        <pt x="100" y="169" on="0"/>
        <pt x="89" y="151" on="1"/>
        <pt x="75" y="132" on="0"/>
        <pt x="66" y="60" on="0"/>
        <pt x="74" y="50" on="1"/>
        <pt x="82" y="40" on="0"/>
        <pt x="136" y="40" on="0"/>
        <pt x="159" y="49" on="1"/>
        <pt x="182" y="59" on="0"/>
        <pt x="193" y="81" on="1"/>
        <pt x="212" y="119" on="0"/>
        <pt x="223" y="141" on="1"/>
        <pt x="243" y="176" on="0"/>
        <pt x="243" y="189" on="1"/>
        <pt x="243" y="197" on="0"/>
        <pt x="257" y="213" on="0"/>
        <pt x="254" y="222" on="1"/>
        <pt x="250" y="235" on="0"/>
      </contour>
    </TTGlyph>
    <TTGlyph name="ampersand" xMin="27" yMin="-68" xMax="610" yMax="696">
      <contour>
        <pt x="298" y="188" on="1"/>
        <pt x="301" y="184" on="0"/>
        <pt x="373" y="101" on="1"/>
        <pt x="379" y="119" on="0"/>
        <pt x="401" y="173" on="0"/>
        <pt x="413" y="210" on="0"/>
        <pt x="416" y="227" on="1"/>
        <pt x="423" y="276" on="0"/>
        <pt x="388" y="307" on="0"/>
        <pt x="332" y="301" on="1"/>
        <pt x="324" y="346" on="0"/>
        <pt x="365" y="356" on="1"/>
        <pt x="366" y="356" on="0"/>
        <pt x="372" y="357" on="1"/>
        <pt x="385" y="357" on="0"/>
        <pt x="440" y="355" on="0"/>
        <pt x="480" y="358" on="0"/>
        <pt x="498" y="363" on="1"/>
        <pt x="511" y="367" on="0"/>
        <pt x="540" y="383" on="0"/>
        <pt x="563" y="399" on="0"/>
        <pt x="598" y="424" on="0"/>
        <pt x="610" y="432" on="1"/>
        <pt x="608" y="402" on="0"/>
        <pt x="581" y="358" on="0"/>
        <pt x="553" y="341" on="0"/>
        <pt x="503" y="318" on="0"/>
        <pt x="494" y="312" on="1"/>
        <pt x="449" y="142" on="0"/>
        <pt x="426" y="54" on="1"/>
        <pt x="435" y="46" on="0"/>
        <pt x="475" y="18" on="0"/>
        <pt x="499" y="-1" on="0"/>
        <pt x="521" y="-42" on="0"/>
        <pt x="522" y="-68" on="1"/>
        <pt x="514" y="-65" on="0"/>
        <pt x="482" y="-59" on="0"/>
        <pt x="461" y="-53" on="0"/>
        <pt x="452" y="-48" on="1"/>
        <pt x="450" y="-47" on="0"/>
        <pt x="445" y="-44" on="1"/>
        <pt x="416" y="-28" on="0"/>
        <pt x="386" y="-16" on="0"/>
        <pt x="332" y="-15" on="0"/>
        <pt x="304" y="-28" on="1"/>
        <pt x="254" y="-48" on="0"/>
        <pt x="146" y="-35" on="0"/>
        <pt x="93" y="-7" on="1"/>
        <pt x="58" y="11" on="0"/>
        <pt x="27" y="80" on="0"/>
        <pt x="38" y="120" on="1"/>
        <pt x="60" y="200" on="0"/>
        <pt x="96" y="266" on="1"/>
        <pt x="125" y="320" on="0"/>
        <pt x="101" y="372" on="1"/>
        <pt x="75" y="428" on="0"/>
        <pt x="67" y="470" on="1"/>
        <pt x="53" y="538" on="0"/>
        <pt x="125" y="663" on="0"/>
        <pt x="190" y="687" on="1"/>
        <pt x="217" y="696" on="0"/>
        <pt x="282" y="658" on="0"/>
        <pt x="295" y="624" on="1"/>
        <pt x="338" y="513" on="0"/>
        <pt x="274" y="416" on="1"/>
        <pt x="271" y="412" on="0"/>
        <pt x="265" y="402" on="1"/>
        <pt x="244" y="372" on="0"/>
        <pt x="228" y="347" on="0"/>
        <pt x="212" y="312" on="0"/>
        <pt x="211" y="302" on="0"/>
        <pt x="220" y="277" on="0"/>
        <pt x="231" y="265" on="0"/>
        <pt x="246" y="248" on="1"/>
        <pt x="277" y="214" on="0"/>
      </contour>
      <contour>
        <pt x="336" y="42" on="1"/>
        <pt x="304" y="77" on="0"/>
        <pt x="186" y="205" on="0"/>
        <pt x="161" y="233" on="1"/>
        <pt x="154" y="218" on="0"/>
        <pt x="133" y="173" on="0"/>
        <pt x="121" y="144" on="0"/>
        <pt x="118" y="131" on="1"/>
        <pt x="99" y="50" on="0"/>
        <pt x="188" y="19" on="1"/>
        <pt x="202" y="14" on="0"/>
        <pt x="230" y="12" on="0"/>
        <pt x="261" y="18" on="0"/>
        <pt x="285" y="25" on="0"/>
        <pt x="324" y="38" on="0"/>
      </contour>
      <contour>
        <pt x="170" y="393" on="1"/>
        <pt x="215" y="460" on="0"/>
        <pt x="228" y="561" on="0"/>
        <pt x="198" y="610" on="1"/>
        <pt x="133" y="576" on="0"/>
        <pt x="118" y="460" on="0"/>
      </contour>
    </TTGlyph>
    <TTGlyph name="asciicircum" xMin="33" yMin="526" xMax="401" yMax="852">
      <contour>
        <pt x="333" y="571" on="1"/>
        <pt x="321" y="588" on="0"/>
        <pt x="297" y="626" on="0"/>
        <pt x="258" y="692" on="0"/>
        <pt x="249" y="708" on="1"/>
        <pt x="167" y="569" on="0"/>
        <pt x="162" y="560" on="1"/>
        <pt x="149" y="539" on="0"/>
        <pt x="55" y="526" on="0"/>
        <pt x="40" y="545" on="1"/>
        <pt x="34" y="552" on="0"/>
        <pt x="33" y="582" on="0"/>
        <pt x="38" y="591" on="1"/>
        <pt x="41" y="596" on="0"/>
        <pt x="47" y="605" on="0"/>
        <pt x="59" y="616" on="0"/>
        <pt x="63" y="620" on="0"/>
        <pt x="79" y="633" on="0"/>
        <pt x="80" y="634" on="1"/>
        <pt x="163" y="702" on="0"/>
        <pt x="198" y="812" on="1"/>
        <pt x="201" y="820" on="0"/>
        <pt x="212" y="838" on="0"/>
        <pt x="227" y="851" on="0"/>
        <pt x="233" y="851" on="1"/>
        <pt x="243" y="852" on="0"/>
        <pt x="270" y="832" on="0"/>
        <pt x="276" y="820" on="1"/>
        <pt x="308" y="764" on="0"/>
        <pt x="392" y="603" on="1"/>
        <pt x="401" y="587" on="0"/>
        <pt x="392" y="559" on="0"/>
        <pt x="376" y="554" on="1"/>
        <pt x="370" y="552" on="0"/>
        <pt x="353" y="556" on="0"/>
        <pt x="337" y="566" on="0"/>
      </contour>
    </TTGlyph>
    <TTGlyph name="asciitilde" xMin="33" yMin="364" xMax="489" yMax="548">
      <contour>
        <pt x="36" y="445" on="1"/>
        <pt x="49" y="455" on="0"/>
        <pt x="86" y="498" on="0"/>
        <pt x="113" y="527" on="0"/>
        <pt x="161" y="548" on="0"/>
        <pt x="189" y="546" on="1"/>
        <pt x="196" y="543" on="0"/>
        <pt x="216" y="536" on="0"/>
        <pt x="230" y="530" on="0"/>
        <pt x="249" y="523" on="0"/>
        <pt x="256" y="519" on="1"/>
        <pt x="271" y="511" on="0"/>
        <pt x="324" y="473" on="1"/>
        <pt x="373" y="438" on="0"/>
        <pt x="409" y="482" on="1"/>
        <pt x="411" y="484" on="0"/>
        <pt x="416" y="492" on="0"/>
        <pt x="420" y="498" on="0"/>
        <pt x="425" y="504" on="0"/>
        <pt x="428" y="505" on="1"/>
        <pt x="434" y="506" on="0"/>
        <pt x="489" y="514" on="1"/>
        <pt x="488" y="504" on="0"/>
        <pt x="489" y="486" on="0"/>
        <pt x="487" y="467" on="0"/>
        <pt x="483" y="460" on="1"/>
        <pt x="461" y="419" on="0"/>
        <pt x="430" y="380" on="0"/>
        <pt x="386" y="364" on="0"/>
        <pt x="337" y="375" on="0"/>
        <pt x="293" y="392" on="1"/>
        <pt x="270" y="401" on="0"/>
        <pt x="229" y="429" on="1"/>
        <pt x="186" y="458" on="0"/>
        <pt x="141" y="456" on="0"/>
        <pt x="104" y="424" on="1"/>
        <pt x="103" y="423" on="0"/>
        <pt x="87" y="406" on="0"/>
        <pt x="82" y="404" on="1"/>
        <pt x="78" y="403" on="0"/>
        <pt x="37" y="397" on="1"/>
        <pt x="37" y="402" on="0"/>
        <pt x="33" y="428" on="0"/>
        <pt x="33" y="438" on="0"/>
      </contour>
    </TTGlyph>
    <TTGlyph name="asterisk" xMin="33" yMin="345" xMax="464" yMax="726">
      <contour>
        <pt x="104" y="495" on="1"/>
        <pt x="99" y="500" on="0"/>
        <pt x="76" y="505" on="0"/>
        <pt x="57" y="508" on="0"/>
        <pt x="38" y="520" on="0"/>
        <pt x="33" y="541" on="0"/>
        <pt x="36" y="562" on="1"/>
        <pt x="52" y="563" on="0"/>
        <pt x="110" y="567" on="0"/>
        <pt x="126" y="568" on="1"/>
        <pt x="122" y="593" on="0"/>
        <pt x="126" y="623" on="0"/>
        <pt x="147" y="657" on="0"/>
        <pt x="169" y="679" on="0"/>
        <pt x="196" y="711" on="0"/>
        <pt x="204" y="726" on="1"/>
        <pt x="215" y="719" on="0"/>
        <pt x="258" y="694" on="0"/>
        <pt x="271" y="688" on="1"/>
        <pt x="247" y="632" on="0"/>
        <pt x="236" y="603" on="1"/>
        <pt x="265" y="619" on="0"/>
        <pt x="333" y="616" on="0"/>
        <pt x="378" y="600" on="0"/>
        <pt x="440" y="582" on="0"/>
        <pt x="464" y="583" on="1"/>
        <pt x="464" y="580" on="0"/>
        <pt x="463" y="566" on="0"/>
        <pt x="463" y="563" on="1"/>
        <pt x="437" y="558" on="0"/>
        <pt x="320" y="535" on="0"/>
        <pt x="284" y="528" on="1"/>
        <pt x="335" y="480" on="0"/>
        <pt x="339" y="477" on="1"/>
        <pt x="340" y="476" on="0"/>
        <pt x="367" y="456" on="0"/>
        <pt x="372" y="449" on="1"/>
        <pt x="376" y="442" on="0"/>
        <pt x="377" y="421" on="0"/>
        <pt x="373" y="414" on="1"/>
        <pt x="370" y="408" on="0"/>
        <pt x="349" y="400" on="0"/>
        <pt x="342" y="402" on="1"/>
        <pt x="333" y="404" on="0"/>
        <pt x="261" y="428" on="1"/>
        <pt x="250" y="367" on="0"/>
        <pt x="246" y="349" on="1"/>
        <pt x="233" y="345" on="0"/>
        <pt x="210" y="352" on="0"/>
        <pt x="198" y="357" on="0"/>
        <pt x="186" y="374" on="0"/>
        <pt x="181" y="386" on="0"/>
        <pt x="173" y="406" on="0"/>
        <pt x="170" y="411" on="1"/>
        <pt x="160" y="406" on="0"/>
        <pt x="136" y="397" on="0"/>
        <pt x="103" y="383" on="0"/>
        <pt x="90" y="378" on="1"/>
        <pt x="97" y="442" on="0"/>
      </contour>
    </TTGlyph>
    <TTGlyph name="asterisk.alt1" xMin="25" yMin="145" xMax="459" yMax="565">
      <contour>
        <pt x="98" y="495" on="1"/>
        <pt x="106" y="502" on="0"/>
        <pt x="132" y="506" on="0"/>
        <pt x="175" y="507" on="0"/>
        <pt x="187" y="509" on="1"/>
        <pt x="191" y="512" on="0"/>
        <pt x="209" y="529" on="0"/>
        <pt x="225" y="541" on="0"/>
        <pt x="234" y="543" on="1"/>
        <pt x="315" y="565" on="0"/>
        <pt x="378" y="563" on="0"/>
        <pt x="439" y="535" on="1"/>
        <pt x="459" y="434" on="0"/>
        <pt x="382" y="266" on="0"/>
        <pt x="299" y="184" on="1"/>
        <pt x="258" y="145" on="0"/>
        <pt x="210" y="181" on="1"/>
        <pt x="173" y="209" on="0"/>
        <pt x="140" y="219" on="1"/>
        <pt x="108" y="230" on="0"/>
        <pt x="63" y="266" on="0"/>
        <pt x="38" y="317" on="0"/>
        <pt x="34" y="351" on="1"/>
        <pt x="25" y="426" on="0"/>
      </contour>
      <contour>
        <pt x="266" y="252" on="1"/>
        <pt x="348" y="317" on="0"/>
        <pt x="388" y="452" on="0"/>
        <pt x="343" y="520" on="1"/>
        <pt x="288" y="459" on="0"/>
        <pt x="285" y="455" on="1"/>
        <pt x="280" y="449" on="0"/>
        <pt x="227" y="375" on="1"/>
        <pt x="202" y="405" on="0"/>
        <pt x="153" y="465" on="1"/>
        <pt x="127" y="435" on="0"/>
        <pt x="126" y="434" on="1"/>
        <pt x="92" y="402" on="0"/>
        <pt x="82" y="360" on="0"/>
        <pt x="98" y="324" on="1"/>
        <pt x="115" y="286" on="0"/>
        <pt x="158" y="264" on="0"/>
        <pt x="203" y="267" on="1"/>
        <pt x="212" y="268" on="0"/>
        <pt x="231" y="263" on="0"/>
        <pt x="258" y="254" on="0"/>
      </contour>
    </TTGlyph>
    <TTGlyph name="asterisk.alt10" xMin="33" yMin="-7" xMax="929" yMax="713">
      <contour>
        <pt x="89" y="392" on="1"/>
        <pt x="76" y="380" on="1"/>
        <pt x="67" y="371" on="0"/>
        <pt x="61" y="370" on="0"/>
        <pt x="54" y="376" on="1"/>
        <pt x="48" y="381" on="0"/>
        <pt x="46" y="392" on="0"/>
        <pt x="48" y="405" on="1"/>
        <pt x="49" y="418" on="0"/>
        <pt x="48" y="427" on="0"/>
        <pt x="41" y="430" on="1"/>
        <pt x="33" y="435" on="0"/>
        <pt x="33" y="439" on="1"/>
        <pt x="33" y="447" on="0"/>
        <pt x="51" y="460" on="0"/>
        <pt x="62" y="460" on="1"/>
        <pt x="67" y="460" on="0"/>
        <pt x="73" y="461" on="0"/>
        <pt x="79" y="466" on="0"/>
        <pt x="82" y="470" on="1"/>
        <pt x="85" y="474" on="0"/>
        <pt x="89" y="480" on="1"/>
        <pt x="94" y="487" on="0"/>
        <pt x="99" y="504" on="0"/>
        <pt x="104" y="523" on="0"/>
        <pt x="107" y="530" on="1"/>
        <pt x="109" y="535" on="0"/>
        <pt x="120" y="552" on="0"/>
        <pt x="122" y="556" on="1"/>
        <pt x="127" y="561" on="0"/>
        <pt x="124" y="602" on="0"/>
        <pt x="125" y="607" on="1"/>
        <pt x="126" y="611" on="0"/>
        <pt x="138" y="645" on="0"/>
        <pt x="140" y="645" on="1"/>
        <pt x="117" y="639" on="0"/>
        <pt x="106" y="642" on="1"/>
        <pt x="90" y="648" on="0"/>
        <pt x="91" y="668" on="0"/>
        <pt x="105" y="673" on="1"/>
        <pt x="111" y="676" on="0"/>
        <pt x="144" y="675" on="0"/>
        <pt x="150" y="680" on="1"/>
        <pt x="161" y="687" on="0"/>
        <pt x="176" y="697" on="1"/>
        <pt x="191" y="707" on="0"/>
        <pt x="210" y="707" on="0"/>
        <pt x="220" y="694" on="0"/>
        <pt x="217" y="685" on="1"/>
        <pt x="214" y="673" on="0"/>
        <pt x="224" y="674" on="1"/>
        <pt x="231" y="675" on="0"/>
        <pt x="244" y="681" on="1"/>
        <pt x="258" y="689" on="0"/>
        <pt x="295" y="690" on="0"/>
        <pt x="308" y="684" on="1"/>
        <pt x="320" y="677" on="0"/>
        <pt x="330" y="662" on="1"/>
        <pt x="338" y="651" on="0"/>
        <pt x="340" y="639" on="0"/>
        <pt x="336" y="624" on="1"/>
        <pt x="327" y="578" on="0"/>
        <pt x="278" y="534" on="1"/>
        <pt x="253" y="513" on="1"/>
        <pt x="263" y="498" on="1"/>
        <pt x="271" y="483" on="0"/>
        <pt x="274" y="461" on="1"/>
        <pt x="276" y="452" on="0"/>
        <pt x="275" y="446" on="1"/>
        <pt x="274" y="439" on="0"/>
        <pt x="272" y="434" on="1"/>
        <pt x="270" y="430" on="0"/>
        <pt x="264" y="420" on="1"/>
        <pt x="246" y="394" on="0"/>
        <pt x="186" y="360" on="0"/>
        <pt x="158" y="360" on="1"/>
        <pt x="144" y="360" on="0"/>
        <pt x="136" y="363" on="1"/>
        <pt x="127" y="365" on="0"/>
        <pt x="113" y="376" on="1"/>
      </contour>
      <contour>
        <pt x="255" y="649" on="1"/>
        <pt x="226" y="653" on="0"/>
        <pt x="161" y="584" on="0"/>
        <pt x="163" y="559" on="1"/>
        <pt x="166" y="526" on="0"/>
        <pt x="212" y="541" on="1"/>
        <pt x="256" y="555" on="0"/>
        <pt x="277" y="586" on="1"/>
        <pt x="283" y="595" on="0"/>
        <pt x="284" y="603" on="1"/>
        <pt x="286" y="624" on="0"/>
        <pt x="276" y="636" on="1"/>
        <pt x="267" y="647" on="0"/>
      </contour>
      <contour>
        <pt x="145" y="490" on="1"/>
        <pt x="135" y="486" on="0"/>
        <pt x="126" y="416" on="0"/>
        <pt x="134" y="408" on="1"/>
        <pt x="140" y="402" on="0"/>
        <pt x="160" y="399" on="0"/>
        <pt x="180" y="405" on="0"/>
        <pt x="197" y="414" on="0"/>
        <pt x="204" y="419" on="1"/>
        <pt x="232" y="440" on="0"/>
        <pt x="232" y="460" on="1"/>
        <pt x="232" y="481" on="0"/>
        <pt x="224" y="489" on="1"/>
        <pt x="219" y="493" on="0"/>
        <pt x="202" y="494" on="0"/>
        <pt x="179" y="491" on="0"/>
        <pt x="171" y="492" on="1"/>
        <pt x="151" y="494" on="0"/>
      </contour>
      <contour>
        <pt x="923" y="69" on="1"/>
        <pt x="928" y="69" on="0"/>
        <pt x="929" y="62" on="0"/>
        <pt x="925" y="53" on="0"/>
        <pt x="921" y="46" on="0"/>
        <pt x="920" y="44" on="1"/>
        <pt x="910" y="33" on="0"/>
        <pt x="889" y="23" on="1"/>
        <pt x="886" y="21" on="0"/>
        <pt x="870" y="13" on="0"/>
        <pt x="861" y="8" on="0"/>
        <pt x="844" y="1" on="0"/>
        <pt x="834" y="2" on="0"/>
        <pt x="826" y="2" on="1"/>
        <pt x="797" y="10" on="0"/>
        <pt x="783" y="41" on="1"/>
        <pt x="773" y="63" on="0"/>
        <pt x="785" y="104" on="1"/>
        <pt x="792" y="127" on="0"/>
        <pt x="791" y="128" on="1"/>
        <pt x="789" y="130" on="0"/>
        <pt x="764" y="107" on="1"/>
        <pt x="740" y="85" on="0"/>
        <pt x="717" y="59" on="1"/>
        <pt x="693" y="33" on="0"/>
        <pt x="693" y="29" on="1"/>
        <pt x="693" y="26" on="0"/>
        <pt x="685" y="18" on="0"/>
        <pt x="673" y="14" on="0"/>
        <pt x="668" y="15" on="1"/>
        <pt x="661" y="15" on="0"/>
        <pt x="658" y="26" on="1"/>
        <pt x="655" y="25" on="0"/>
        <pt x="654" y="24" on="1"/>
        <pt x="647" y="20" on="0"/>
        <pt x="639" y="18" on="1"/>
        <pt x="630" y="15" on="1"/>
        <pt x="611" y="9" on="0"/>
        <pt x="590" y="10" on="1"/>
        <pt x="568" y="11" on="0"/>
        <pt x="559" y="17" on="1"/>
        <pt x="558" y="17" on="0"/>
        <pt x="542" y="26" on="0"/>
        <pt x="538" y="29" on="1"/>
        <pt x="534" y="33" on="0"/>
        <pt x="531" y="40" on="1"/>
        <pt x="530" y="39" on="0"/>
        <pt x="518" y="31" on="1"/>
        <pt x="516" y="29" on="0"/>
        <pt x="506" y="23" on="0"/>
        <pt x="503" y="21" on="1"/>
        <pt x="492" y="14" on="0"/>
        <pt x="481" y="13" on="1"/>
        <pt x="471" y="11" on="0"/>
        <pt x="465" y="13" on="1"/>
        <pt x="460" y="14" on="0"/>
        <pt x="450" y="21" on="1"/>
        <pt x="433" y="32" on="0"/>
        <pt x="425" y="45" on="1"/>
        <pt x="422" y="42" on="0"/>
        <pt x="409" y="33" on="1"/>
        <pt x="406" y="31" on="0"/>
        <pt x="396" y="24" on="0"/>
        <pt x="393" y="22" on="1"/>
        <pt x="382" y="14" on="0"/>
        <pt x="371" y="13" on="1"/>
        <pt x="360" y="11" on="0"/>
        <pt x="354" y="13" on="1"/>
        <pt x="348" y="14" on="0"/>
        <pt x="338" y="22" on="1"/>
        <pt x="312" y="41" on="0"/>
        <pt x="304" y="70" on="1"/>
        <pt x="263" y="27" on="0"/>
        <pt x="235" y="18" on="1"/>
        <pt x="213" y="8" on="0"/>
        <pt x="181" y="2" on="1"/>
        <pt x="127" y="-7" on="0"/>
        <pt x="94" y="16" on="1"/>
        <pt x="77" y="29" on="0"/>
        <pt x="73" y="66" on="0"/>
        <pt x="81" y="84" on="1"/>
        <pt x="83" y="92" on="0"/>
        <pt x="134" y="163" on="0"/>
        <pt x="139" y="156" on="1"/>
        <pt x="135" y="162" on="0"/>
        <pt x="114" y="184" on="0"/>
        <pt x="102" y="199" on="0"/>
        <pt x="93" y="221" on="0"/>
        <pt x="94" y="232" on="1"/>
        <pt x="96" y="251" on="0"/>
        <pt x="106" y="267" on="1"/>
        <pt x="115" y="282" on="0"/>
        <pt x="132" y="296" on="1"/>
        <pt x="144" y="306" on="0"/>
        <pt x="172" y="317" on="0"/>
        <pt x="200" y="323" on="1"/>
        <pt x="209" y="325" on="0"/>
        <pt x="211" y="327" on="1"/>
        <pt x="214" y="329" on="0"/>
        <pt x="213" y="335" on="1"/>
        <pt x="213" y="338" on="0"/>
        <pt x="214" y="341" on="1"/>
        <pt x="214" y="344" on="0"/>
        <pt x="216" y="347" on="1"/>
        <pt x="218" y="349" on="0"/>
        <pt x="221" y="352" on="1"/>
        <pt x="223" y="355" on="0"/>
        <pt x="226" y="356" on="1"/>
        <pt x="229" y="358" on="0"/>
        <pt x="232" y="359" on="1"/>
        <pt x="232" y="360" on="0"/>
        <pt x="240" y="363" on="0"/>
        <pt x="247" y="366" on="0"/>
        <pt x="254" y="369" on="0"/>
        <pt x="255" y="369" on="1"/>
        <pt x="257" y="369" on="0"/>
        <pt x="265" y="361" on="0"/>
        <pt x="270" y="359" on="1"/>
        <pt x="274" y="357" on="0"/>
        <pt x="277" y="353" on="0"/>
        <pt x="276" y="350" on="0"/>
        <pt x="274" y="346" on="0"/>
        <pt x="274" y="345" on="1"/>
        <pt x="274" y="343" on="0"/>
        <pt x="266" y="333" on="1"/>
        <pt x="259" y="324" on="0"/>
        <pt x="262" y="316" on="0"/>
        <pt x="274" y="313" on="1"/>
        <pt x="281" y="311" on="0"/>
        <pt x="295" y="301" on="0"/>
        <pt x="303" y="287" on="0"/>
        <pt x="304" y="275" on="0"/>
        <pt x="294" y="262" on="0"/>
        <pt x="281" y="253" on="0"/>
        <pt x="274" y="253" on="1"/>
        <pt x="256" y="253" on="0"/>
        <pt x="220" y="279" on="1"/>
        <pt x="200" y="293" on="0"/>
        <pt x="171" y="268" on="1"/>
        <pt x="157" y="258" on="0"/>
        <pt x="154" y="258" on="1"/>
        <pt x="152" y="258" on="0"/>
        <pt x="148" y="252" on="1"/>
        <pt x="145" y="246" on="0"/>
        <pt x="140" y="229" on="0"/>
        <pt x="139" y="220" on="1"/>
        <pt x="137" y="206" on="0"/>
        <pt x="152" y="194" on="0"/>
        <pt x="180" y="188" on="0"/>
        <pt x="185" y="185" on="1"/>
        <pt x="189" y="182" on="0"/>
        <pt x="193" y="177" on="1"/>
        <pt x="195" y="174" on="0"/>
        <pt x="210" y="165" on="0"/>
        <pt x="214" y="153" on="0"/>
        <pt x="214" y="144" on="0"/>
        <pt x="211" y="138" on="0"/>
        <pt x="203" y="133" on="0"/>
        <pt x="198" y="130" on="0"/>
        <pt x="186" y="126" on="0"/>
        <pt x="184" y="125" on="1"/>
        <pt x="178" y="122" on="0"/>
        <pt x="157" y="115" on="0"/>
        <pt x="148" y="111" on="0"/>
        <pt x="133" y="99" on="0"/>
        <pt x="126" y="90" on="1"/>
        <pt x="115" y="76" on="0"/>
        <pt x="116" y="67" on="1"/>
        <pt x="119" y="43" on="0"/>
        <pt x="177" y="38" on="0"/>
        <pt x="235" y="58" on="0"/>
        <pt x="258" y="70" on="1"/>
        <pt x="302" y="108" on="1"/>
        <pt x="302" y="110" on="0"/>
        <pt x="306" y="144" on="0"/>
        <pt x="307" y="151" on="0"/>
        <pt x="311" y="179" on="0"/>
        <pt x="314" y="190" on="0"/>
        <pt x="319" y="214" on="0"/>
        <pt x="323" y="229" on="0"/>
        <pt x="330" y="249" on="0"/>
        <pt x="334" y="257" on="1"/>
        <pt x="349" y="293" on="0"/>
        <pt x="369" y="310" on="1"/>
        <pt x="372" y="312" on="0"/>
        <pt x="400" y="343" on="0"/>
        <pt x="409" y="347" on="1"/>
        <pt x="421" y="354" on="0"/>
        <pt x="428" y="352" on="1"/>
        <pt x="439" y="349" on="0"/>
        <pt x="442" y="335" on="1"/>
        <pt x="443" y="331" on="0"/>
        <pt x="444" y="322" on="0"/>
        <pt x="443" y="313" on="0"/>
        <pt x="443" y="305" on="0"/>
        <pt x="440" y="294" on="0"/>
        <pt x="439" y="289" on="0"/>
        <pt x="435" y="276" on="0"/>
        <pt x="434" y="272" on="0"/>
        <pt x="429" y="258" on="0"/>
        <pt x="429" y="257" on="1"/>
        <pt x="421" y="234" on="0"/>
        <pt x="416" y="226" on="1"/>
        <pt x="412" y="222" on="0"/>
        <pt x="397" y="190" on="1"/>
        <pt x="381" y="159" on="0"/>
        <pt x="375" y="152" on="1"/>
        <pt x="366" y="144" on="0"/>
        <pt x="344" y="116" on="0"/>
        <pt x="337" y="104" on="1"/>
        <pt x="329" y="92" on="0"/>
        <pt x="329" y="89" on="1"/>
        <pt x="329" y="83" on="0"/>
        <pt x="339" y="64" on="1"/>
        <pt x="349" y="41" on="0"/>
        <pt x="364" y="41" on="1"/>
        <pt x="367" y="41" on="0"/>
        <pt x="384" y="46" on="1"/>
        <pt x="387" y="47" on="0"/>
        <pt x="396" y="52" on="1"/>
        <pt x="406" y="59" on="0"/>
        <pt x="415" y="67" on="1"/>
        <pt x="416" y="67" on="0"/>
        <pt x="416" y="67" on="1"/>
        <pt x="412" y="83" on="0"/>
        <pt x="422" y="151" on="0"/>
        <pt x="422" y="158" on="1"/>
        <pt x="426" y="222" on="0"/>
        <pt x="478" y="282" on="1"/>
        <pt x="499" y="306" on="0"/>
        <pt x="518" y="316" on="1"/>
        <pt x="530" y="322" on="0"/>
        <pt x="537" y="320" on="1"/>
        <pt x="547" y="318" on="0"/>
        <pt x="550" y="305" on="1"/>
        <pt x="551" y="301" on="0"/>
        <pt x="551" y="291" on="0"/>
        <pt x="551" y="284" on="0"/>
        <pt x="549" y="272" on="0"/>
        <pt x="548" y="267" on="0"/>
        <pt x="544" y="253" on="0"/>
        <pt x="543" y="250" on="0"/>
        <pt x="537" y="235" on="0"/>
        <pt x="537" y="234" on="1"/>
        <pt x="530" y="213" on="0"/>
        <pt x="525" y="207" on="1"/>
        <pt x="521" y="202" on="0"/>
        <pt x="506" y="174" on="1"/>
        <pt x="491" y="145" on="0"/>
        <pt x="485" y="139" on="1"/>
        <pt x="476" y="131" on="0"/>
        <pt x="466" y="119" on="1"/>
        <pt x="456" y="107" on="0"/>
        <pt x="448" y="95" on="1"/>
        <pt x="441" y="84" on="0"/>
        <pt x="441" y="82" on="1"/>
        <pt x="441" y="76" on="0"/>
        <pt x="450" y="59" on="1"/>
        <pt x="461" y="38" on="0"/>
        <pt x="475" y="38" on="1"/>
        <pt x="477" y="38" on="0"/>
        <pt x="494" y="43" on="1"/>
        <pt x="497" y="44" on="0"/>
        <pt x="513" y="53" on="0"/>
        <pt x="523" y="61" on="1"/>
        <pt x="518" y="82" on="0"/>
        <pt x="519" y="98" on="1"/>
        <pt x="521" y="111" on="0"/>
        <pt x="527" y="131" on="1"/>
        <pt x="535" y="155" on="0"/>
        <pt x="540" y="161" on="1"/>
        <pt x="547" y="169" on="0"/>
        <pt x="551" y="173" on="1"/>
        <pt x="569" y="188" on="0"/>
        <pt x="594" y="184" on="1"/>
        <pt x="619" y="179" on="0"/>
        <pt x="620" y="164" on="1"/>
        <pt x="621" y="149" on="0"/>
        <pt x="610" y="124" on="0"/>
        <pt x="581" y="87" on="0"/>
        <pt x="578" y="83" on="1"/>
        <pt x="563" y="59" on="0"/>
        <pt x="562" y="54" on="1"/>
        <pt x="562" y="50" on="0"/>
        <pt x="569" y="42" on="1"/>
        <pt x="573" y="38" on="0"/>
        <pt x="581" y="35" on="0"/>
        <pt x="591" y="36" on="1"/>
        <pt x="607" y="37" on="0"/>
        <pt x="625" y="40" on="1"/>
        <pt x="652" y="46" on="0"/>
        <pt x="663" y="53" on="1"/>
        <pt x="664" y="54" on="0"/>
        <pt x="666" y="55" on="1"/>
        <pt x="668" y="58" on="0"/>
        <pt x="668" y="58" on="1"/>
        <pt x="674" y="67" on="0"/>
        <pt x="704" y="130" on="0"/>
        <pt x="714" y="143" on="1"/>
        <pt x="716" y="145" on="0"/>
        <pt x="718" y="147" on="1"/>
        <pt x="722" y="151" on="0"/>
        <pt x="736" y="155" on="0"/>
        <pt x="741" y="153" on="1"/>
        <pt x="743" y="152" on="0"/>
        <pt x="736" y="136" on="0"/>
        <pt x="729" y="121" on="0"/>
        <pt x="730" y="120" on="1"/>
        <pt x="735" y="120" on="0"/>
        <pt x="745" y="127" on="0"/>
        <pt x="756" y="140" on="0"/>
        <pt x="759" y="142" on="1"/>
        <pt x="772" y="152" on="0"/>
        <pt x="809" y="168" on="0"/>
        <pt x="822" y="166" on="1"/>
        <pt x="825" y="165" on="0"/>
        <pt x="831" y="160" on="1"/>
        <pt x="839" y="153" on="0"/>
        <pt x="839" y="131" on="0"/>
        <pt x="832" y="122" on="1"/>
        <pt x="826" y="113" on="0"/>
        <pt x="809" y="65" on="0"/>
        <pt x="809" y="56" on="1"/>
        <pt x="809" y="50" on="0"/>
        <pt x="818" y="34" on="0"/>
        <pt x="830" y="24" on="0"/>
        <pt x="835" y="24" on="1"/>
        <pt x="848" y="24" on="0"/>
        <pt x="874" y="40" on="1"/>
        <pt x="898" y="54" on="0"/>
        <pt x="908" y="62" on="1"/>
        <pt x="919" y="70" on="0"/>
      </contour>
      <contour>
        <pt x="454" y="174" on="1"/>
        <pt x="449" y="156" on="0"/>
        <pt x="452" y="153" on="1"/>
        <pt x="454" y="152" on="0"/>
        <pt x="457" y="155" on="1"/>
        <pt x="461" y="160" on="0"/>
        <pt x="466" y="168" on="1"/>
        <pt x="471" y="176" on="0"/>
        <pt x="477" y="188" on="1"/>
        <pt x="487" y="208" on="0"/>
        <pt x="487" y="210" on="1"/>
        <pt x="487" y="211" on="0"/>
        <pt x="497" y="232" on="1"/>
        <pt x="517" y="273" on="0"/>
        <pt x="517" y="276" on="1"/>
        <pt x="517" y="285" on="0"/>
        <pt x="509" y="278" on="1"/>
        <pt x="506" y="276" on="0"/>
        <pt x="488" y="245" on="1"/>
        <pt x="485" y="241" on="0"/>
        <pt x="476" y="226" on="0"/>
        <pt x="469" y="213" on="0"/>
        <pt x="467" y="207" on="1"/>
        <pt x="466" y="201" on="0"/>
        <pt x="455" y="180" on="0"/>
      </contour>
      <contour>
        <pt x="347" y="211" on="0"/>
        <pt x="338" y="170" on="0"/>
        <pt x="341" y="167" on="1"/>
        <pt x="342" y="166" on="0"/>
        <pt x="350" y="175" on="0"/>
        <pt x="355" y="184" on="1"/>
        <pt x="360" y="193" on="0"/>
        <pt x="366" y="206" on="1"/>
        <pt x="377" y="228" on="0"/>
        <pt x="377" y="231" on="1"/>
        <pt x="377" y="232" on="0"/>
        <pt x="387" y="254" on="1"/>
        <pt x="408" y="299" on="0"/>
        <pt x="408" y="301" on="1"/>
        <pt x="408" y="310" on="0"/>
        <pt x="399" y="303" on="1"/>
        <pt x="393" y="298" on="0"/>
        <pt x="378" y="269" on="1"/>
        <pt x="369" y="252" on="0"/>
        <pt x="362" y="243" on="1"/>
        <pt x="356" y="235" on="0"/>
        <pt x="356" y="226" on="1"/>
        <pt x="356" y="219" on="0"/>
        <pt x="351" y="214" on="1"/>
      </contour>
      <contour>
        <pt x="552" y="95" on="1"/>
        <pt x="555" y="95" on="0"/>
        <pt x="579" y="140" on="0"/>
        <pt x="579" y="145" on="1"/>
        <pt x="579" y="151" on="0"/>
        <pt x="567" y="154" on="0"/>
        <pt x="563" y="149" on="1"/>
        <pt x="560" y="146" on="0"/>
        <pt x="557" y="139" on="1"/>
        <pt x="554" y="132" on="0"/>
        <pt x="553" y="125" on="1"/>
        <pt x="551" y="117" on="0"/>
        <pt x="550" y="111" on="1"/>
        <pt x="549" y="104" on="0"/>
        <pt x="550" y="95" on="0"/>
      </contour>
      <contour>
        <pt x="388" y="522" on="1"/>
        <pt x="390" y="507" on="0"/>
        <pt x="382" y="481" on="0"/>
        <pt x="357" y="443" on="0"/>
        <pt x="355" y="439" on="1"/>
        <pt x="342" y="414" on="0"/>
        <pt x="342" y="410" on="1"/>
        <pt x="342" y="406" on="0"/>
        <pt x="349" y="399" on="1"/>
        <pt x="354" y="395" on="0"/>
        <pt x="358" y="394" on="1"/>
        <pt x="362" y="393" on="0"/>
        <pt x="371" y="395" on="1"/>
        <pt x="386" y="397" on="0"/>
        <pt x="404" y="402" on="1"/>
        <pt x="430" y="410" on="0"/>
        <pt x="439" y="418" on="1"/>
        <pt x="442" y="419" on="0"/>
        <pt x="444" y="421" on="1"/>
        <pt x="443" y="439" on="0"/>
        <pt x="445" y="458" on="1"/>
        <pt x="445" y="459" on="0"/>
        <pt x="451" y="509" on="0"/>
        <pt x="457" y="557" on="0"/>
        <pt x="456" y="557" on="1"/>
        <pt x="453" y="560" on="0"/>
        <pt x="443" y="560" on="1"/>
        <pt x="418" y="562" on="0"/>
        <pt x="403" y="562" on="1"/>
        <pt x="389" y="561" on="0"/>
        <pt x="383" y="563" on="1"/>
        <pt x="381" y="563" on="0"/>
        <pt x="373" y="563" on="0"/>
        <pt x="366" y="563" on="0"/>
        <pt x="366" y="565" on="1"/>
        <pt x="366" y="570" on="0"/>
        <pt x="370" y="572" on="1"/>
        <pt x="370" y="572" on="0"/>
        <pt x="377" y="577" on="0"/>
        <pt x="385" y="581" on="0"/>
        <pt x="399" y="585" on="0"/>
        <pt x="405" y="584" on="1"/>
        <pt x="418" y="583" on="0"/>
        <pt x="464" y="584" on="0"/>
        <pt x="468" y="584" on="1"/>
        <pt x="470" y="585" on="0"/>
        <pt x="470" y="585" on="1"/>
        <pt x="470" y="586" on="0"/>
        <pt x="472" y="588" on="1"/>
        <pt x="479" y="596" on="0"/>
        <pt x="492" y="629" on="1"/>
        <pt x="500" y="648" on="0"/>
        <pt x="508" y="665" on="0"/>
        <pt x="528" y="695" on="0"/>
        <pt x="538" y="700" on="1"/>
        <pt x="563" y="713" on="0"/>
        <pt x="563" y="698" on="1"/>
        <pt x="563" y="693" on="0"/>
        <pt x="548" y="655" on="1"/>
        <pt x="547" y="652" on="0"/>
        <pt x="547" y="650" on="1"/>
        <pt x="545" y="645" on="0"/>
        <pt x="542" y="629" on="0"/>
        <pt x="538" y="621" on="1"/>
        <pt x="535" y="616" on="0"/>
        <pt x="527" y="600" on="1"/>
        <pt x="521" y="589" on="0"/>
        <pt x="523" y="587" on="1"/>
        <pt x="524" y="585" on="0"/>
        <pt x="552" y="581" on="1"/>
        <pt x="572" y="579" on="0"/>
        <pt x="575" y="578" on="1"/>
        <pt x="580" y="576" on="0"/>
        <pt x="579" y="572" on="1"/>
        <pt x="578" y="566" on="0"/>
        <pt x="573" y="567" on="1"/>
        <pt x="570" y="567" on="0"/>
        <pt x="564" y="567" on="1"/>
        <pt x="553" y="567" on="0"/>
        <pt x="548" y="566" on="1"/>
        <pt x="539" y="566" on="0"/>
        <pt x="530" y="564" on="1"/>
        <pt x="521" y="563" on="0"/>
        <pt x="515" y="563" on="1"/>
        <pt x="512" y="562" on="0"/>
        <pt x="501" y="524" on="0"/>
        <pt x="489" y="469" on="0"/>
        <pt x="486" y="459" on="1"/>
        <pt x="471" y="412" on="0"/>
        <pt x="490" y="394" on="1"/>
        <pt x="498" y="386" on="0"/>
        <pt x="505" y="387" on="1"/>
        <pt x="509" y="387" on="0"/>
        <pt x="515" y="390" on="1"/>
        <pt x="516" y="391" on="0"/>
        <pt x="548" y="405" on="1"/>
        <pt x="603" y="430" on="0"/>
        <pt x="649" y="467" on="1"/>
        <pt x="650" y="477" on="0"/>
        <pt x="651" y="483" on="1"/>
        <pt x="657" y="507" on="0"/>
        <pt x="673" y="549" on="1"/>
        <pt x="675" y="555" on="0"/>
        <pt x="692" y="624" on="0"/>
        <pt x="715" y="666" on="0"/>
        <pt x="736" y="671" on="1"/>
        <pt x="749" y="674" on="0"/>
        <pt x="764" y="662" on="0"/>
        <pt x="766" y="638" on="0"/>
        <pt x="764" y="617" on="0"/>
        <pt x="762" y="607" on="1"/>
        <pt x="759" y="596" on="0"/>
        <pt x="751" y="579" on="1"/>
        <pt x="743" y="564" on="0"/>
        <pt x="740" y="557" on="1"/>
        <pt x="736" y="545" on="0"/>
        <pt x="727" y="532" on="1"/>
        <pt x="723" y="527" on="0"/>
        <pt x="708" y="501" on="0"/>
        <pt x="704" y="495" on="1"/>
        <pt x="696" y="485" on="0"/>
        <pt x="689" y="477" on="1"/>
        <pt x="688" y="476" on="0"/>
        <pt x="682" y="471" on="0"/>
        <pt x="678" y="466" on="0"/>
        <pt x="677" y="464" on="1"/>
        <pt x="677" y="463" on="0"/>
        <pt x="678" y="460" on="0"/>
        <pt x="679" y="461" on="1"/>
        <pt x="680" y="461" on="0"/>
        <pt x="681" y="461" on="1"/>
        <pt x="684" y="463" on="0"/>
        <pt x="693" y="472" on="0"/>
        <pt x="700" y="478" on="0"/>
        <pt x="705" y="478" on="1"/>
        <pt x="705" y="478" on="0"/>
        <pt x="710" y="479" on="1"/>
        <pt x="724" y="480" on="0"/>
        <pt x="741" y="472" on="0"/>
        <pt x="747" y="461" on="1"/>
        <pt x="752" y="450" on="0"/>
        <pt x="752" y="435" on="1"/>
        <pt x="752" y="422" on="0"/>
        <pt x="760" y="387" on="0"/>
        <pt x="765" y="379" on="1"/>
        <pt x="768" y="373" on="0"/>
        <pt x="772" y="372" on="1"/>
        <pt x="776" y="371" on="0"/>
        <pt x="786" y="373" on="1"/>
        <pt x="799" y="375" on="0"/>
        <pt x="808" y="378" on="1"/>
        <pt x="830" y="389" on="0"/>
        <pt x="843" y="400" on="1"/>
        <pt x="861" y="413" on="0"/>
        <pt x="861" y="394" on="1"/>
        <pt x="861" y="392" on="0"/>
        <pt x="859" y="387" on="0"/>
        <pt x="856" y="383" on="0"/>
        <pt x="852" y="379" on="0"/>
        <pt x="847" y="375" on="0"/>
        <pt x="843" y="372" on="0"/>
        <pt x="838" y="369" on="0"/>
        <pt x="837" y="368" on="1"/>
        <pt x="836" y="368" on="0"/>
        <pt x="835" y="367" on="0"/>
        <pt x="835" y="367" on="1"/>
        <pt x="834" y="366" on="0"/>
        <pt x="831" y="364" on="0"/>
        <pt x="830" y="364" on="1"/>
        <pt x="819" y="356" on="0"/>
        <pt x="810" y="353" on="1"/>
        <pt x="802" y="351" on="0"/>
        <pt x="789" y="349" on="1"/>
        <pt x="756" y="346" on="0"/>
        <pt x="724" y="383" on="0"/>
        <pt x="717" y="433" on="1"/>
        <pt x="715" y="449" on="0"/>
        <pt x="713" y="449" on="1"/>
        <pt x="711" y="449" on="0"/>
        <pt x="690" y="431" on="1"/>
        <pt x="677" y="420" on="0"/>
        <pt x="673" y="413" on="1"/>
        <pt x="670" y="411" on="0"/>
        <pt x="666" y="403" on="0"/>
        <pt x="662" y="391" on="0"/>
        <pt x="660" y="387" on="0"/>
        <pt x="657" y="380" on="0"/>
        <pt x="657" y="378" on="1"/>
        <pt x="656" y="376" on="0"/>
        <pt x="653" y="368" on="0"/>
        <pt x="652" y="366" on="1"/>
        <pt x="651" y="363" on="0"/>
        <pt x="650" y="350" on="0"/>
        <pt x="646" y="342" on="0"/>
        <pt x="640" y="342" on="1"/>
        <pt x="629" y="340" on="0"/>
        <pt x="621" y="351" on="1"/>
        <pt x="615" y="359" on="0"/>
        <pt x="615" y="366" on="0"/>
        <pt x="619" y="375" on="1"/>
        <pt x="620" y="378" on="0"/>
        <pt x="620" y="379" on="1"/>
        <pt x="631" y="410" on="0"/>
        <pt x="638" y="423" on="1"/>
        <pt x="642" y="430" on="0"/>
        <pt x="644" y="439" on="1"/>
        <pt x="577" y="384" on="0"/>
        <pt x="528" y="367" on="1"/>
        <pt x="525" y="366" on="0"/>
        <pt x="525" y="366" on="1"/>
        <pt x="516" y="363" on="0"/>
        <pt x="507" y="361" on="1"/>
        <pt x="506" y="361" on="1"/>
        <pt x="475" y="356" on="0"/>
        <pt x="461" y="369" on="1"/>
        <pt x="452" y="378" on="0"/>
        <pt x="447" y="399" on="1"/>
        <pt x="446" y="397" on="0"/>
        <pt x="434" y="389" on="1"/>
        <pt x="426" y="384" on="0"/>
        <pt x="419" y="381" on="1"/>
        <pt x="411" y="378" on="1"/>
        <pt x="393" y="371" on="0"/>
        <pt x="372" y="369" on="1"/>
        <pt x="351" y="368" on="0"/>
        <pt x="342" y="373" on="1"/>
        <pt x="340" y="374" on="0"/>
        <pt x="324" y="381" on="0"/>
        <pt x="321" y="383" on="1"/>
        <pt x="314" y="388" on="0"/>
        <pt x="308" y="402" on="1"/>
        <pt x="297" y="428" on="0"/>
        <pt x="297" y="448" on="1"/>
        <pt x="297" y="461" on="0"/>
        <pt x="301" y="481" on="1"/>
        <pt x="307" y="505" on="0"/>
        <pt x="311" y="511" on="1"/>
        <pt x="317" y="520" on="0"/>
        <pt x="321" y="524" on="1"/>
        <pt x="337" y="540" on="0"/>
        <pt x="361" y="538" on="1"/>
        <pt x="386" y="536" on="0"/>
      </contour>
      <contour>
        <pt x="683" y="526" on="1"/>
        <pt x="679" y="508" on="0"/>
        <pt x="683" y="505" on="1"/>
        <pt x="684" y="504" on="0"/>
        <pt x="687" y="508" on="1"/>
        <pt x="691" y="513" on="0"/>
        <pt x="695" y="521" on="1"/>
        <pt x="700" y="530" on="0"/>
        <pt x="704" y="542" on="1"/>
        <pt x="713" y="563" on="0"/>
        <pt x="713" y="565" on="1"/>
        <pt x="713" y="566" on="0"/>
        <pt x="721" y="587" on="1"/>
        <pt x="738" y="630" on="0"/>
        <pt x="738" y="633" on="1"/>
        <pt x="737" y="642" on="0"/>
        <pt x="729" y="634" on="1"/>
        <pt x="727" y="632" on="0"/>
        <pt x="711" y="600" on="1"/>
        <pt x="709" y="595" on="0"/>
        <pt x="700" y="579" on="0"/>
        <pt x="695" y="567" on="0"/>
        <pt x="694" y="560" on="1"/>
        <pt x="693" y="554" on="0"/>
        <pt x="684" y="532" on="0"/>
      </contour>
      <contour>
        <pt x="329" y="438" on="0"/>
        <pt x="352" y="484" on="0"/>
        <pt x="352" y="488" on="1"/>
        <pt x="352" y="494" on="0"/>
        <pt x="340" y="497" on="0"/>
        <pt x="337" y="493" on="1"/>
        <pt x="334" y="489" on="0"/>
        <pt x="331" y="482" on="1"/>
        <pt x="328" y="475" on="0"/>
        <pt x="326" y="468" on="1"/>
        <pt x="325" y="460" on="0"/>
        <pt x="324" y="454" on="1"/>
        <pt x="323" y="447" on="0"/>
        <pt x="323" y="443" on="1"/>
        <pt x="324" y="438" on="0"/>
        <pt x="326" y="438" on="1"/>
      </contour>
    </TTGlyph>
    <TTGlyph name="asterisk.alt11" xMin="33" yMin="0" xMax="879" yMax="789">
      <contour>
        <pt x="490" y="78" on="1"/>
        <pt x="593" y="95" on="0"/>
        <pt x="593" y="75" on="1"/>
        <pt x="593" y="72" on="0"/>
        <pt x="584" y="70" on="0"/>
        <pt x="570" y="69" on="1"/>
        <pt x="548" y="68" on="0"/>
        <pt x="521" y="62" on="1"/>
        <pt x="491" y="55" on="0"/>
        <pt x="483" y="54" on="1"/>
        <pt x="468" y="52" on="0"/>
        <pt x="452" y="39" on="0"/>
        <pt x="444" y="22" on="1"/>
        <pt x="437" y="9" on="0"/>
        <pt x="430" y="0" on="0"/>
        <pt x="425" y="0" on="1"/>
        <pt x="411" y="0" on="0"/>
        <pt x="408" y="22" on="1"/>
        <pt x="406" y="35" on="1"/>
        <pt x="382" y="33" on="1"/>
        <pt x="361" y="32" on="0"/>
        <pt x="345" y="40" on="0"/>
        <pt x="345" y="51" on="1"/>
        <pt x="345" y="56" on="0"/>
        <pt x="346" y="57" on="1"/>
        <pt x="348" y="58" on="0"/>
        <pt x="354" y="56" on="1"/>
        <pt x="363" y="54" on="0"/>
        <pt x="387" y="54" on="1"/>
        <pt x="411" y="54" on="0"/>
        <pt x="428" y="64" on="0"/>
        <pt x="436" y="84" on="1"/>
        <pt x="454" y="125" on="0"/>
        <pt x="485" y="191" on="1"/>
        <pt x="520" y="267" on="0"/>
        <pt x="518" y="270" on="1"/>
        <pt x="517" y="270" on="0"/>
        <pt x="493" y="251" on="1"/>
        <pt x="471" y="234" on="0"/>
        <pt x="456" y="247" on="1"/>
        <pt x="448" y="253" on="1"/>
        <pt x="456" y="266" on="1"/>
        <pt x="464" y="280" on="0"/>
        <pt x="476" y="293" on="1"/>
        <pt x="488" y="307" on="0"/>
        <pt x="488" y="316" on="0"/>
        <pt x="494" y="316" on="1"/>
        <pt x="499" y="316" on="0"/>
        <pt x="510" y="322" on="1"/>
        <pt x="519" y="329" on="0"/>
        <pt x="546" y="329" on="1"/>
        <pt x="548" y="329" on="0"/>
        <pt x="561" y="330" on="0"/>
        <pt x="570" y="329" on="0"/>
        <pt x="572" y="326" on="1"/>
        <pt x="575" y="323" on="0"/>
        <pt x="576" y="309" on="0"/>
        <pt x="572" y="287" on="0"/>
        <pt x="572" y="287" on="1"/>
        <pt x="571" y="280" on="0"/>
        <pt x="570" y="278" on="1"/>
        <pt x="568" y="274" on="0"/>
        <pt x="566" y="272" on="1"/>
        <pt x="560" y="266" on="0"/>
        <pt x="556" y="253" on="1"/>
        <pt x="554" y="243" on="0"/>
        <pt x="532" y="203" on="0"/>
        <pt x="530" y="196" on="1"/>
        <pt x="524" y="180" on="0"/>
        <pt x="511" y="169" on="0"/>
        <pt x="511" y="165" on="1"/>
        <pt x="511" y="161" on="0"/>
        <pt x="506" y="157" on="1"/>
        <pt x="504" y="154" on="0"/>
        <pt x="499" y="143" on="1"/>
        <pt x="497" y="140" on="0"/>
        <pt x="490" y="123" on="1"/>
        <pt x="485" y="112" on="0"/>
        <pt x="482" y="109" on="1"/>
        <pt x="476" y="103" on="0"/>
        <pt x="466" y="79" on="0"/>
        <pt x="469" y="77" on="1"/>
        <pt x="471" y="75" on="0"/>
      </contour>
      <contour>
        <pt x="365" y="191" on="1"/>
        <pt x="359" y="191" on="0"/>
        <pt x="348" y="201" on="0"/>
        <pt x="345" y="209" on="1"/>
        <pt x="342" y="216" on="0"/>
        <pt x="354" y="230" on="0"/>
        <pt x="363" y="232" on="1"/>
        <pt x="365" y="232" on="0"/>
        <pt x="369" y="232" on="1"/>
        <pt x="374" y="233" on="0"/>
        <pt x="375" y="233" on="1"/>
        <pt x="376" y="233" on="1"/>
        <pt x="378" y="233" on="1"/>
        <pt x="380" y="233" on="0"/>
        <pt x="385" y="228" on="0"/>
        <pt x="389" y="220" on="0"/>
        <pt x="389" y="213" on="0"/>
        <pt x="380" y="200" on="0"/>
        <pt x="374" y="196" on="1"/>
        <pt x="368" y="191" on="0"/>
      </contour>
      <contour>
        <pt x="301" y="333" on="0"/>
        <pt x="317" y="323" on="0"/>
        <pt x="320" y="317" on="0"/>
        <pt x="318" y="303" on="1"/>
        <pt x="315" y="284" on="0"/>
        <pt x="313" y="279" on="1"/>
        <pt x="310" y="273" on="0"/>
        <pt x="310" y="265" on="1"/>
        <pt x="310" y="255" on="0"/>
        <pt x="298" y="237" on="0"/>
        <pt x="284" y="223" on="1"/>
        <pt x="267" y="206" on="0"/>
        <pt x="267" y="204" on="1"/>
        <pt x="267" y="201" on="0"/>
        <pt x="278" y="196" on="1"/>
        <pt x="288" y="191" on="0"/>
        <pt x="302" y="178" on="1"/>
        <pt x="322" y="158" on="0"/>
        <pt x="310" y="119" on="1"/>
        <pt x="307" y="109" on="0"/>
        <pt x="288" y="88" on="0"/>
        <pt x="272" y="76" on="0"/>
        <pt x="241" y="57" on="0"/>
        <pt x="237" y="54" on="1"/>
        <pt x="218" y="42" on="0"/>
        <pt x="211" y="39" on="1"/>
        <pt x="204" y="36" on="0"/>
        <pt x="198" y="37" on="1"/>
        <pt x="189" y="39" on="0"/>
        <pt x="178" y="35" on="1"/>
        <pt x="171" y="33" on="0"/>
        <pt x="160" y="34" on="0"/>
        <pt x="150" y="37" on="1"/>
        <pt x="138" y="41" on="0"/>
        <pt x="132" y="47" on="0"/>
        <pt x="130" y="55" on="1"/>
        <pt x="127" y="66" on="0"/>
        <pt x="132" y="71" on="1"/>
        <pt x="135" y="74" on="0"/>
        <pt x="140" y="72" on="0"/>
        <pt x="155" y="61" on="0"/>
        <pt x="164" y="58" on="0"/>
        <pt x="172" y="60" on="1"/>
        <pt x="210" y="66" on="0"/>
        <pt x="243" y="101" on="1"/>
        <pt x="268" y="126" on="0"/>
        <pt x="277" y="159" on="0"/>
        <pt x="263" y="170" on="1"/>
        <pt x="256" y="177" on="0"/>
        <pt x="248" y="179" on="0"/>
        <pt x="238" y="177" on="1"/>
        <pt x="224" y="176" on="0"/>
        <pt x="216" y="170" on="1"/>
        <pt x="201" y="161" on="0"/>
        <pt x="191" y="172" on="1"/>
        <pt x="183" y="181" on="0"/>
        <pt x="188" y="189" on="1"/>
        <pt x="193" y="198" on="0"/>
        <pt x="213" y="208" on="1"/>
        <pt x="245" y="225" on="0"/>
        <pt x="284" y="282" on="0"/>
        <pt x="277" y="301" on="1"/>
        <pt x="275" y="306" on="0"/>
        <pt x="269" y="308" on="0"/>
        <pt x="259" y="306" on="1"/>
        <pt x="246" y="303" on="0"/>
        <pt x="226" y="291" on="1"/>
        <pt x="207" y="278" on="0"/>
        <pt x="203" y="269" on="1"/>
        <pt x="200" y="263" on="0"/>
        <pt x="193" y="260" on="0"/>
        <pt x="183" y="260" on="1"/>
        <pt x="174" y="260" on="0"/>
        <pt x="164" y="263" on="0"/>
        <pt x="160" y="270" on="0"/>
        <pt x="160" y="276" on="1"/>
        <pt x="160" y="284" on="0"/>
        <pt x="167" y="293" on="1"/>
        <pt x="175" y="302" on="0"/>
        <pt x="186" y="307" on="1"/>
        <pt x="241" y="332" on="0"/>
        <pt x="251" y="335" on="1"/>
        <pt x="261" y="338" on="0"/>
        <pt x="281" y="336" on="1"/>
      </contour>
      <contour>
        <pt x="384" y="119" on="1"/>
        <pt x="372" y="96" on="0"/>
        <pt x="349" y="111" on="1"/>
        <pt x="344" y="114" on="0"/>
        <pt x="339" y="119" on="0"/>
        <pt x="336" y="125" on="0"/>
        <pt x="336" y="129" on="1"/>
        <pt x="336" y="138" on="0"/>
        <pt x="342" y="141" on="1"/>
        <pt x="350" y="146" on="0"/>
        <pt x="376" y="144" on="0"/>
        <pt x="382" y="137" on="1"/>
        <pt x="387" y="131" on="0"/>
        <pt x="388" y="126" on="0"/>
      </contour>
      <contour>
        <pt x="777" y="171" on="1"/>
        <pt x="802" y="169" on="0"/>
        <pt x="809" y="163" on="1"/>
        <pt x="817" y="157" on="0"/>
        <pt x="817" y="139" on="1"/>
        <pt x="817" y="123" on="1"/>
        <pt x="785" y="93" on="1"/>
        <pt x="754" y="63" on="0"/>
        <pt x="748" y="63" on="1"/>
        <pt x="743" y="63" on="0"/>
        <pt x="738" y="58" on="1"/>
        <pt x="731" y="49" on="0"/>
        <pt x="691" y="45" on="1"/>
        <pt x="672" y="42" on="0"/>
        <pt x="666" y="39" on="1"/>
        <pt x="655" y="33" on="0"/>
        <pt x="629" y="50" on="0"/>
        <pt x="631" y="61" on="1"/>
        <pt x="633" y="70" on="0"/>
        <pt x="629" y="87" on="1"/>
        <pt x="625" y="103" on="0"/>
        <pt x="625" y="115" on="1"/>
        <pt x="625" y="127" on="0"/>
        <pt x="629" y="145" on="1"/>
        <pt x="634" y="163" on="0"/>
        <pt x="638" y="173" on="1"/>
        <pt x="643" y="185" on="0"/>
        <pt x="658" y="216" on="1"/>
        <pt x="677" y="255" on="0"/>
        <pt x="693" y="279" on="1"/>
        <pt x="700" y="292" on="0"/>
        <pt x="704" y="307" on="1"/>
        <pt x="707" y="317" on="0"/>
        <pt x="709" y="319" on="1"/>
        <pt x="712" y="322" on="0"/>
        <pt x="719" y="325" on="1"/>
        <pt x="730" y="327" on="0"/>
        <pt x="733" y="330" on="1"/>
        <pt x="737" y="334" on="0"/>
        <pt x="755" y="332" on="0"/>
        <pt x="759" y="327" on="1"/>
        <pt x="763" y="323" on="0"/>
        <pt x="763" y="317" on="0"/>
        <pt x="760" y="310" on="1"/>
        <pt x="755" y="300" on="0"/>
        <pt x="742" y="283" on="1"/>
        <pt x="732" y="271" on="0"/>
        <pt x="722" y="254" on="1"/>
        <pt x="714" y="238" on="0"/>
        <pt x="706" y="227" on="1"/>
        <pt x="696" y="212" on="0"/>
        <pt x="696" y="204" on="0"/>
        <pt x="691" y="200" on="1"/>
        <pt x="687" y="196" on="0"/>
        <pt x="680" y="182" on="1"/>
        <pt x="673" y="167" on="0"/>
        <pt x="665" y="141" on="1"/>
        <pt x="657" y="117" on="0"/>
        <pt x="659" y="114" on="1"/>
        <pt x="659" y="114" on="0"/>
        <pt x="663" y="116" on="1"/>
        <pt x="667" y="119" on="0"/>
        <pt x="674" y="124" on="1"/>
        <pt x="681" y="129" on="0"/>
        <pt x="689" y="135" on="1"/>
        <pt x="716" y="157" on="0"/>
        <pt x="733" y="166" on="1"/>
        <pt x="745" y="170" on="0"/>
        <pt x="759" y="172" on="0"/>
      </contour>
      <contour>
        <pt x="740" y="96" on="1"/>
        <pt x="769" y="117" on="0"/>
        <pt x="771" y="122" on="1"/>
        <pt x="771" y="126" on="0"/>
        <pt x="767" y="128" on="0"/>
        <pt x="759" y="127" on="1"/>
        <pt x="748" y="127" on="0"/>
        <pt x="730" y="117" on="1"/>
        <pt x="711" y="107" on="0"/>
        <pt x="696" y="93" on="1"/>
        <pt x="677" y="74" on="0"/>
        <pt x="689" y="73" on="1"/>
        <pt x="703" y="72" on="0"/>
      </contour>
      <contour>
        <pt x="870" y="467" on="0"/>
        <pt x="878" y="467" on="0"/>
        <pt x="879" y="457" on="1"/>
        <pt x="879" y="453" on="0"/>
        <pt x="872" y="443" on="0"/>
        <pt x="867" y="438" on="1"/>
        <pt x="862" y="433" on="0"/>
        <pt x="854" y="427" on="1"/>
        <pt x="848" y="422" on="0"/>
        <pt x="839" y="419" on="1"/>
        <pt x="834" y="416" on="0"/>
        <pt x="811" y="404" on="1"/>
        <pt x="793" y="397" on="0"/>
        <pt x="762" y="409" on="0"/>
        <pt x="751" y="424" on="1"/>
        <pt x="732" y="450" on="0"/>
        <pt x="746" y="501" on="1"/>
        <pt x="748" y="508" on="0"/>
        <pt x="754" y="519" on="0"/>
        <pt x="758" y="524" on="0"/>
        <pt x="758" y="524" on="1"/>
        <pt x="757" y="524" on="0"/>
        <pt x="753" y="524" on="0"/>
        <pt x="745" y="522" on="0"/>
        <pt x="736" y="519" on="0"/>
        <pt x="726" y="512" on="0"/>
        <pt x="722" y="507" on="1"/>
        <pt x="713" y="499" on="0"/>
        <pt x="688" y="463" on="0"/>
        <pt x="682" y="456" on="1"/>
        <pt x="675" y="449" on="0"/>
        <pt x="656" y="419" on="0"/>
        <pt x="643" y="397" on="0"/>
        <pt x="643" y="395" on="1"/>
        <pt x="643" y="392" on="0"/>
        <pt x="636" y="384" on="0"/>
        <pt x="625" y="379" on="0"/>
        <pt x="620" y="380" on="1"/>
        <pt x="613" y="381" on="0"/>
        <pt x="611" y="392" on="1"/>
        <pt x="609" y="399" on="0"/>
        <pt x="610" y="405" on="1"/>
        <pt x="611" y="407" on="0"/>
        <pt x="614" y="413" on="1"/>
        <pt x="604" y="411" on="0"/>
        <pt x="598" y="410" on="1"/>
        <pt x="566" y="407" on="0"/>
        <pt x="535" y="444" on="0"/>
        <pt x="528" y="495" on="1"/>
        <pt x="526" y="511" on="0"/>
        <pt x="524" y="511" on="1"/>
        <pt x="522" y="511" on="0"/>
        <pt x="502" y="492" on="1"/>
        <pt x="490" y="481" on="0"/>
        <pt x="485" y="475" on="1"/>
        <pt x="483" y="473" on="0"/>
        <pt x="475" y="450" on="1"/>
        <pt x="474" y="449" on="0"/>
        <pt x="470" y="439" on="1"/>
        <pt x="470" y="439" on="0"/>
        <pt x="465" y="427" on="1"/>
        <pt x="464" y="424" on="0"/>
        <pt x="463" y="411" on="0"/>
        <pt x="459" y="403" on="0"/>
        <pt x="454" y="402" on="1"/>
        <pt x="443" y="401" on="0"/>
        <pt x="435" y="412" on="1"/>
        <pt x="430" y="419" on="0"/>
        <pt x="429" y="427" on="0"/>
        <pt x="433" y="436" on="1"/>
        <pt x="434" y="439" on="0"/>
        <pt x="435" y="440" on="1"/>
        <pt x="435" y="442" on="0"/>
        <pt x="436" y="443" on="1"/>
        <pt x="428" y="444" on="0"/>
        <pt x="424" y="447" on="1"/>
        <pt x="421" y="449" on="0"/>
        <pt x="418" y="454" on="1"/>
        <pt x="417" y="455" on="1"/>
        <pt x="411" y="463" on="0"/>
        <pt x="405" y="459" on="1"/>
        <pt x="400" y="456" on="0"/>
        <pt x="396" y="442" on="1"/>
        <pt x="393" y="434" on="0"/>
        <pt x="392" y="432" on="1"/>
        <pt x="387" y="422" on="0"/>
        <pt x="383" y="420" on="1"/>
        <pt x="377" y="417" on="0"/>
        <pt x="368" y="409" on="1"/>
        <pt x="357" y="400" on="0"/>
        <pt x="346" y="398" on="1"/>
        <pt x="333" y="395" on="0"/>
        <pt x="328" y="393" on="1"/>
        <pt x="325" y="392" on="0"/>
        <pt x="324" y="392" on="1"/>
        <pt x="321" y="392" on="0"/>
        <pt x="318" y="393" on="1"/>
        <pt x="314" y="394" on="0"/>
        <pt x="305" y="400" on="1"/>
        <pt x="297" y="406" on="0"/>
        <pt x="289" y="417" on="0"/>
        <pt x="285" y="431" on="1"/>
        <pt x="284" y="431" on="0"/>
        <pt x="284" y="433" on="0"/>
        <pt x="284" y="433" on="1"/>
        <pt x="239" y="417" on="0"/>
        <pt x="219" y="427" on="1"/>
        <pt x="214" y="428" on="0"/>
        <pt x="206" y="430" on="0"/>
        <pt x="198" y="424" on="0"/>
        <pt x="193" y="418" on="0"/>
        <pt x="186" y="407" on="0"/>
        <pt x="182" y="398" on="0"/>
        <pt x="176" y="386" on="0"/>
        <pt x="174" y="383" on="1"/>
        <pt x="155" y="350" on="0"/>
        <pt x="148" y="345" on="1"/>
        <pt x="136" y="336" on="0"/>
        <pt x="125" y="326" on="1"/>
        <pt x="116" y="317" on="0"/>
        <pt x="108" y="316" on="1"/>
        <pt x="101" y="314" on="0"/>
        <pt x="72" y="314" on="1"/>
        <pt x="33" y="313" on="1"/>
        <pt x="33" y="342" on="1"/>
        <pt x="33" y="362" on="0"/>
        <pt x="35" y="369" on="1"/>
        <pt x="37" y="376" on="0"/>
        <pt x="46" y="388" on="1"/>
        <pt x="58" y="405" on="0"/>
        <pt x="89" y="430" on="1"/>
        <pt x="119" y="453" on="0"/>
        <pt x="121" y="459" on="1"/>
        <pt x="123" y="465" on="0"/>
        <pt x="144" y="472" on="1"/>
        <pt x="169" y="481" on="0"/>
        <pt x="173" y="486" on="1"/>
        <pt x="176" y="490" on="0"/>
        <pt x="170" y="516" on="0"/>
        <pt x="160" y="540" on="0"/>
        <pt x="149" y="566" on="0"/>
        <pt x="148" y="569" on="1"/>
        <pt x="130" y="634" on="0"/>
        <pt x="141" y="694" on="1"/>
        <pt x="150" y="743" on="0"/>
        <pt x="176" y="769" on="1"/>
        <pt x="196" y="789" on="0"/>
        <pt x="250" y="789" on="0"/>
        <pt x="269" y="767" on="1"/>
        <pt x="276" y="759" on="0"/>
        <pt x="276" y="721" on="1"/>
        <pt x="276" y="695" on="0"/>
        <pt x="273" y="674" on="1"/>
        <pt x="269" y="651" on="0"/>
        <pt x="261" y="610" on="1"/>
        <pt x="252" y="564" on="0"/>
        <pt x="248" y="540" on="1"/>
        <pt x="245" y="525" on="1"/>
        <pt x="254" y="526" on="0"/>
        <pt x="257" y="525" on="1"/>
        <pt x="262" y="524" on="0"/>
        <pt x="269" y="517" on="1"/>
        <pt x="280" y="507" on="1"/>
        <pt x="272" y="499" on="1"/>
        <pt x="264" y="489" on="0"/>
        <pt x="246" y="486" on="1"/>
        <pt x="234" y="483" on="0"/>
        <pt x="222" y="461" on="0"/>
        <pt x="236" y="446" on="1"/>
        <pt x="241" y="442" on="0"/>
        <pt x="249" y="441" on="0"/>
        <pt x="255" y="443" on="0"/>
        <pt x="268" y="450" on="0"/>
        <pt x="274" y="452" on="1"/>
        <pt x="275" y="452" on="0"/>
        <pt x="277" y="453" on="1"/>
        <pt x="278" y="454" on="0"/>
        <pt x="279" y="454" on="1"/>
        <pt x="277" y="463" on="0"/>
        <pt x="277" y="468" on="1"/>
        <pt x="278" y="482" on="0"/>
        <pt x="287" y="502" on="1"/>
        <pt x="299" y="528" on="0"/>
        <pt x="311" y="540" on="1"/>
        <pt x="323" y="553" on="0"/>
        <pt x="342" y="559" on="1"/>
        <pt x="351" y="563" on="0"/>
        <pt x="357" y="569" on="1"/>
        <pt x="368" y="577" on="0"/>
        <pt x="385" y="576" on="0"/>
        <pt x="398" y="566" on="1"/>
        <pt x="404" y="560" on="0"/>
        <pt x="407" y="557" on="1"/>
        <pt x="410" y="553" on="0"/>
        <pt x="412" y="550" on="1"/>
        <pt x="413" y="546" on="0"/>
        <pt x="414" y="539" on="1"/>
        <pt x="418" y="510" on="0"/>
        <pt x="422" y="495" on="1"/>
        <pt x="425" y="481" on="0"/>
        <pt x="441" y="471" on="1"/>
        <pt x="442" y="472" on="1"/>
        <pt x="445" y="474" on="0"/>
        <pt x="449" y="478" on="1"/>
        <pt x="449" y="479" on="0"/>
        <pt x="451" y="484" on="0"/>
        <pt x="452" y="485" on="1"/>
        <pt x="458" y="496" on="0"/>
        <pt x="464" y="542" on="0"/>
        <pt x="465" y="545" on="1"/>
        <pt x="470" y="569" on="0"/>
        <pt x="486" y="611" on="1"/>
        <pt x="489" y="619" on="0"/>
        <pt x="500" y="665" on="0"/>
        <pt x="509" y="698" on="0"/>
        <pt x="531" y="730" on="0"/>
        <pt x="546" y="734" on="1"/>
        <pt x="559" y="737" on="0"/>
        <pt x="574" y="725" on="0"/>
        <pt x="576" y="701" on="0"/>
        <pt x="574" y="680" on="0"/>
        <pt x="572" y="670" on="1"/>
        <pt x="569" y="659" on="0"/>
        <pt x="561" y="642" on="1"/>
        <pt x="553" y="626" on="0"/>
        <pt x="550" y="620" on="1"/>
        <pt x="546" y="607" on="0"/>
        <pt x="538" y="594" on="1"/>
        <pt x="535" y="589" on="0"/>
        <pt x="527" y="575" on="0"/>
        <pt x="519" y="562" on="0"/>
        <pt x="515" y="557" on="1"/>
        <pt x="509" y="549" on="0"/>
        <pt x="501" y="539" on="1"/>
        <pt x="490" y="527" on="0"/>
        <pt x="489" y="524" on="0"/>
        <pt x="491" y="522" on="0"/>
        <pt x="492" y="522" on="1"/>
        <pt x="492" y="522" on="0"/>
        <pt x="493" y="523" on="1"/>
        <pt x="495" y="524" on="0"/>
        <pt x="498" y="527" on="0"/>
        <pt x="501" y="530" on="0"/>
        <pt x="504" y="533" on="0"/>
        <pt x="507" y="536" on="0"/>
        <pt x="511" y="538" on="0"/>
        <pt x="515" y="540" on="0"/>
        <pt x="517" y="540" on="1"/>
        <pt x="520" y="540" on="0"/>
        <pt x="522" y="540" on="1"/>
        <pt x="535" y="542" on="0"/>
        <pt x="552" y="534" on="0"/>
        <pt x="557" y="523" on="1"/>
        <pt x="562" y="511" on="0"/>
        <pt x="562" y="497" on="1"/>
        <pt x="562" y="484" on="0"/>
        <pt x="570" y="448" on="0"/>
        <pt x="575" y="440" on="1"/>
        <pt x="578" y="434" on="0"/>
        <pt x="581" y="433" on="1"/>
        <pt x="585" y="432" on="0"/>
        <pt x="595" y="434" on="1"/>
        <pt x="608" y="436" on="0"/>
        <pt x="616" y="439" on="1"/>
        <pt x="623" y="443" on="0"/>
        <pt x="633" y="449" on="1"/>
        <pt x="671" y="529" on="0"/>
        <pt x="680" y="540" on="1"/>
        <pt x="681" y="542" on="0"/>
        <pt x="683" y="544" on="1"/>
        <pt x="687" y="548" on="0"/>
        <pt x="700" y="553" on="0"/>
        <pt x="705" y="550" on="1"/>
        <pt x="706" y="549" on="0"/>
        <pt x="707" y="543" on="0"/>
        <pt x="708" y="538" on="0"/>
        <pt x="710" y="537" on="1"/>
        <pt x="712" y="537" on="0"/>
        <pt x="720" y="543" on="1"/>
        <pt x="734" y="554" on="0"/>
        <pt x="764" y="561" on="1"/>
        <pt x="776" y="564" on="0"/>
        <pt x="783" y="563" on="0"/>
        <pt x="788" y="557" on="1"/>
        <pt x="796" y="550" on="0"/>
        <pt x="796" y="528" on="0"/>
        <pt x="789" y="519" on="1"/>
        <pt x="784" y="511" on="0"/>
        <pt x="768" y="463" on="0"/>
        <pt x="768" y="454" on="1"/>
        <pt x="768" y="447" on="0"/>
        <pt x="772" y="440" on="1"/>
        <pt x="778" y="428" on="0"/>
        <pt x="796" y="423" on="0"/>
        <pt x="812" y="428" on="0"/>
        <pt x="823" y="435" on="1"/>
        <pt x="846" y="448" on="0"/>
        <pt x="860" y="459" on="1"/>
      </contour>
      <contour>
        <pt x="498" y="576" on="1"/>
        <pt x="496" y="571" on="0"/>
        <pt x="499" y="569" on="1"/>
        <pt x="502" y="571" on="1"/>
        <pt x="507" y="576" on="0"/>
        <pt x="514" y="588" on="0"/>
        <pt x="521" y="605" on="0"/>
        <pt x="523" y="610" on="1"/>
        <pt x="532" y="628" on="0"/>
        <pt x="538" y="653" on="1"/>
        <pt x="538" y="654" on="0"/>
        <pt x="544" y="669" on="0"/>
        <pt x="545" y="676" on="0"/>
        <pt x="544" y="680" on="1"/>
        <pt x="542" y="682" on="0"/>
        <pt x="538" y="678" on="1"/>
        <pt x="536" y="676" on="0"/>
        <pt x="532" y="666" on="1"/>
        <pt x="530" y="663" on="0"/>
        <pt x="529" y="659" on="1"/>
        <pt x="528" y="658" on="0"/>
        <pt x="524" y="649" on="0"/>
        <pt x="523" y="647" on="1"/>
        <pt x="516" y="632" on="0"/>
        <pt x="512" y="616" on="1"/>
        <pt x="510" y="611" on="0"/>
      </contour>
      <contour>
        <pt x="138" y="389" on="1"/>
        <pt x="165" y="431" on="0"/>
        <pt x="164" y="437" on="1"/>
        <pt x="164" y="452" on="0"/>
        <pt x="132" y="421" on="1"/>
        <pt x="130" y="418" on="1"/>
        <pt x="112" y="401" on="0"/>
        <pt x="107" y="401" on="1"/>
        <pt x="100" y="401" on="0"/>
        <pt x="65" y="360" on="0"/>
        <pt x="63" y="350" on="1"/>
        <pt x="63" y="342" on="0"/>
        <pt x="66" y="338" on="0"/>
        <pt x="73" y="339" on="1"/>
        <pt x="86" y="340" on="0"/>
        <pt x="125" y="371" on="0"/>
      </contour>
      <contour>
        <pt x="205" y="523" on="1"/>
        <pt x="215" y="538" on="0"/>
        <pt x="220" y="567" on="1"/>
        <pt x="251" y="731" on="0"/>
        <pt x="239" y="749" on="1"/>
        <pt x="234" y="754" on="0"/>
        <pt x="222" y="754" on="1"/>
        <pt x="219" y="754" on="0"/>
        <pt x="213" y="753" on="0"/>
        <pt x="207" y="748" on="0"/>
        <pt x="204" y="744" on="1"/>
        <pt x="200" y="739" on="0"/>
        <pt x="196" y="734" on="1"/>
        <pt x="184" y="717" on="0"/>
        <pt x="178" y="697" on="1"/>
        <pt x="173" y="678" on="0"/>
        <pt x="170" y="642" on="1"/>
        <pt x="168" y="621" on="0"/>
        <pt x="169" y="613" on="1"/>
        <pt x="170" y="605" on="0"/>
        <pt x="175" y="598" on="1"/>
        <pt x="183" y="585" on="0"/>
        <pt x="187" y="563" on="1"/>
        <pt x="191" y="539" on="0"/>
        <pt x="195" y="537" on="1"/>
        <pt x="198" y="534" on="0"/>
        <pt x="198" y="526" on="1"/>
        <pt x="198" y="511" on="0"/>
      </contour>
      <contour>
        <pt x="364" y="546" on="1"/>
        <pt x="362" y="542" on="0"/>
        <pt x="366" y="528" on="1"/>
        <pt x="369" y="520" on="0"/>
        <pt x="371" y="517" on="1"/>
        <pt x="372" y="520" on="0"/>
        <pt x="371" y="531" on="1"/>
        <pt x="369" y="547" on="0"/>
        <pt x="365" y="548" on="1"/>
        <pt x="364" y="547" on="0"/>
      </contour>
      <contour>
        <pt x="375" y="463" on="1"/>
        <pt x="380" y="469" on="0"/>
        <pt x="380" y="480" on="1"/>
        <pt x="380" y="488" on="0"/>
        <pt x="376" y="494" on="0"/>
        <pt x="369" y="500" on="1"/>
        <pt x="357" y="509" on="0"/>
        <pt x="356" y="516" on="1"/>
        <pt x="356" y="520" on="0"/>
        <pt x="348" y="531" on="0"/>
        <pt x="345" y="533" on="1"/>
        <pt x="343" y="534" on="0"/>
        <pt x="341" y="534" on="1"/>
        <pt x="340" y="534" on="0"/>
        <pt x="339" y="533" on="1"/>
        <pt x="336" y="531" on="0"/>
        <pt x="327" y="520" on="1"/>
        <pt x="320" y="510" on="0"/>
        <pt x="308" y="481" on="0"/>
        <pt x="306" y="469" on="1"/>
        <pt x="304" y="457" on="0"/>
        <pt x="307" y="452" on="1"/>
        <pt x="310" y="447" on="0"/>
        <pt x="312" y="436" on="1"/>
        <pt x="314" y="427" on="0"/>
        <pt x="316" y="423" on="1"/>
        <pt x="318" y="420" on="0"/>
        <pt x="321" y="419" on="1"/>
        <pt x="325" y="418" on="0"/>
        <pt x="333" y="419" on="1"/>
        <pt x="337" y="419" on="0"/>
        <pt x="342" y="420" on="0"/>
        <pt x="347" y="422" on="0"/>
        <pt x="348" y="424" on="1"/>
        <pt x="351" y="426" on="0"/>
        <pt x="352" y="427" on="1"/>
        <pt x="354" y="429" on="0"/>
        <pt x="357" y="432" on="1"/>
        <pt x="368" y="443" on="0"/>
        <pt x="369" y="449" on="1"/>
        <pt x="370" y="456" on="0"/>
      </contour>
    </TTGlyph>
</ttFont>
